<svg width="159" height="190" viewBox="0 0 159 190" fill="none" xmlns="http://www.w3.org/2000/svg">
<g opacity="0.5" clip-path="url(#clip0_270_536)">
<path d="M199.695 87.6022C199.472 87.6124 199.142 87.7391 198.919 87.7493C198.696 87.7594 198.59 87.876 198.473 87.7696C196.922 88.0637 195.234 87.8053 193.526 87.1009C191.935 86.5029 190.556 85.6717 189.517 84.9369C188.361 84.0956 187.205 83.2543 186.166 82.5194C178.872 76.9292 174.563 70.6444 171.207 65.657L170.974 65.4442C170.371 64.466 169.768 63.4878 169.261 62.1699C168.49 59.9702 169.503 57.6892 170.644 55.7377C171.774 53.5631 173.117 51.1554 173.674 48.6717C173.771 48.3321 173.857 47.7695 173.953 47.4299C174.146 46.7507 174.232 46.188 174.424 45.5088C175.291 42.4524 177.08 40.0243 179.305 37.353C185.853 29.0094 192.857 20.8686 200.105 13.1637C200.956 12.231 201.808 11.2983 202.776 10.472C203.637 9.76234 204.393 9.16924 205.158 8.79917C205.923 8.4291 206.689 8.05904 207.581 8.01842C209.355 7.71416 211.266 7.96238 212.751 8.67695C213.78 9.18881 214.712 10.0403 215.549 11.2313C217.328 13.4969 218.692 16.4518 219.99 20.4154C220.644 22.5087 221.201 24.9417 221.779 27.8206C222.936 33.5786 223.848 38.9006 224.411 43.9033C225.015 49.7981 225.593 57.5937 223.572 64.7255C222.887 66.8797 222.289 68.4713 221.565 69.7335C220.318 71.8016 218.382 73.4541 216.542 74.767L215.893 75.2436C213.415 77.256 210.511 79.7348 207.617 82.4366L207.404 82.6698C206.116 83.8458 204.936 84.9053 203.638 85.8583C202.107 86.5984 200.906 87.2118 199.695 87.6022ZM174.693 48.9606C174.029 51.5608 172.803 54.075 171.566 56.3661C170.532 58.2011 169.615 60.1424 170.259 62.0127C170.649 63.2241 171.253 64.2023 171.846 64.9575L172.079 65.1704C175.668 70.3706 179.627 76.3361 186.805 81.8198C187.844 82.5547 189 83.396 190.155 84.2373C191.194 84.9722 192.457 85.6969 193.932 86.1885C195.407 86.68 196.978 86.832 198.316 86.7711C198.539 86.7609 198.539 86.7609 198.762 86.7507C200.09 86.4668 201.408 85.9598 202.928 84.9967C204.226 84.0437 205.3 83.1008 206.588 81.9248L206.801 81.6916C209.695 78.9898 212.599 76.511 215.077 74.4985L215.726 74.022C217.556 72.4861 219.279 71.0667 220.536 69.2216C221.26 67.9595 221.975 66.4743 222.553 64.4366C224.575 57.3049 224.006 49.7323 223.413 44.0605C222.85 39.0578 222.054 33.8422 220.898 28.0843C220.32 25.2053 219.772 22.9954 219.224 20.7855C218.043 16.9283 216.796 14.0798 215.027 12.0373C214.201 11.0692 213.384 10.3242 212.578 9.80221C211.316 9.07748 209.745 8.92555 208.194 9.21965C207.419 9.36669 206.76 9.62018 206.101 9.87367C205.335 10.2437 204.687 10.7202 203.931 11.3133C202.963 12.1396 202.112 13.0723 201.367 13.8884C194.003 21.4869 186.998 29.6277 180.45 37.9713C178.448 40.6325 176.659 43.0605 175.783 45.8939C175.59 46.5732 175.504 47.1358 175.311 47.815C174.876 48.0583 174.896 48.5044 174.693 48.9606Z" fill="white"/>
<path d="M195.276 98.5307C195.169 98.6473 194.946 98.6574 194.83 98.551C192.726 98.982 190.369 98.7541 188.098 97.9635C186.051 97.1628 184.322 96.0124 182.7 94.7453C181.195 93.5847 179.689 92.4241 178.173 91.0405C172.831 86.5906 168.37 81.8771 164.492 77.6957C161.207 74.2695 158.039 70.9498 155.008 68.1825C153.842 67.1182 152.453 66.064 151.596 64.4269C150.02 61.7051 151.672 58.7246 153.557 55.957C155.656 52.9562 157.744 49.7324 158.58 46.0068C158.666 45.4442 158.858 44.765 158.944 44.2023C159.127 43.3001 159.203 42.5145 159.492 41.4956C160.637 37.1973 164.169 33.796 167.053 30.8711L169.724 28.1795C179.014 18.7054 188.624 8.88159 198.233 -0.942226C199.511 -2.34128 200.691 -3.40072 201.979 -4.57675C203.16 -5.63619 204.128 -6.46246 205 -6.94912C205.978 -7.55236 206.966 -7.93259 207.955 -8.31282C208.178 -8.32298 208.284 -8.43956 208.507 -8.44971C210.717 -8.9973 212.957 -8.87581 214.676 -7.94838C216.277 -7.12738 217.347 -5.72344 218.173 -4.75539C220.916 -0.969295 222.69 3.64305 223.745 7.17077C224.652 9.92299 225.463 13.0148 226.305 16.7757C228.232 24.7334 229.428 31.3834 230.392 37.8205C231.416 45.5958 232.436 55.7178 229.537 65.6831C229.066 67.6041 228.169 69.9915 226.593 72.1864C224.804 74.6144 222.199 76.2974 219.817 77.9703C219.274 78.3302 218.626 78.8067 218.083 79.1666C213.851 81.9294 209.776 85.6906 206.37 89.4214C205.838 90.0043 205.412 90.4707 204.88 91.0536C203.71 92.3361 202.762 93.6084 201.474 94.7844C199.655 96.5434 197.699 97.7499 195.712 98.2873C195.382 98.4141 195.276 98.5307 195.276 98.5307ZM158.367 46.24C157.637 49.8489 155.443 53.1894 153.344 56.1902C151.566 58.8412 150.02 61.7051 151.49 64.5435C152.453 66.064 153.619 67.1283 154.785 68.1927C158.039 70.9498 161.091 74.1631 164.386 77.8123C168.264 81.9936 172.724 86.7072 178.067 91.157C179.689 92.4241 181.205 93.8077 182.594 94.8619C184.216 96.129 185.944 97.2794 187.992 98.0801C190.156 98.9872 192.62 99.0985 194.723 98.6675C194.946 98.6574 195.169 98.6473 195.276 98.5307C197.263 97.9932 199.219 96.7867 201.039 95.0278C202.326 93.8517 203.274 92.5794 204.444 91.297C204.977 90.714 205.402 90.2477 205.935 89.6647C209.224 85.8275 213.415 82.1727 217.647 79.4099C218.19 79.05 218.839 78.5735 219.381 78.2136C221.986 76.5306 224.485 74.9642 226.157 72.4297C227.627 70.3514 228.407 67.8576 229.102 65.9264C231.894 56.0778 231.097 45.9455 229.966 38.2869C229.003 31.8497 227.806 25.1997 225.879 17.2421C225.038 13.4812 224.226 10.3893 223.319 7.63712C222.148 4.00297 220.596 -0.619539 217.747 -4.28904C217.028 -5.37368 215.852 -6.66103 214.25 -7.48204C212.415 -8.51591 210.068 -8.52079 207.645 -7.74003C206.657 -7.3598 205.669 -6.97958 204.69 -6.37633C203.712 -5.77309 202.851 -5.06341 201.67 -4.00397C200.382 -2.82794 199.201 -1.76849 197.924 -0.369442C188.315 9.45437 178.705 19.2782 169.415 28.7522L166.744 31.4439C163.967 34.2522 160.551 37.7599 159.289 41.9518C159.107 42.8541 158.924 43.7563 158.742 44.6585C158.645 44.9982 158.559 45.5608 158.367 46.24Z" fill="white"/>
<path d="M143.689 37.7038C145.213 32.3906 149.778 28.2223 153.588 24.7427C153.614 24.7195 153.639 24.6963 153.665 24.6731L143.689 37.7038ZM143.689 37.7038L143.45 37.6672L143.689 37.7038Z" fill="white" stroke="white"/>
<path d="M222.425 88.0693C222.525 88.0107 222.626 87.9525 222.727 87.8946L222.425 88.0693ZM222.425 88.0693L222.397 88.0213L222.423 88.0707" fill="white" stroke="white"/>
<path d="M249.226 20.9168C249.226 20.917 249.226 20.9173 249.226 20.9176L248.827 20.9897M249.226 20.9168L248.827 20.9896M249.226 20.9168C249.211 20.8325 249.196 20.7483 249.18 20.664L249.276 20.6466M249.226 20.9168L218.874 -59.3476M248.827 20.9897C248.827 20.9897 248.827 20.9896 248.827 20.9896M248.827 20.9897L248.734 21.0065M248.827 20.9897C249.359 24.1688 249.802 27.2133 250.157 30.1332C250.586 33.5117 250.88 36.7436 251.039 39.8438C251.137 41.5775 251.198 43.2624 251.221 44.9013C251.222 45.0192 251.223 45.1369 251.224 45.2545L251.179 45.2548L248.734 21.0065M248.827 20.9896L248.734 21.0065M248.827 20.9896C248.813 20.9041 248.798 20.8185 248.784 20.7328C246.854 10.0481 244.221 -1.49097 240.155 -15.3947C240.155 -15.3948 240.155 -15.3948 240.155 -15.3949C240.137 -15.4565 240.119 -15.5182 240.101 -15.5799C238.401 -21.3591 236.712 -26.9174 235.044 -32.0401C235.044 -32.0401 235.044 -32.0402 235.044 -32.0403C235.026 -32.0954 235.008 -32.1504 234.99 -32.2054C232.786 -38.9166 230.113 -46.4412 225.723 -52.9907C225.721 -52.9936 225.719 -52.9966 225.717 -52.9995L225.59 -52.9183M248.734 21.0065L240.039 -15.3606C238.32 -21.2046 236.611 -26.8256 234.923 -32.0006C232.718 -38.7164 229.909 -46.4105 225.59 -52.9183M225.59 -52.9183L225.715 -53.0014C224.29 -54.9401 222.577 -57.1025 220.075 -58.3729C219.975 -58.4189 219.873 -58.4632 219.77 -58.5059L219.75 -58.463M225.59 -52.9183C224.267 -54.9811 222.488 -57.2467 219.75 -58.463M219.75 -58.463L219.77 -58.5061C219.435 -58.6449 219.087 -58.7662 218.726 -58.8698C219.079 -58.7505 219.421 -58.6148 219.75 -58.463ZM218.874 -59.3476C219.247 -59.222 219.609 -59.0788 219.958 -58.9181C220.062 -58.8715 220.166 -58.8234 220.268 -58.7739L220.293 -58.8229M218.874 -59.3476C219.37 -59.2047 219.844 -59.0298 220.293 -58.8229M220.293 -58.8229L220.27 -58.773C222.962 -57.4683 224.719 -55.2009 226.007 -53.1942L226.132 -53.2782M220.293 -58.8229C222.924 -57.49 224.703 -55.2245 226.132 -53.2782M226.132 -53.2782L226.011 -53.1888C230.332 -46.6754 233.146 -39.001 235.344 -32.321L235.465 -32.3605M226.132 -53.2782C230.568 -46.6639 233.26 -39.0763 235.465 -32.3605M235.465 -32.3605L235.344 -32.3207C235.362 -32.266 235.38 -32.2113 235.398 -32.1566L235.398 -32.1557C237.071 -27.0288 238.763 -21.4665 240.464 -15.6862L240.581 -15.7205M235.465 -32.3605C237.154 -27.1855 238.862 -21.5645 240.581 -15.7205M240.581 -15.7205L240.464 -15.6861C240.482 -15.6246 240.5 -15.5631 240.518 -15.5016L240.518 -15.5011C244.593 -1.59046 247.239 9.96594 249.18 20.6628L249.276 20.6466M240.581 -15.7205C244.683 -1.71604 247.334 9.89608 249.276 20.6466" fill="white" stroke="white"/>
<mask id="path-6-inside-1_270_536" fill="white">
<path d="M179.039 144.413C174.842 145.498 170.022 145.159 165.577 143.239C161.131 141.318 157.411 138.135 154.273 135.484C151.125 132.611 147.977 129.737 144.703 126.534C140.962 122.905 137.221 119.276 133.703 115.637C119.418 101.314 105.843 87.8527 88.741 80.3625C88.2848 80.1598 87.8286 79.9571 87.489 79.8608C84.0726 78.452 80.6562 77.0431 78.1774 74.139C72.9968 68.3408 77.5125 61.9894 82.5148 56.5098C87.8365 50.6804 93.447 43.8322 94.972 35.6056C95.1341 34.2574 95.4027 32.7925 95.4583 31.5608C95.6001 29.7665 95.8483 27.8556 96.3196 25.9345C98.7062 16.9983 107.449 10.2309 114.585 4.98938C139.537 -13.9136 164.058 -34.92 187.276 -57.5433C188.021 -58.3594 188.882 -59.0691 189.627 -59.8852C191.447 -61.6441 193.373 -63.5197 195.299 -65.3953C197.225 -67.2708 199.374 -69.1565 201.639 -70.9358C203.692 -72.4819 205.648 -73.6884 207.615 -74.6718C212.643 -77.1356 218.102 -77.4959 221.878 -75.5448C224.848 -74.1156 226.871 -71.4142 228.544 -69.032C233.573 -61.6626 236.528 -53.193 239.241 -45.1594C241.192 -39.1025 243.271 -32.7161 245.127 -26.3196C249.882 -10.2219 253.051 2.9311 255.277 15.0096C257.093 25.4306 258.061 34.4376 258.108 42.8161C258.129 53.0953 256.984 62.3103 254.258 71.1502C253.092 75.0025 251.308 80.0004 247.806 84.0708C243.772 88.7241 238.085 91.4414 232.505 94.042C230.645 94.9089 228.784 95.7758 227.041 96.7491C222.023 99.4359 217.365 102.665 212.854 106.67C208.45 110.558 204.735 114.861 201.709 119.58C200.346 121.542 199.11 123.833 197.969 125.785C196.52 128.309 194.964 130.95 193.068 133.494C189.49 138.351 185.618 141.656 181.452 143.41C181.016 143.653 180.463 143.79 180.134 143.917C179.815 144.266 179.485 144.393 179.039 144.413ZM94.9822 35.8287C93.4571 44.0552 87.8466 50.9034 82.525 56.7328C77.5226 62.2124 73.0069 68.5638 78.1875 74.362C80.5498 77.1597 84.0827 78.675 87.3825 79.9774C87.8387 80.1801 88.2949 80.3828 88.6345 80.4791C105.737 87.9693 119.312 101.431 133.596 115.754C137.221 119.276 140.855 123.022 144.596 126.65C147.754 129.747 151.019 132.727 154.167 135.601C157.314 138.475 161.141 141.541 165.47 143.355C169.916 145.276 174.736 145.615 178.933 144.53C179.262 144.403 179.708 144.383 180.038 144.256C180.474 144.013 180.92 143.993 181.355 143.749C185.522 141.995 189.394 138.69 192.972 133.834C194.761 131.406 196.317 128.765 197.873 126.124C199.12 124.056 200.25 121.882 201.613 119.92C204.755 115.307 208.47 111.004 212.758 107.009C217.163 103.121 221.927 99.7755 226.945 97.0887C228.688 96.1154 230.548 95.2485 232.408 94.3816C237.989 91.781 243.676 89.0637 247.71 84.4104C251.106 80.4566 252.89 75.4587 254.161 71.4898C256.781 62.7665 258.033 53.435 257.905 43.2723C257.859 34.8938 256.89 25.8868 255.075 15.4658C252.955 3.27071 249.669 -9.98869 244.924 -25.8634C242.952 -32.3664 240.99 -38.6463 239.038 -44.7032C236.325 -52.7368 233.253 -61.3128 228.341 -68.5758C226.668 -70.958 224.762 -73.553 221.675 -75.0886C217.793 -76.9231 212.557 -76.573 207.529 -74.1092C205.562 -73.1258 203.606 -71.9193 201.553 -70.3732C199.287 -68.5939 197.139 -66.7082 195.213 -64.8326C193.393 -63.0737 191.467 -61.1981 189.541 -59.3226C188.796 -58.5064 187.934 -57.7967 187.189 -56.9806C163.972 -34.3574 139.451 -13.351 114.499 5.55201C107.48 10.9 98.6201 17.5609 96.2334 26.4972C95.7622 28.4182 95.6204 30.2125 95.3722 32.1234C95.4128 33.0155 95.2507 34.3638 94.9822 35.8287Z"/>
</mask>
<path d="M179.039 144.413C174.842 145.498 170.022 145.159 165.577 143.239C161.131 141.318 157.411 138.135 154.273 135.484C151.125 132.611 147.977 129.737 144.703 126.534C140.962 122.905 137.221 119.276 133.703 115.637C119.418 101.314 105.843 87.8527 88.741 80.3625C88.2848 80.1598 87.8286 79.9571 87.489 79.8608C84.0726 78.452 80.6562 77.0431 78.1774 74.139C72.9968 68.3408 77.5125 61.9894 82.5148 56.5098C87.8365 50.6804 93.447 43.8322 94.972 35.6056C95.1341 34.2574 95.4027 32.7925 95.4583 31.5608C95.6001 29.7665 95.8483 27.8556 96.3196 25.9345C98.7062 16.9983 107.449 10.2309 114.585 4.98938C139.537 -13.9136 164.058 -34.92 187.276 -57.5433C188.021 -58.3594 188.882 -59.0691 189.627 -59.8852C191.447 -61.6441 193.373 -63.5197 195.299 -65.3953C197.225 -67.2708 199.374 -69.1565 201.639 -70.9358C203.692 -72.4819 205.648 -73.6884 207.615 -74.6718C212.643 -77.1356 218.102 -77.4959 221.878 -75.5448C224.848 -74.1156 226.871 -71.4142 228.544 -69.032C233.573 -61.6626 236.528 -53.193 239.241 -45.1594C241.192 -39.1025 243.271 -32.7161 245.127 -26.3196C249.882 -10.2219 253.051 2.9311 255.277 15.0096C257.093 25.4306 258.061 34.4376 258.108 42.8161C258.129 53.0953 256.984 62.3103 254.258 71.1502C253.092 75.0025 251.308 80.0004 247.806 84.0708C243.772 88.7241 238.085 91.4414 232.505 94.042C230.645 94.9089 228.784 95.7758 227.041 96.7491C222.023 99.4359 217.365 102.665 212.854 106.67C208.45 110.558 204.735 114.861 201.709 119.58C200.346 121.542 199.11 123.833 197.969 125.785C196.52 128.309 194.964 130.95 193.068 133.494C189.49 138.351 185.618 141.656 181.452 143.41C181.016 143.653 180.463 143.79 180.134 143.917C179.815 144.266 179.485 144.393 179.039 144.413ZM94.9822 35.8287C93.4571 44.0552 87.8466 50.9034 82.525 56.7328C77.5226 62.2124 73.0069 68.5638 78.1875 74.362C80.5498 77.1597 84.0827 78.675 87.3825 79.9774C87.8387 80.1801 88.2949 80.3828 88.6345 80.4791C105.737 87.9693 119.312 101.431 133.596 115.754C137.221 119.276 140.855 123.022 144.596 126.65C147.754 129.747 151.019 132.727 154.167 135.601C157.314 138.475 161.141 141.541 165.47 143.355C169.916 145.276 174.736 145.615 178.933 144.53C179.262 144.403 179.708 144.383 180.038 144.256C180.474 144.013 180.92 143.993 181.355 143.749C185.522 141.995 189.394 138.69 192.972 133.834C194.761 131.406 196.317 128.765 197.873 126.124C199.12 124.056 200.25 121.882 201.613 119.92C204.755 115.307 208.47 111.004 212.758 107.009C217.163 103.121 221.927 99.7755 226.945 97.0887C228.688 96.1154 230.548 95.2485 232.408 94.3816C237.989 91.781 243.676 89.0637 247.71 84.4104C251.106 80.4566 252.89 75.4587 254.161 71.4898C256.781 62.7665 258.033 53.435 257.905 43.2723C257.859 34.8938 256.89 25.8868 255.075 15.4658C252.955 3.27071 249.669 -9.98869 244.924 -25.8634C242.952 -32.3664 240.99 -38.6463 239.038 -44.7032C236.325 -52.7368 233.253 -61.3128 228.341 -68.5758C226.668 -70.958 224.762 -73.553 221.675 -75.0886C217.793 -76.9231 212.557 -76.573 207.529 -74.1092C205.562 -73.1258 203.606 -71.9193 201.553 -70.3732C199.287 -68.5939 197.139 -66.7082 195.213 -64.8326C193.393 -63.0737 191.467 -61.1981 189.541 -59.3226C188.796 -58.5064 187.934 -57.7967 187.189 -56.9806C163.972 -34.3574 139.451 -13.351 114.499 5.55201C107.48 10.9 98.6201 17.5609 96.2334 26.4972C95.7622 28.4182 95.6204 30.2125 95.3722 32.1234C95.4128 33.0155 95.2507 34.3638 94.9822 35.8287Z" fill="white"/>
<path d="M179.039 144.413L178.994 143.414L178.89 143.419L178.789 143.445L179.039 144.413ZM154.273 135.484L153.599 136.223L153.613 136.236L153.628 136.248L154.273 135.484ZM144.703 126.534L145.402 125.819L145.399 125.816L144.703 126.534ZM133.703 115.637L134.422 114.942L134.416 114.936L134.411 114.931L133.703 115.637ZM88.741 80.3625L88.3349 81.2763L88.3398 81.2785L88.741 80.3625ZM87.489 79.8608L87.1077 80.7853L87.1609 80.8072L87.2162 80.8229L87.489 79.8608ZM78.1774 74.139L78.938 73.4898L78.9306 73.4811L78.9231 73.4727L78.1774 74.139ZM94.972 35.6056L95.9553 35.7879L95.9611 35.7566L95.9649 35.725L94.972 35.6056ZM95.4583 31.5608L94.4614 31.482L94.4601 31.4988L94.4593 31.5157L95.4583 31.5608ZM96.3196 25.9345L95.3534 25.6765L95.3508 25.6864L95.3484 25.6963L96.3196 25.9345ZM114.585 4.98938L115.177 5.79534L115.183 5.79095L115.189 5.78647L114.585 4.98938ZM187.276 -57.5433L187.973 -56.827L187.994 -56.8475L188.014 -56.8691L187.276 -57.5433ZM189.627 -59.8852L188.932 -60.6041L188.91 -60.5824L188.889 -60.5594L189.627 -59.8852ZM201.639 -70.9358L201.038 -71.7346L201.029 -71.7285L201.022 -71.7223L201.639 -70.9358ZM207.615 -74.6718L207.175 -75.5699L207.168 -75.5663L207.615 -74.6718ZM221.878 -75.5448L221.419 -74.6563L221.432 -74.6498L221.444 -74.6436L221.878 -75.5448ZM228.544 -69.032L229.37 -69.5957L229.362 -69.6067L228.544 -69.032ZM239.241 -45.1594L240.192 -45.4662L240.188 -45.4793L239.241 -45.1594ZM245.127 -26.3196L244.166 -26.041L244.168 -26.0363L245.127 -26.3196ZM255.277 15.0096L256.263 14.8379L256.261 14.8283L255.277 15.0096ZM258.108 42.8161L259.108 42.814L259.108 42.8106L258.108 42.8161ZM254.258 71.1502L253.302 70.8555L253.301 70.8607L254.258 71.1502ZM247.806 84.0708L248.562 84.7258L248.564 84.723L247.806 84.0708ZM232.505 94.042L232.082 93.1356L232.505 94.042ZM227.041 96.7491L227.513 97.6307L227.521 97.6265L227.528 97.6223L227.041 96.7491ZM212.854 106.67L213.516 107.419L213.518 107.417L212.854 106.67ZM201.709 119.58L202.531 120.151L202.541 120.136L202.551 120.12L201.709 119.58ZM197.969 125.785L197.106 125.28L197.102 125.287L197.969 125.785ZM193.068 133.494L192.266 132.897L192.263 132.901L193.068 133.494ZM181.452 143.41L181.064 142.488L181.013 142.51L180.964 142.537L181.452 143.41ZM180.134 143.917L179.775 142.983L179.555 143.068L179.395 143.242L180.134 143.917ZM94.9822 35.8287L95.9654 36.0109L95.9658 36.009L94.9822 35.8287ZM78.1875 74.362L78.9516 73.7169L78.9426 73.7061L78.9332 73.6957L78.1875 74.362ZM87.3825 79.9774L87.7886 79.0635L87.7693 79.055L87.7497 79.0472L87.3825 79.9774ZM88.6345 80.4791L89.0357 79.5631L88.9731 79.5356L88.9073 79.517L88.6345 80.4791ZM133.596 115.754L132.888 116.46L132.894 116.465L132.899 116.471L133.596 115.754ZM144.596 126.65L145.296 125.936L145.292 125.933L144.596 126.65ZM165.47 143.355L165.867 142.437L165.857 142.433L165.47 143.355ZM178.933 144.53L179.183 145.498L179.238 145.484L179.292 145.463L178.933 144.53ZM180.038 144.256L180.397 145.19L180.463 145.164L180.525 145.129L180.038 144.256ZM181.355 143.749L180.967 142.828L180.916 142.849L180.868 142.876L181.355 143.749ZM197.873 126.124L197.016 125.608L197.011 125.617L197.873 126.124ZM201.613 119.92L202.434 120.491L202.44 120.483L201.613 119.92ZM212.758 107.009L212.096 106.259L212.086 106.268L212.077 106.277L212.758 107.009ZM226.945 97.0887L227.417 97.9703L227.424 97.9661L227.432 97.9619L226.945 97.0887ZM232.408 94.3816L231.986 93.4752L232.408 94.3816ZM247.71 84.4104L248.466 85.0655L248.469 85.0619L247.71 84.4104ZM254.161 71.4898L255.114 71.795L255.117 71.7863L255.119 71.7775L254.161 71.4898ZM257.905 43.2723L256.905 43.2778L256.905 43.2848L257.905 43.2723ZM255.075 15.4658L254.089 15.637L254.089 15.6374L255.075 15.4658ZM244.924 -25.8634L245.882 -26.1498L245.881 -26.1536L244.924 -25.8634ZM239.038 -44.7032L239.99 -45.01L239.985 -45.0231L239.038 -44.7032ZM228.341 -68.5758L229.169 -69.1361L229.165 -69.1433L229.159 -69.1505L228.341 -68.5758ZM221.675 -75.0886L222.121 -75.9839L222.112 -75.9884L222.103 -75.9927L221.675 -75.0886ZM207.529 -74.1092L207.089 -75.0073L207.081 -75.0036L207.529 -74.1092ZM201.553 -70.3732L200.951 -71.1719L200.943 -71.1659L200.935 -71.1596L201.553 -70.3732ZM195.213 -64.8326L195.908 -64.1137L195.91 -64.1162L195.213 -64.8326ZM189.541 -59.3226L188.843 -60.039L188.822 -60.0185L188.803 -59.9968L189.541 -59.3226ZM187.189 -56.9806L187.887 -56.2644L187.908 -56.2848L187.928 -56.3064L187.189 -56.9806ZM114.499 5.55201L113.895 4.75492L113.893 4.75656L114.499 5.55201ZM96.2334 26.4972L95.2673 26.2391L95.2647 26.249L95.2622 26.2589L96.2334 26.4972ZM95.3722 32.1234L94.3805 31.9946L94.3692 32.0815L94.3732 32.1689L95.3722 32.1234ZM178.789 143.445C174.814 144.473 170.221 144.156 165.973 142.321L165.18 144.157C169.823 146.162 174.87 146.524 179.289 145.382L178.789 143.445ZM165.973 142.321C161.687 140.469 158.077 137.389 154.918 134.72L153.628 136.248C156.744 138.881 160.576 142.167 165.18 144.157L165.973 142.321ZM154.947 134.746C151.798 131.871 148.662 129.008 145.402 125.819L144.003 127.249C147.292 130.466 150.452 133.351 153.599 136.223L154.947 134.746ZM145.399 125.816C141.656 122.185 137.927 118.567 134.422 114.942L132.984 116.332C136.515 119.985 140.268 123.625 144.006 127.252L145.399 125.816ZM134.411 114.931C120.151 100.633 106.447 87.0254 89.1422 79.4465L88.3398 81.2785C105.24 88.68 118.685 101.995 132.995 116.343L134.411 114.931ZM89.147 79.4486C88.7178 79.2579 88.1859 79.0189 87.7617 78.8987L87.2162 80.8229C87.4713 80.8952 87.8517 81.0616 88.3349 81.2763L89.147 79.4486ZM87.8702 78.9363C84.4163 77.512 81.2352 76.1812 78.938 73.4898L77.4168 74.7882C80.0772 77.9051 83.7289 79.3919 87.1077 80.7853L87.8702 78.9363ZM78.9231 73.4727C77.7421 72.1509 77.1494 70.8418 76.9548 69.5589C76.759 68.2682 76.9556 66.9328 77.4656 65.5513C78.4988 62.7527 80.7563 59.9193 83.2534 57.184L81.7763 55.8356C79.271 58.5799 76.7695 61.662 75.5894 64.8586C74.9928 66.4747 74.7192 68.1567 74.9774 69.8589C75.2368 71.5688 76.0224 73.228 77.4317 74.8052L78.9231 73.4727ZM83.2534 57.184C88.5714 51.3586 94.373 44.3234 95.9553 35.7879L93.9888 35.4234C92.521 43.341 87.1016 50.0022 81.7763 55.8356L83.2534 57.184ZM95.9649 35.725C96.1152 34.4746 96.3996 32.8824 96.4573 31.606L94.4593 31.5157C94.4057 32.7026 94.153 34.0402 93.9792 35.4863L95.9649 35.725ZM96.4552 31.6396C96.5943 29.8794 96.8363 28.0253 97.2908 26.1728L95.3484 25.6963C94.8603 27.6859 94.6059 29.6535 94.4614 31.482L96.4552 31.6396ZM97.2857 26.1926C98.4176 21.9545 101.074 18.1745 104.388 14.7744C107.7 11.3754 111.61 8.41574 115.177 5.79534L113.993 4.18342C110.425 6.80457 106.395 9.84937 102.955 13.3785C99.5168 16.9065 96.6082 20.9783 95.3534 25.6765L97.2857 26.1926ZM115.189 5.78647C140.173 -13.1411 164.725 -34.1745 187.973 -56.827L186.578 -58.2595C163.39 -35.6656 138.901 -14.6861 113.982 4.19229L115.189 5.78647ZM188.014 -56.8691C188.359 -57.2464 188.734 -57.6035 189.14 -57.9891C189.537 -58.3664 189.965 -58.7722 190.366 -59.211L188.889 -60.5594C188.544 -60.1821 188.169 -59.825 187.763 -59.4393C187.366 -59.0621 186.938 -58.6563 186.537 -58.2175L188.014 -56.8691ZM190.322 -59.1662C192.143 -60.9267 194.071 -62.8036 195.996 -64.6788L194.601 -66.1117C192.675 -64.2359 190.75 -62.3616 188.932 -60.6041L190.322 -59.1662ZM195.996 -64.6788C197.897 -66.5294 200.019 -68.3918 202.257 -70.1494L201.022 -71.7223C198.728 -69.9213 196.553 -68.0122 194.601 -66.1117L195.996 -64.6788ZM202.241 -70.137C204.248 -71.6488 206.153 -72.8226 208.062 -73.7775L207.168 -75.5663C205.144 -74.5541 203.136 -73.315 201.038 -71.7346L202.241 -70.137ZM208.055 -73.7739C212.903 -76.1498 218.014 -76.4158 221.419 -74.6563L222.337 -76.4332C218.19 -78.5761 212.382 -78.1215 207.175 -75.5698L208.055 -73.7739ZM221.444 -74.6436C224.152 -73.3408 226.044 -70.8515 227.725 -68.4573L229.362 -69.6067C227.698 -71.9769 225.544 -74.8905 222.312 -76.4459L221.444 -74.6436ZM227.718 -68.4684C232.658 -61.2281 235.577 -52.885 238.293 -44.8395L240.188 -45.4793C237.48 -53.5011 234.487 -62.0971 229.37 -69.5957L227.718 -68.4684ZM238.289 -44.8527C240.242 -38.7906 242.316 -32.4202 244.166 -26.041L246.087 -26.5982C244.226 -33.012 242.143 -39.4144 240.192 -45.4661L238.289 -44.8527ZM244.168 -26.0363C248.915 -9.96539 252.075 3.15304 254.294 15.1908L256.261 14.8283C254.027 2.70914 250.849 -10.4784 246.086 -26.6029L244.168 -26.0363ZM254.292 15.1812C256.101 25.5671 257.062 34.5158 257.108 42.8216L259.108 42.8106C259.061 34.3594 258.084 25.2941 256.262 14.838L254.292 15.1812ZM257.108 42.8181C257.129 53.02 255.993 62.1316 253.302 70.8555L255.213 71.445C257.975 62.489 259.129 53.1707 259.108 42.814L257.108 42.8181ZM253.301 70.8607C252.143 74.6882 250.407 79.515 247.048 83.4186L248.564 84.723C252.21 80.4857 254.042 75.3169 255.215 71.4398L253.301 70.8607ZM247.051 83.4157C243.178 87.8827 237.692 90.5212 232.082 93.1356L232.927 94.9484C238.478 92.3615 244.366 89.5656 248.562 84.7258L247.051 83.4157ZM232.082 93.1356C230.228 93.9996 228.334 94.8817 226.553 95.8759L227.528 97.6223C229.234 96.6698 231.061 95.8182 232.927 94.9484L232.082 93.1356ZM226.569 95.8675C221.482 98.5915 216.759 101.866 212.191 105.922L213.518 107.417C217.971 103.464 222.565 100.28 227.513 97.6307L226.569 95.8675ZM212.193 105.92C207.722 109.866 203.946 114.24 200.868 119.041L202.551 120.12C205.525 115.483 209.178 111.249 213.516 107.419L212.193 105.92ZM200.888 119.01C199.495 121.014 198.221 123.371 197.106 125.28L198.833 126.289C199.998 124.295 201.197 122.07 202.531 120.151L200.888 119.01ZM197.102 125.287C195.654 127.808 194.123 130.404 192.266 132.897L193.87 134.092C195.804 131.496 197.385 128.81 198.836 126.283L197.102 125.287ZM192.263 132.901C188.757 137.659 185.017 140.823 181.064 142.488L181.84 144.331C186.219 142.488 190.223 139.042 193.873 134.088L192.263 132.901ZM180.964 142.537C180.825 142.614 180.645 142.686 180.427 142.761C180.259 142.819 179.955 142.914 179.775 142.983L180.493 144.85C180.643 144.792 180.779 144.756 181.078 144.652C181.328 144.566 181.643 144.448 181.939 144.283L180.964 142.537ZM179.395 143.242C179.314 143.331 179.263 143.359 179.233 143.373C179.198 143.388 179.133 143.408 178.994 143.414L179.085 145.412C179.391 145.398 179.714 145.345 180.035 145.205C180.361 145.062 180.634 144.852 180.872 144.591L179.395 143.242ZM93.9989 35.6464C92.5312 43.564 87.1118 50.2252 81.7865 56.0586L83.2635 57.407C88.5815 51.5816 94.3831 44.5465 95.9654 36.0109L93.9989 35.6464ZM81.7865 56.0586C79.2812 58.8029 76.7797 61.885 75.5995 65.0816C75.0029 66.6977 74.7293 68.3798 74.9876 70.0819C75.247 71.7919 76.0326 73.451 77.4418 75.0283L78.9332 73.6957C77.7522 72.3739 77.1595 71.0648 76.9649 69.7819C76.7691 68.4912 76.9657 67.1558 77.4758 65.7743C78.5089 62.9758 80.7664 60.1424 83.2635 57.407L81.7865 56.0586ZM77.4235 75.0071C79.9695 78.0226 83.7367 79.6135 87.0154 80.9075L87.7497 79.0472C84.4288 77.7365 81.13 76.2968 78.9516 73.7169L77.4235 75.0071ZM86.9765 80.8912C87.4057 81.0819 87.9376 81.3209 88.3618 81.4412L88.9073 79.517C88.6522 79.4447 88.2718 79.2782 87.7886 79.0635L86.9765 80.8912ZM88.2334 81.3951C105.133 88.7966 118.579 102.112 132.888 116.46L134.304 115.047C120.045 100.749 106.34 87.1419 89.0357 79.5631L88.2334 81.3951ZM132.899 116.471C134.705 118.226 136.515 120.038 138.345 121.869C140.174 123.699 142.023 125.548 143.9 127.368L145.292 125.933C143.428 124.124 141.59 122.286 139.76 120.455C137.932 118.626 136.112 116.804 134.293 115.036L132.899 116.471ZM143.896 127.364C147.069 130.476 150.347 133.468 153.492 136.339L154.841 134.862C151.691 131.987 148.44 129.019 145.296 125.936L143.896 127.364ZM153.492 136.339C156.665 139.235 160.594 142.396 165.084 144.277L165.857 142.433C161.689 140.686 157.964 137.714 154.841 134.862L153.492 136.339ZM165.074 144.273C169.716 146.279 174.764 146.641 179.183 145.498L178.682 143.562C174.708 144.589 170.115 144.273 165.867 142.437L165.074 144.273ZM179.292 145.463C179.356 145.439 179.455 145.417 179.671 145.376C179.843 145.343 180.132 145.292 180.397 145.19L179.679 143.323C179.614 143.348 179.515 143.37 179.299 143.411C179.127 143.443 178.839 143.495 178.574 143.597L179.292 145.463ZM180.525 145.129C180.633 145.069 180.751 145.03 180.983 144.961C181.192 144.898 181.515 144.805 181.843 144.622L180.868 142.876C180.76 142.936 180.642 142.975 180.41 143.045C180.201 143.107 179.878 143.2 179.55 143.383L180.525 145.129ZM181.744 144.671C186.123 142.827 190.127 139.381 193.777 134.427L192.167 133.241C188.661 137.999 184.921 141.163 180.967 142.828L181.744 144.671ZM193.777 134.427C195.602 131.951 197.183 129.265 198.735 126.632L197.011 125.617C195.451 128.266 193.92 130.861 192.167 133.241L193.777 134.427ZM198.729 126.641C200.023 124.494 201.093 122.421 202.434 120.491L200.792 119.349C199.407 121.342 198.216 123.618 197.017 125.608L198.729 126.641ZM202.44 120.483C205.538 115.935 209.204 111.687 213.44 107.741L212.077 106.277C207.737 110.32 203.973 114.68 200.787 119.357L202.44 120.483ZM213.42 107.759C217.77 103.919 222.471 100.618 227.417 97.9703L226.473 96.2071C221.383 98.9325 216.555 102.323 212.096 106.259L213.42 107.759ZM227.432 97.9619C229.138 97.0094 230.965 96.1578 232.831 95.288L231.986 93.4752C230.132 94.3392 228.238 95.2213 226.457 96.2155L227.432 97.9619ZM232.831 95.288C238.382 92.7011 244.27 89.9052 248.466 85.0654L246.954 83.7553C243.082 88.2223 237.596 90.8608 231.986 93.4752L232.831 95.288ZM248.469 85.0619C252.008 80.9412 253.84 75.7688 255.114 71.795L253.209 71.1847C251.939 75.1486 250.204 79.972 246.951 83.7589L248.469 85.0619ZM255.119 71.7775C257.771 62.9475 259.034 53.5139 258.905 43.2597L256.905 43.2848C257.031 53.356 255.792 62.5854 253.204 71.2022L255.119 71.7775ZM258.905 43.2668C258.858 34.8156 257.881 25.7503 256.06 15.2941L254.089 15.6374C255.899 26.0233 256.859 34.972 256.905 43.2778L258.905 43.2668ZM256.06 15.2945C253.931 3.04846 250.635 -10.2512 245.882 -26.1498L243.966 -25.577C248.704 -9.72614 251.979 3.49295 254.089 15.637L256.06 15.2945ZM245.881 -26.1536C243.907 -32.6617 241.943 -38.9472 239.99 -45.0099L238.086 -44.3965C240.036 -38.3454 241.996 -32.071 243.967 -25.5732L245.881 -26.1536ZM239.985 -45.0231C237.275 -53.0506 234.167 -61.7473 229.169 -69.1361L227.513 -68.0156C232.34 -60.8783 235.376 -52.4231 238.09 -44.3833L239.985 -45.0231ZM229.159 -69.1505C227.492 -71.5255 225.46 -74.3231 222.121 -75.9839L221.23 -74.1932C224.065 -72.783 225.845 -70.3904 227.523 -68.0011L229.159 -69.1505ZM222.103 -75.9927C217.868 -77.9935 212.303 -77.5623 207.089 -75.0072L207.969 -73.2112C212.81 -75.5837 217.717 -75.8528 221.248 -74.1844L222.103 -75.9927ZM207.081 -75.0036C205.058 -73.9915 203.05 -72.7524 200.951 -71.1719L202.155 -69.5744C204.162 -71.0861 206.067 -72.26 207.976 -73.2148L207.081 -75.0036ZM200.935 -71.1596C198.642 -69.3586 196.466 -67.4496 194.515 -65.549L195.91 -64.1162C197.811 -65.9668 199.933 -67.8291 202.171 -69.5867L200.935 -71.1596ZM194.518 -65.5516C192.696 -63.7911 190.769 -61.9143 188.843 -60.039L190.239 -58.6061C192.165 -60.482 194.09 -62.3562 195.908 -64.1137L194.518 -65.5516ZM188.803 -59.9968C188.458 -59.6195 188.083 -59.2623 187.677 -58.8767C187.279 -58.4994 186.851 -58.0937 186.451 -57.6548L187.928 -56.3064C188.272 -56.6837 188.648 -57.0409 189.054 -57.4265C189.451 -57.8038 189.879 -58.2095 190.28 -58.6483L188.803 -59.9968ZM186.492 -57.6969C163.304 -35.1029 138.815 -14.1235 113.895 4.75493L115.103 6.3491C140.087 -12.5785 164.639 -33.6119 187.887 -56.2644L186.492 -57.6969ZM113.893 4.75656C110.396 7.42129 106.366 10.467 102.916 13.9781C99.4651 17.4899 96.5234 21.5362 95.2673 26.2391L97.1996 26.7552C98.3302 22.5219 101.012 18.7696 104.342 15.3799C107.674 11.9895 111.583 9.03072 115.105 6.34746L113.893 4.75656ZM95.2622 26.2589C94.7734 28.2519 94.6209 30.144 94.3805 31.9946L96.3639 32.2523C96.6199 30.281 96.751 28.5846 97.2046 26.7354L95.2622 26.2589ZM94.3732 32.1689C94.4084 32.9404 94.2651 34.1942 93.9986 35.6484L95.9658 36.009C96.2363 34.5334 96.4173 33.0906 96.3712 32.078L94.3732 32.1689Z" fill="white" mask="url(#path-6-inside-1_270_536)"/>
<path d="M249.566 -36.8019L249.826 -36.8803C249.81 -36.9319 249.795 -36.9835 249.779 -37.0351C247.685 -44.0407 245.476 -51.1513 243.057 -58.0343L242.793 -57.9479M249.566 -36.8019C249.551 -36.8535 249.535 -36.9052 249.52 -36.9568C249.52 -36.957 249.52 -36.9573 249.52 -36.9575C247.424 -43.9626 245.213 -51.0701 242.793 -57.9479M249.566 -36.8019C255.067 -18.5872 258.62 -4.27009 261.148 9.52441C261.148 9.52496 261.148 9.52552 261.148 9.52607C261.159 9.5882 261.171 9.65031 261.182 9.71242L249.826 -36.8796L249.566 -36.8019ZM242.793 -57.9479L243.055 -58.0402C243.039 -58.0872 243.022 -58.1341 243.006 -58.1811C240.027 -67.2958 236.469 -76.9398 231.094 -85.0614C231.08 -85.0827 231.066 -85.1039 231.052 -85.1252C229.252 -87.8368 226.996 -90.7511 223.57 -92.383M242.793 -57.9479C242.777 -57.9952 242.762 -58.0425 242.746 -58.0898C242.746 -58.0918 242.745 -58.0937 242.745 -58.0957C239.768 -67.1907 236.209 -76.8011 230.839 -84.892C230.825 -84.9133 230.811 -84.9345 230.797 -84.9558C229.019 -87.6269 226.794 -90.4829 223.441 -92.1092L223.57 -92.383M223.57 -92.383C223.542 -92.396 223.514 -92.4089 223.486 -92.4217C223.486 -92.4219 223.485 -92.4221 223.485 -92.4224C219.153 -94.4137 213.182 -93.9046 207.426 -91.0892L223.44 -92.11L223.57 -92.383ZM184.619 -71.7251C185.262 -72.3132 185.877 -72.9278 186.491 -73.5424C187.032 -74.0829 187.572 -74.6235 188.133 -75.1459L64.653 56.8762C65.3094 56.1961 65.9355 55.5298 66.5334 54.8761C69.4527 51.6724 71.6488 48.8132 73.5426 45.9677M184.619 -71.7251C184.543 -71.6521 184.468 -71.5791 184.393 -71.5061C184.393 -71.5059 184.393 -71.5058 184.393 -71.5057C183.151 -70.3017 181.907 -69.1023 180.659 -67.9075M184.619 -71.7251L184.637 -71.7052L188.151 -75.1265C187.508 -74.5385 186.893 -73.9238 186.279 -73.3092C185.738 -72.7687 185.198 -72.2282 184.637 -71.7058L184.619 -71.7251ZM180.659 -67.9075C159.788 -48.0617 137.995 -29.3643 115.697 -12.1587M180.659 -67.9075C159.855 -47.988 138.113 -29.3469 115.697 -12.1587M180.659 -67.9075C181.911 -69.0982 183.16 -70.2931 184.406 -71.492L101.585 -1.51869L101.549 -1.56842M115.697 -12.1587C111.009 -8.56454 106.293 -5.03392 101.549 -1.56842M115.697 -12.1587C111.014 -8.54532 106.309 -4.99775 101.585 -1.51916L101.549 -1.56842M101.549 -1.56842C101.466 -1.50634 101.383 -1.4444 101.301 -1.3826C101.301 -1.38249 101.3 -1.38238 101.3 -1.38226C100.846 -1.0419 100.396 -0.705636 99.9504 -0.372509C95.8231 2.71103 92.0551 5.52623 88.8371 8.8436C88.762 8.91781 88.6874 8.99202 88.6134 9.06625C88.6133 9.06627 88.6133 9.06628 88.6133 9.0663C86.5058 11.1781 84.7963 13.2982 83.4849 15.4268M83.4849 15.4268C82.1116 17.5572 81.1094 19.6954 80.5064 21.8918L80.7181 21.9518M83.4849 15.4268C82.1503 17.5931 81.228 19.7681 80.7181 21.9518M83.4849 15.4268C84.8438 13.3188 86.566 11.2184 88.6242 9.07677L78.9956 33.2044M80.7181 21.9518L80.5037 21.9017C80.4673 22.0348 80.4323 22.1681 80.3988 22.3016C79.8821 24.3598 79.6384 26.313 79.4996 28.1688L79.8873 28.2472M80.7181 21.9518C80.6802 22.0853 80.6443 22.2196 80.6103 22.3547C80.1503 24.1794 80.0235 26.1409 79.9069 27.9445C79.9003 28.0459 79.8938 28.1468 79.8873 28.2472M79.8873 28.2472L79.4957 28.2216C79.4835 28.3863 79.4722 28.5503 79.4615 28.7135C79.3143 30.2363 79.167 31.7591 78.9137 33.185C78.9135 33.1861 78.9133 33.1872 78.9131 33.1883C78.9052 33.2326 78.8972 33.2768 78.8891 33.321M79.8873 28.2472C79.854 28.4117 79.8225 28.5743 79.7925 28.7351C79.7918 28.7385 79.7912 28.7419 79.7906 28.7453C79.6756 29.3615 79.5817 29.9519 79.4902 30.527C79.3443 31.4444 79.2046 32.3228 78.9956 33.2044M78.8891 33.321C78.1868 37.3359 76.5057 41.5049 73.6292 45.8378C73.6292 45.8379 73.6291 45.8379 73.6291 45.838C73.6004 45.8812 73.5716 45.9245 73.5426 45.9677M78.8891 33.321L78.9696 33.3357L78.9956 33.2044M78.8891 33.321L78.9697 33.3351C78.9784 33.2915 78.987 33.248 78.9956 33.2044M73.5426 45.9677L73.5632 45.9815L73.6491 45.8511C73.6206 45.8945 73.592 45.9379 73.5632 45.9814L73.5426 45.9677ZM190.987 -77.8815C190.104 -77.0312 189.221 -76.1809 188.364 -75.3597L193.397 -80.1702L193.382 -80.1851C192.597 -79.432 191.792 -78.6567 190.987 -77.8815ZM200.453 -86.5628C198.057 -84.6022 195.679 -82.4435 193.61 -80.4034L207.162 -90.9602C204.971 -89.8764 202.976 -88.583 200.695 -86.7601C200.615 -86.6947 200.534 -86.6291 200.454 -86.5633C200.454 -86.5631 200.454 -86.5629 200.453 -86.5628Z" fill="white" stroke="white"/>
<path d="M271.328 38.7541C271.328 38.7543 271.328 38.7546 271.328 38.7549L271.22 38.7552L271.328 38.7541ZM254.302 -47.7085L254.431 -47.7505L254.301 -47.7111C254.301 -47.7102 254.302 -47.7094 254.302 -47.7085ZM266.529 74.19L266.463 74.1704L266.529 74.19ZM246.664 -71.0861L246.795 -71.1309C246.795 -71.1311 246.795 -71.1313 246.795 -71.1314L246.664 -71.0861Z" fill="white" stroke="white"/>
<path d="M167.115 179.485C161.155 181.097 154.53 180.393 148.376 177.768C142.106 175.036 137.103 170.683 132.439 166.425C127.776 162.168 123.209 157.571 119.235 153.729C115.494 150.1 111.976 146.461 108.458 142.822C86.7875 120.902 66.4099 100.375 38.8001 90.3467C38.0043 90.0477 37.3251 89.8551 36.5293 89.5561C31.4149 87.6659 26.194 85.8923 22.4429 82.0404C14.231 73.4749 21.3974 63.9858 28.6653 56.7269C35.923 49.245 44.5238 39.3554 46.5758 27.9761C46.824 26.0652 47.0722 24.1543 47.2038 22.1369C47.4216 19.557 47.5228 16.8706 48.293 14.1537C51.6221 1.37531 64.5111 -7.59215 74.9013 -14.9932C111.176 -40.4458 145.96 -69.1827 178.615 -100.504C181.403 -103.09 183.967 -105.665 186.638 -108.356L189.851 -111.408C192.31 -113.867 195.416 -116.802 198.65 -119.407C201.564 -121.663 204.276 -123.462 206.998 -125.039C214.311 -128.836 221.99 -129.521 227.358 -126.972C231.581 -125.041 234.44 -121.148 236.599 -117.894C242.971 -108.016 247.174 -96.6981 251.174 -84.9239C254.15 -76.0083 257.116 -67.3158 259.615 -59.0489C266.556 -36.6814 271.15 -19.2354 274.375 -2.39754C278.168 17.0963 282.068 46.3067 273.438 75.1937C271.791 80.7441 269.313 87.6731 264.311 93.1527C258.467 99.7881 250.241 103.18 242.354 106.667C239.612 107.798 236.764 109.045 234.138 110.282C219.82 117.303 207.052 128.947 198.827 142.172C196.845 145.279 195.203 148.483 193.561 151.686C191.717 155.346 189.649 159.016 187.465 162.579C182.873 169.716 177.298 174.887 171.271 177.508C170.612 177.761 169.954 178.015 169.295 178.268C168.55 179.084 167.891 179.338 167.115 179.485ZM47.8075 28.0317C45.6592 39.7507 36.9622 49.9799 29.4814 57.472C22.2236 64.9539 15.7921 73.4038 23.1879 81.2242C26.7058 84.8633 31.7037 86.6471 36.5849 88.3244C37.3808 88.6234 38.1766 88.9224 38.8558 89.115C66.6886 99.1336 87.193 119.99 108.863 141.91C112.381 145.549 116.122 149.178 119.64 152.817C123.614 156.659 128.181 161.256 132.845 165.513C137.392 169.664 142.395 174.017 148.548 176.643C155.158 179.47 162.548 179.804 168.712 177.736C169.371 177.482 170.03 177.229 170.688 176.975C176.492 174.365 181.854 169.427 186.339 162.407C188.64 158.95 190.591 155.174 192.436 151.514C194.078 148.31 195.72 145.107 197.702 142C205.917 128.552 219.014 116.781 233.439 109.643C236.17 108.29 238.913 107.159 241.761 105.912C249.541 102.541 257.651 99.043 263.398 92.7473C268.177 87.2779 270.666 80.5718 272.323 75.2445C280.963 46.5805 277.073 17.5931 273.28 -1.90071C270.055 -18.7386 265.578 -36.0782 258.521 -58.5521C255.915 -66.7024 253.172 -75.4051 250.079 -84.427C246.196 -96.0948 241.993 -107.413 235.621 -117.291C233.462 -120.545 230.729 -124.108 226.847 -125.943C221.595 -128.385 214.479 -127.614 207.378 -124.051C204.646 -122.697 201.934 -120.898 199.243 -118.652C196.116 -116.163 192.903 -113.111 190.551 -110.769L187.338 -107.718C184.667 -105.026 181.985 -102.558 179.315 -99.8659C146.659 -68.5441 111.769 -39.6906 75.4944 -14.238C65.4438 -6.74068 52.6613 2.11019 49.4284 14.549C48.7646 17.1492 48.5469 19.7292 48.3291 22.3092C48.3039 24.2099 48.0557 26.1208 47.8075 28.0317Z" fill="white"/>
</g>
<defs>
<clipPath id="clip0_270_536">
<rect width="292.993" height="216.43" fill="white" transform="translate(0.29126 61.818) rotate(-47.6069)"/>
</clipPath>
</defs>
</svg>
