<svg width="229" height="166" viewBox="0 0 229 166" fill="none" xmlns="http://www.w3.org/2000/svg">
<g opacity="0.5" clip-path="url(#clip0_270_525)">
<path d="M-5.95523 200.418C-6.01794 200.203 -6.21915 199.913 -6.28186 199.699C-6.34458 199.485 -6.48307 199.409 -6.40729 199.271C-7.06057 197.833 -7.20954 196.132 -6.93 194.306C-6.72623 192.618 -6.24548 191.082 -5.77778 189.898C-5.23431 188.576 -4.69085 187.254 -4.22316 186.07C-0.52078 177.659 4.56392 171.983 8.61392 167.541L8.76546 167.264C9.57285 166.446 10.3802 165.628 11.5404 164.823C13.4948 163.554 15.951 163.998 18.1172 164.643C20.4976 165.226 23.155 165.96 25.7001 165.913C26.0528 165.926 26.6198 165.876 26.9726 165.889C27.6781 165.915 28.2451 165.866 28.9506 165.892C32.1253 166.009 34.9082 167.172 38.0307 168.701C47.6883 173.085 57.2571 177.96 66.4601 183.176C67.568 183.782 68.6759 184.388 69.708 185.133C70.6017 185.802 71.3569 186.395 71.8978 187.051C72.4387 187.706 72.9795 188.362 73.2304 189.219C73.9464 190.871 74.1581 192.786 73.8158 194.398C73.5624 195.519 72.9562 196.627 71.9973 197.722C70.2179 199.987 67.6703 202.013 64.1272 204.213C62.2485 205.344 60.017 206.463 57.3571 207.706C52.0371 210.194 47.083 212.342 42.3562 214.075C36.7723 216.058 29.3359 218.467 21.9281 218.193C19.6731 218.039 17.9852 217.835 16.5872 217.43C14.2826 216.709 12.2183 215.22 10.5068 213.743L9.89009 213.226C7.34763 211.295 4.25121 209.061 0.94054 206.89L0.663556 206.738C-0.784048 205.766 -2.09316 204.87 -3.3265 203.835C-4.4083 202.524 -5.2889 201.502 -5.95523 200.418ZM25.6609 166.971C22.9774 166.942 20.2442 166.347 17.7253 165.688C15.6976 165.119 13.5942 164.688 11.9297 165.756C10.8454 166.423 10.038 167.241 9.44486 167.996L9.29331 168.273C5.09177 172.992 0.234389 178.252 -3.39222 186.524C-3.85991 187.708 -4.40338 189.03 -4.94685 190.353C-5.41454 191.536 -5.81951 192.934 -5.94751 194.484C-6.07551 196.033 -5.85077 197.596 -5.47447 198.881C-5.41176 199.096 -5.41176 199.095 -5.34904 199.31C-4.75848 200.533 -3.95366 201.693 -2.6576 202.942C-1.42426 203.976 -0.253636 204.797 1.19397 205.769L1.47095 205.92C4.78163 208.092 7.87804 210.326 10.4205 212.257L11.0372 212.774C12.963 214.188 14.7503 215.525 16.8406 216.309C18.2386 216.714 19.8508 217.056 21.9673 217.135C29.3751 217.409 36.5972 215.062 41.9668 213.142C46.6936 211.409 51.572 209.4 56.8919 206.912C59.5519 205.668 61.5691 204.613 63.5863 203.557C67.0536 201.495 69.5255 199.609 71.0906 197.406C71.8353 196.374 72.3657 195.404 72.6818 194.498C73.0868 193.1 72.862 191.537 72.2088 190.1C71.8821 189.381 71.4797 188.801 71.0773 188.221C70.5364 187.565 69.9197 187.048 69.1646 186.455C68.1324 185.71 67.0245 185.104 66.0551 184.574C56.9279 179.22 47.3591 174.344 37.7015 169.96C34.6417 168.646 31.8589 167.483 28.8984 167.303C28.1929 167.277 27.6258 167.326 26.9203 167.3C26.5807 166.934 26.1521 167.06 25.6609 166.971Z" fill="white"/>
<path d="M-17.6197 198.714C-17.7582 198.638 -17.8209 198.424 -17.7451 198.286C-18.6623 196.344 -18.9995 194 -18.7696 191.607C-18.477 189.428 -17.7689 187.476 -16.9223 185.6C-16.1516 183.862 -15.3808 182.124 -14.3957 180.324C-11.3387 174.079 -7.81655 168.628 -4.67326 163.87C-2.1231 159.867 0.351287 156.002 2.32138 152.402C3.07911 151.017 3.77412 149.418 5.16158 148.197C7.4322 146.021 10.7193 146.919 13.8549 148.095C17.2675 149.422 20.8943 150.687 24.7118 150.616C25.2788 150.567 25.9843 150.593 26.5514 150.543C27.4711 150.507 28.2524 150.394 29.3106 150.433C33.7579 150.527 37.8995 153.153 41.4245 155.262L44.6724 157.219C56.0782 163.999 67.8994 171.007 79.7206 178.015C81.3824 178.924 82.6916 179.82 84.1392 180.792C85.4483 181.688 86.4804 182.433 87.1598 183.165C87.9777 183.972 88.5813 184.842 89.1849 185.712C89.2476 185.927 89.3861 186.002 89.4488 186.217C90.5045 188.234 90.9174 190.439 90.4236 192.328C90.0056 194.079 88.8951 195.451 88.1504 196.483C85.1221 200.045 81.0616 202.861 77.8843 204.722C75.4255 206.256 72.614 207.777 69.1597 209.486C61.8853 213.243 55.7083 215.982 49.6829 218.443C42.3719 221.281 32.7797 224.67 22.4115 224.216C20.4335 224.213 17.9015 223.908 15.3956 222.896C12.6128 221.734 10.3604 219.602 8.17067 217.684C7.69249 217.242 7.07582 216.725 6.59764 216.283C2.91067 212.826 -1.70912 209.759 -6.14076 207.334C-6.83321 206.955 -7.38717 206.652 -8.07961 206.273C-9.60299 205.44 -11.0636 204.821 -12.5112 203.849C-14.6513 202.498 -16.2871 200.883 -17.28 199.08C-17.4812 198.79 -17.6197 198.714 -17.6197 198.714ZM24.4349 150.465C20.7558 150.611 16.9905 149.271 13.5779 147.944C10.5808 146.844 7.43219 146.021 5.02309 148.122C3.77412 149.418 3.01639 150.802 2.25867 152.187C0.351288 156.002 -2.04733 159.728 -4.81175 163.794C-7.95504 168.553 -11.4772 174.003 -14.5342 180.248C-15.3808 182.124 -16.3658 183.925 -17.0608 185.524C-17.9074 187.4 -18.6155 189.352 -18.9081 191.531C-19.2764 193.849 -18.8008 196.269 -17.8836 198.21C-17.8209 198.424 -17.7582 198.638 -17.6197 198.714C-16.6267 200.517 -14.991 202.132 -12.8509 203.483C-11.4033 204.455 -9.94267 205.074 -8.4193 205.908C-7.72685 206.286 -7.1729 206.589 -6.48045 206.968C-1.97304 209.255 2.57098 212.461 6.25795 215.917C6.73613 216.359 7.3528 216.876 7.83099 217.318C10.0834 219.45 12.1973 221.506 15.056 222.531C17.4233 223.466 20.0311 223.633 22.0718 223.85C32.3016 224.229 41.9564 221.054 49.1289 218.14C55.1543 215.679 61.3313 212.94 68.6057 209.182C72.06 207.473 74.8716 205.953 77.3303 204.419C80.5834 202.42 84.7066 199.817 87.5965 196.18C88.4796 195.224 89.4516 193.776 89.8697 192.025C90.4392 189.998 89.8878 187.716 88.5552 185.548C87.9516 184.678 87.3479 183.807 86.5301 183C85.7122 182.193 84.8186 181.524 83.5094 180.628C82.0618 179.656 80.7527 178.759 79.0908 177.85C67.2696 170.842 55.4484 163.835 44.0427 157.054L40.7947 155.097C37.4083 153.065 33.1909 150.577 28.8194 150.345C27.8996 150.381 26.9799 150.418 26.0601 150.454C25.7074 150.441 25.1404 150.491 24.4349 150.465Z" fill="white"/>
<path d="M29.2497 134.182C34.7728 134.404 39.9041 137.851 44.1876 140.728C44.2162 140.748 44.2448 140.767 44.2733 140.786L29.2497 134.182ZM29.2497 134.182L29.2286 133.941L29.2497 134.182Z" fill="white" stroke="white"/>
<path d="M-1.02245 222.611C-0.941729 222.695 -0.861303 222.779 -0.781164 222.863L-1.02245 222.611ZM-1.02245 222.611L-0.982374 222.573L-1.02433 222.609" fill="white" stroke="white"/>
<path d="M70.5684 232.735C70.5681 232.735 70.5678 232.735 70.5676 232.735L70.4029 232.365M70.5684 232.735L70.4031 232.365M70.5684 232.735C70.6466 232.7 70.7248 232.665 70.8031 232.631L70.8428 232.72M70.5684 232.735L141.354 184.227M70.4029 232.365C70.403 232.365 70.403 232.365 70.4031 232.365M70.4029 232.365L70.3646 232.278M70.4029 232.365C67.4405 233.635 64.5876 234.787 61.835 235.823C58.6545 237.041 55.5843 238.092 52.61 238.981C50.9491 239.488 49.3266 239.946 47.7399 240.357C47.6256 240.386 47.5114 240.415 47.3974 240.443L47.3864 240.4L70.3646 232.278M70.4031 232.365L70.3646 232.278M70.4031 232.365C70.4827 232.33 70.5625 232.296 70.6423 232.262C80.5652 227.854 91.1517 222.562 103.696 215.318C103.696 215.317 103.696 215.317 103.696 215.317C103.752 215.285 103.807 215.253 103.863 215.221C109.075 212.2 114.075 209.242 118.656 206.407C118.656 206.407 118.656 206.407 118.656 206.407C118.705 206.377 118.755 206.346 118.804 206.316C124.801 202.584 131.478 198.204 136.801 192.387C136.803 192.384 136.806 192.382 136.808 192.379L136.699 192.275M70.3646 232.278L103.635 215.212C108.905 212.158 113.961 209.166 118.589 206.299C124.591 202.565 131.4 198.013 136.699 192.275M136.699 192.275L136.809 192.377C138.355 190.533 140.05 188.356 140.691 185.624C140.712 185.516 140.731 185.407 140.748 185.297L140.702 185.288M136.699 192.275C138.39 190.501 140.169 188.235 140.702 185.288M140.702 185.288L140.748 185.296C140.804 184.939 140.839 184.571 140.854 184.196C140.822 184.567 140.771 184.932 140.702 185.288ZM141.354 184.227C141.32 184.619 141.267 185.004 141.193 185.381C141.173 185.494 141.151 185.606 141.127 185.717L141.18 185.729M141.354 184.227C141.332 184.742 141.275 185.244 141.18 185.729M141.18 185.729L141.126 185.719C140.497 188.643 138.71 190.888 137.066 192.615L137.177 192.716M141.18 185.729C140.509 188.601 138.729 190.866 137.177 192.716M137.177 192.716L137.061 192.619C131.758 198.361 124.969 202.914 119 206.632L119.067 206.741M137.177 192.716C131.802 198.593 125.069 203.007 119.067 206.741M119.067 206.741L119 206.632C118.951 206.663 118.902 206.693 118.853 206.724L118.852 206.724C114.268 209.564 109.265 212.526 104.052 215.548L104.113 215.654M119.067 206.741C114.44 209.607 109.384 212.599 104.113 215.654M104.113 215.654L104.052 215.548C103.997 215.581 103.941 215.613 103.886 215.645L103.885 215.645C91.3364 222.9 80.7364 228.209 70.8042 232.63L70.8428 232.72M104.113 215.654C91.4798 222.957 80.8268 228.285 70.8428 232.72" fill="white" stroke="white"/>
<mask id="path-6-inside-1_270_525" fill="white">
<path d="M-66.0431 193.813C-68.0918 189.993 -68.9045 185.23 -68.092 180.456C-67.2795 175.682 -65.069 171.313 -63.2374 167.637C-61.1915 163.897 -59.1456 160.158 -56.8097 156.218C-54.1708 151.723 -51.5318 147.229 -48.8301 142.949C-38.3002 125.677 -28.4392 109.299 -25.2153 90.9086C-25.1264 90.4173 -25.0376 89.9261 -25.0245 89.5733C-24.4655 85.9204 -23.9064 82.2675 -21.6724 79.171C-17.267 72.764 -10.0265 75.6459 -3.51748 79.2072C3.40696 82.9959 11.3897 86.8237 19.7433 86.3558C21.0916 86.1937 22.5784 86.1075 23.7882 85.8697C25.565 85.5822 27.4803 85.3705 29.4583 85.3731C38.7056 85.5741 47.352 92.4642 54.1354 98.1551C78.4129 117.916 104.632 136.761 132.113 153.956C133.082 154.486 133.976 155.155 134.945 155.686C137.085 157.036 139.364 158.463 141.642 159.89C143.921 161.316 146.262 162.957 148.528 164.737C150.516 166.364 152.152 167.979 153.573 169.657C157.158 173.957 158.802 179.176 157.801 183.307C157.117 186.531 154.972 189.136 153.054 191.326C147.086 197.958 139.558 202.836 132.396 207.375C126.974 210.707 121.262 214.24 115.488 217.558C100.976 225.993 88.9484 232.189 77.7415 237.214C68.0475 241.447 59.5267 244.523 51.3978 246.553C41.4163 249.01 32.1926 250.081 22.9583 249.527C18.9396 249.308 13.6614 248.759 8.87699 246.322C3.40016 243.505 -0.587336 238.624 -4.43634 233.819C-5.71934 232.217 -7.00234 230.616 -8.36112 229.152C-12.1605 224.914 -16.4014 221.154 -21.3609 217.721C-26.1819 214.363 -31.2432 211.774 -36.545 209.953C-38.7739 209.093 -41.2928 208.435 -43.4589 207.789C-46.2548 206.98 -49.1892 206.094 -52.1105 204.855C-57.6762 202.53 -61.8047 199.551 -64.4962 195.919C-64.8359 195.553 -65.0998 195.049 -65.301 194.759C-65.7165 194.532 -65.9177 194.242 -66.0431 193.813ZM19.529 86.4185C11.1754 86.8864 3.19271 83.0586 -3.73173 79.2699C-10.2407 75.7086 -17.4813 72.8267 -21.8866 79.2338C-24.0449 82.1917 -24.6797 85.9831 -25.163 89.4976C-25.2519 89.9888 -25.3407 90.48 -25.3538 90.8328C-28.5777 109.223 -38.4387 125.601 -48.9685 142.873C-51.5318 147.229 -54.3092 151.648 -56.9482 156.142C-59.2084 159.944 -61.33 163.822 -63.3759 167.561C-65.4217 171.3 -67.4937 175.745 -68.2305 180.38C-69.043 185.154 -68.2303 189.917 -66.1816 193.737C-65.9804 194.028 -65.855 194.456 -65.6538 194.746C-65.3141 195.112 -65.1886 195.54 -64.8489 195.906C-62.1575 199.538 -58.029 202.517 -52.4633 204.842C-49.6805 206.005 -46.7461 206.891 -43.8117 207.776C-41.507 208.498 -39.1266 209.08 -36.8977 209.94C-31.6718 211.899 -26.6104 214.489 -21.7136 217.708C-16.8926 221.065 -12.5132 224.901 -8.71386 229.139C-7.35509 230.602 -6.07209 232.204 -4.78909 233.806C-0.940083 238.611 3.0474 243.492 8.52424 246.309C13.1701 248.671 18.4483 249.219 22.6056 249.514C31.7013 249.992 41.0635 248.997 50.9065 246.464C59.0354 244.434 67.5562 241.358 77.2502 237.125C88.5956 232.176 100.699 225.842 114.997 217.47C120.847 214.012 126.483 210.618 131.905 207.286C139.067 202.748 146.671 197.73 152.563 191.237C154.481 189.047 156.55 186.581 157.31 183.218C158.172 179.011 156.591 174.007 153.006 169.706C151.585 168.029 149.949 166.414 147.961 164.786C145.695 163.007 143.354 161.366 141.075 159.939C138.935 158.588 136.657 157.162 134.378 155.735C133.409 155.205 132.515 154.536 131.546 154.005C104.065 136.81 77.8459 117.966 53.5684 98.2048C46.7092 92.6524 38.1386 85.6237 28.8913 85.4227C26.9132 85.4202 25.1364 85.7076 23.2211 85.9193C22.3641 86.1702 21.0158 86.3322 19.529 86.4185Z"/>
</mask>
<path d="M-66.0431 193.813C-68.0918 189.993 -68.9045 185.23 -68.092 180.456C-67.2795 175.682 -65.069 171.313 -63.2374 167.637C-61.1915 163.897 -59.1456 160.158 -56.8097 156.218C-54.1708 151.723 -51.5318 147.229 -48.8301 142.949C-38.3002 125.677 -28.4392 109.299 -25.2153 90.9086C-25.1264 90.4173 -25.0376 89.9261 -25.0245 89.5733C-24.4655 85.9204 -23.9064 82.2675 -21.6724 79.171C-17.267 72.764 -10.0265 75.6459 -3.51748 79.2072C3.40696 82.9959 11.3897 86.8237 19.7433 86.3558C21.0916 86.1937 22.5784 86.1075 23.7882 85.8697C25.565 85.5822 27.4803 85.3705 29.4583 85.3731C38.7056 85.5741 47.352 92.4642 54.1354 98.1551C78.4129 117.916 104.632 136.761 132.113 153.956C133.082 154.486 133.976 155.155 134.945 155.686C137.085 157.036 139.364 158.463 141.642 159.89C143.921 161.316 146.262 162.957 148.528 164.737C150.516 166.364 152.152 167.979 153.573 169.657C157.158 173.957 158.802 179.176 157.801 183.307C157.117 186.531 154.972 189.136 153.054 191.326C147.086 197.958 139.558 202.836 132.396 207.375C126.974 210.707 121.262 214.24 115.488 217.558C100.976 225.993 88.9484 232.189 77.7415 237.214C68.0475 241.447 59.5267 244.523 51.3978 246.553C41.4163 249.01 32.1926 250.081 22.9583 249.527C18.9396 249.308 13.6614 248.759 8.87699 246.322C3.40016 243.505 -0.587336 238.624 -4.43634 233.819C-5.71934 232.217 -7.00234 230.616 -8.36112 229.152C-12.1605 224.914 -16.4014 221.154 -21.3609 217.721C-26.1819 214.363 -31.2432 211.774 -36.545 209.953C-38.7739 209.093 -41.2928 208.435 -43.4589 207.789C-46.2548 206.98 -49.1892 206.094 -52.1105 204.855C-57.6762 202.53 -61.8047 199.551 -64.4962 195.919C-64.8359 195.553 -65.0998 195.049 -65.301 194.759C-65.7165 194.532 -65.9177 194.242 -66.0431 193.813ZM19.529 86.4185C11.1754 86.8864 3.19271 83.0586 -3.73173 79.2699C-10.2407 75.7086 -17.4813 72.8267 -21.8866 79.2338C-24.0449 82.1917 -24.6797 85.9831 -25.163 89.4976C-25.2519 89.9888 -25.3407 90.48 -25.3538 90.8328C-28.5777 109.223 -38.4387 125.601 -48.9685 142.873C-51.5318 147.229 -54.3092 151.648 -56.9482 156.142C-59.2084 159.944 -61.33 163.822 -63.3759 167.561C-65.4217 171.3 -67.4937 175.745 -68.2305 180.38C-69.043 185.154 -68.2303 189.917 -66.1816 193.737C-65.9804 194.028 -65.855 194.456 -65.6538 194.746C-65.3141 195.112 -65.1886 195.54 -64.8489 195.906C-62.1575 199.538 -58.029 202.517 -52.4633 204.842C-49.6805 206.005 -46.7461 206.891 -43.8117 207.776C-41.507 208.498 -39.1266 209.08 -36.8977 209.94C-31.6718 211.899 -26.6104 214.489 -21.7136 217.708C-16.8926 221.065 -12.5132 224.901 -8.71386 229.139C-7.35509 230.602 -6.07209 232.204 -4.78909 233.806C-0.940083 238.611 3.0474 243.492 8.52424 246.309C13.1701 248.671 18.4483 249.219 22.6056 249.514C31.7013 249.992 41.0635 248.997 50.9065 246.464C59.0354 244.434 67.5562 241.358 77.2502 237.125C88.5956 232.176 100.699 225.842 114.997 217.47C120.847 214.012 126.483 210.618 131.905 207.286C139.067 202.748 146.671 197.73 152.563 191.237C154.481 189.047 156.55 186.581 157.31 183.218C158.172 179.011 156.591 174.007 153.006 169.706C151.585 168.029 149.949 166.414 147.961 164.786C145.695 163.007 143.354 161.366 141.075 159.939C138.935 158.588 136.657 157.162 134.378 155.735C133.409 155.205 132.515 154.536 131.546 154.005C104.065 136.81 77.8459 117.966 53.5684 98.2048C46.7092 92.6524 38.1386 85.6237 28.8913 85.4227C26.9132 85.4202 25.1364 85.7076 23.2211 85.9193C22.3641 86.1702 21.0158 86.3322 19.529 86.4185Z" fill="white"/>
<path d="M-66.0431 193.813L-65.0834 193.532L-65.1126 193.432L-65.1618 193.341L-66.0431 193.813ZM-63.2374 167.637L-64.1147 167.157L-64.1239 167.173L-64.1325 167.191L-63.2374 167.637ZM-56.8097 156.218L-55.9495 156.728L-55.9474 156.724L-56.8097 156.218ZM-48.8301 142.949L-47.9844 143.483L-47.9803 143.476L-47.9762 143.469L-48.8301 142.949ZM-25.2153 90.9086L-26.1993 90.7306L-26.2002 90.7359L-25.2153 90.9086ZM-25.0245 89.5733L-26.013 89.422L-26.0217 89.4789L-26.0239 89.5363L-25.0245 89.5733ZM-21.6724 79.171L-20.8614 79.7561L-20.8548 79.747L-20.8483 79.7376L-21.6724 79.171ZM19.7433 86.3558L19.7992 87.3542L19.831 87.3524L19.8626 87.3486L19.7433 86.3558ZM23.7882 85.8697L23.6284 84.8825L23.6118 84.8852L23.5953 84.8884L23.7882 85.8697ZM29.4583 85.3731L29.48 84.3733L29.4698 84.3731L29.4596 84.3731L29.4583 85.3731ZM54.1354 98.1551L53.4927 98.9212L53.4984 98.926L53.5041 98.9307L54.1354 98.1551ZM132.113 153.956L131.582 154.804L131.607 154.819L131.633 154.833L132.113 153.956ZM134.945 155.686L135.479 154.84L135.453 154.823L135.425 154.808L134.945 155.686ZM148.528 164.737L149.161 163.963L149.153 163.956L149.145 163.95L148.528 164.737ZM153.573 169.657L154.342 169.016L154.336 169.01L153.573 169.657ZM157.801 183.307L156.83 183.071L156.826 183.085L156.823 183.099L157.801 183.307ZM153.054 191.326L153.797 191.995L153.806 191.985L153.054 191.326ZM132.396 207.375L132.92 208.227L132.931 208.22L132.396 207.375ZM115.488 217.558L114.99 216.691L114.985 216.694L115.488 217.558ZM77.7415 237.214L78.1417 238.13L78.1506 238.126L77.7415 237.214ZM51.3978 246.553L51.6367 247.524L51.6401 247.523L51.3978 246.553ZM22.9583 249.527L23.0182 248.529L23.0128 248.529L22.9583 249.527ZM8.87699 246.322L8.41964 247.211L8.423 247.213L8.87699 246.322ZM-4.43634 233.819L-3.65586 233.194L-4.43634 233.819ZM-8.36112 229.152L-9.10572 229.82L-9.09987 229.826L-9.0939 229.833L-8.36112 229.152ZM-21.3609 217.721L-21.9324 218.541L-21.9301 218.543L-21.3609 217.721ZM-36.545 209.953L-36.9048 210.886L-36.8875 210.893L-36.8699 210.899L-36.545 209.953ZM-43.4589 207.789L-43.1734 206.831L-43.1807 206.829L-43.4589 207.789ZM-52.1105 204.855L-51.7202 203.935L-51.725 203.933L-52.1105 204.855ZM-64.4962 195.919L-63.6927 195.324L-63.7257 195.279L-63.7634 195.239L-64.4962 195.919ZM-65.301 194.759L-64.4794 194.189L-64.6139 193.995L-64.821 193.882L-65.301 194.759ZM19.529 86.4185L19.585 87.4169L19.587 87.4168L19.529 86.4185ZM-21.8866 79.2338L-21.0788 79.8232L-21.0705 79.8119L-21.0626 79.8003L-21.8866 79.2338ZM-25.163 89.4976L-24.179 89.6755L-24.1752 89.6547L-24.1724 89.6338L-25.163 89.4976ZM-25.3538 90.8328L-24.3688 91.0055L-24.357 90.9381L-24.3544 90.8698L-25.3538 90.8328ZM-48.9685 142.873L-49.8224 142.353L-49.8264 142.359L-49.8304 142.366L-48.9685 142.873ZM-56.9482 156.142L-56.0886 156.653L-56.0859 156.648L-56.9482 156.142ZM-68.2305 180.38L-67.2446 180.548L-67.2429 180.537L-68.2305 180.38ZM-66.1816 193.737L-67.0629 194.21L-67.0358 194.26L-67.0032 194.307L-66.1816 193.737ZM-65.6538 194.746L-66.4754 195.316L-66.4349 195.374L-66.3865 195.427L-65.6538 194.746ZM-64.8489 195.906L-64.0455 195.311L-64.0785 195.266L-64.1162 195.226L-64.8489 195.906ZM-43.8117 207.776L-43.5131 206.822L-43.5227 206.819L-43.8117 207.776ZM-36.8977 209.94L-37.2576 210.873L-37.2488 210.876L-36.8977 209.94ZM-21.7136 217.708L-21.1421 216.887L-21.1531 216.88L-21.1643 216.872L-21.7136 217.708ZM-8.71386 229.139L-9.45846 229.807L-9.45261 229.813L-9.44664 229.82L-8.71386 229.139ZM-4.78909 233.806L-4.0086 233.181L-4.78909 233.806ZM8.52424 246.309L8.06688 247.198L8.07104 247.2L8.52424 246.309ZM22.6056 249.514L22.5348 250.512L22.5439 250.513L22.5531 250.513L22.6056 249.514ZM50.9065 246.464L50.6642 245.494L50.6574 245.496L50.9065 246.464ZM77.2502 237.125L76.8504 236.209L76.85 236.209L77.2502 237.125ZM114.997 217.47L115.502 218.332L115.505 218.33L114.997 217.47ZM131.905 207.286L132.429 208.139L132.44 208.131L131.905 207.286ZM152.563 191.237L153.303 191.909L153.309 191.903L153.315 191.896L152.563 191.237ZM157.31 183.218L158.286 183.438L158.288 183.429L158.29 183.419L157.31 183.218ZM153.006 169.706L153.775 169.066L153.769 169.06L153.006 169.706ZM147.961 164.786L148.594 164.012L148.586 164.006L148.578 164L147.961 164.786ZM141.075 159.939L140.542 160.785L140.545 160.787L141.075 159.939ZM134.378 155.735L134.909 154.888L134.884 154.872L134.858 154.858L134.378 155.735ZM131.546 154.005L131.015 154.853L131.04 154.869L131.066 154.883L131.546 154.005ZM53.5684 98.2048L54.1997 97.4292L54.1976 97.4275L53.5684 98.2048ZM28.8913 85.4227L28.913 84.423L28.9028 84.4227L28.8926 84.4227L28.8913 85.4227ZM23.2211 85.9193L23.1113 84.9254L23.0243 84.935L22.9402 84.9596L23.2211 85.9193ZM-65.1618 193.341C-67.102 189.723 -67.8826 185.186 -67.1062 180.624L-69.0778 180.288C-69.9264 185.274 -69.0815 190.263 -66.9244 194.286L-65.1618 193.341ZM-67.1062 180.624C-66.3227 176.02 -64.1863 171.784 -62.3423 168.082L-64.1325 167.191C-65.9517 170.842 -68.2362 175.343 -69.0778 180.288L-67.1062 180.624ZM-62.3601 168.117C-60.3133 164.376 -58.2753 160.651 -55.9495 156.728L-57.67 155.708C-60.0159 159.665 -62.0697 163.419 -64.1147 167.157L-62.3601 168.117ZM-55.9474 156.724C-53.3069 152.227 -50.6761 147.747 -47.9844 143.483L-49.6757 142.415C-52.3875 146.711 -55.0346 151.22 -57.6721 155.711L-55.9474 156.724ZM-47.9762 143.469C-37.4646 126.227 -27.4924 109.689 -24.2303 91.0812L-26.2002 90.7359C-29.386 108.908 -39.1358 125.126 -49.6839 142.428L-47.9762 143.469ZM-24.2312 91.0865C-24.1476 90.6243 -24.0415 90.0509 -24.0252 89.6103L-26.0239 89.5363C-26.0337 89.8013 -26.1052 90.2103 -26.1993 90.7306L-24.2312 91.0865ZM-24.0361 89.7246C-23.4708 86.0316 -22.9318 82.6258 -20.8614 79.7561L-22.4833 78.5859C-24.881 81.9092 -25.4601 85.8092 -26.013 89.422L-24.0361 89.7246ZM-20.8483 79.7376C-19.844 78.277 -18.7127 77.391 -17.5125 76.8979C-16.3049 76.4018 -14.961 76.2763 -13.4979 76.4444C-10.5343 76.785 -7.24663 78.3067 -3.99747 80.0845L-3.03749 78.3299C-6.2973 76.5464 -9.8844 74.8465 -13.2696 74.4575C-14.9811 74.2609 -16.6801 74.3937 -18.2725 75.0479C-19.8723 75.7052 -21.298 76.8616 -22.4964 78.6045L-20.8483 79.7376ZM-3.99747 80.0845C2.92223 83.8705 11.1319 87.8397 19.7992 87.3542L19.6874 85.3573C11.6475 85.8077 3.8917 82.1212 -3.03749 78.3299L-3.99747 80.0845ZM19.8626 87.3486C21.1131 87.1983 22.7273 87.0973 23.981 86.8509L23.5953 84.8884C22.4294 85.1176 21.0701 85.1891 19.624 85.3629L19.8626 87.3486ZM23.9479 86.8568C25.6908 86.5748 27.5495 86.3706 29.457 86.3731L29.4596 84.3731C27.411 84.3704 25.4391 84.5896 23.6284 84.8825L23.9479 86.8568ZM29.4365 86.3728C33.8221 86.4681 38.1239 88.1529 42.2124 90.5665C46.2997 92.9794 50.1015 96.0762 53.4927 98.9212L54.7781 97.389C51.3859 94.5432 47.4728 91.3495 43.2292 88.8442C38.9868 86.3398 34.3418 84.479 29.48 84.3733L29.4365 86.3728ZM53.5041 98.9307C77.8132 118.718 104.066 137.586 131.582 154.804L132.643 153.108C105.198 135.935 79.0126 117.115 54.7667 97.3796L53.5041 98.9307ZM131.633 154.833C132.081 155.078 132.517 155.358 132.988 155.662C133.448 155.958 133.944 156.278 134.465 156.563L135.425 154.808C134.977 154.563 134.541 154.283 134.07 153.98C133.61 153.683 133.114 153.364 132.593 153.079L131.633 154.833ZM134.411 156.531C136.553 157.883 138.833 159.311 141.112 160.737L142.173 159.042C139.894 157.615 137.617 156.19 135.479 154.84L134.411 156.531ZM141.112 160.737C143.36 162.145 145.672 163.765 147.91 165.523L149.145 163.95C146.852 162.149 144.482 160.488 142.173 159.042L141.112 160.737ZM147.894 165.51C149.839 167.102 151.43 168.675 152.81 170.303L154.336 169.01C152.873 167.284 151.194 165.627 149.161 163.963L147.894 165.51ZM152.805 170.297C156.262 174.444 157.732 179.346 156.83 183.071L158.773 183.542C159.872 179.005 158.054 173.471 154.342 169.016L152.805 170.297ZM156.823 183.099C156.199 186.038 154.229 188.466 152.302 190.667L153.806 191.985C155.714 189.806 158.035 187.024 158.78 183.514L156.823 183.099ZM152.311 190.657C146.447 197.173 139.033 201.985 131.861 206.531L132.931 208.22C140.083 203.688 147.725 198.743 153.797 191.995L152.311 190.657ZM131.873 206.523C126.446 209.858 120.749 213.382 114.99 216.691L115.986 218.425C121.776 215.098 127.502 211.556 132.92 208.227L131.873 206.523ZM114.985 216.694C100.497 225.115 88.5015 231.293 77.3323 236.301L78.1506 238.126C89.3953 233.085 101.454 226.872 115.99 218.423L114.985 216.694ZM77.3413 236.298C67.6799 240.516 59.2138 243.57 51.1554 245.583L51.6401 247.523C59.8395 245.475 68.415 242.378 78.1416 238.13L77.3413 236.298ZM51.1588 245.582C41.2525 248.02 32.1312 249.076 23.0182 248.529L22.8985 250.526C32.2539 251.087 41.5801 249.999 51.6367 247.524L51.1588 245.582ZM23.0128 248.529C19.0199 248.311 13.9192 247.769 9.33099 245.431L8.423 247.213C13.4035 249.75 18.8592 250.305 22.9038 250.526L23.0128 248.529ZM9.33434 245.432C4.07686 242.729 0.213463 238.024 -3.65586 233.194L-5.21682 234.444C-1.38814 239.224 2.72345 244.282 8.41964 247.211L9.33434 245.432ZM-3.65586 233.194C-4.93457 231.597 -6.24039 229.966 -7.62834 228.472L-9.0939 229.833C-7.7643 231.265 -6.50412 232.837 -5.21682 234.444L-3.65586 233.194ZM-7.61652 228.485C-11.4685 224.188 -15.7684 220.376 -20.7917 216.899L-21.9301 218.543C-17.0344 221.932 -12.8525 225.64 -9.10572 229.82L-7.61652 228.485ZM-20.7894 216.9C-25.6827 213.492 -30.8266 210.86 -36.2201 209.007L-36.8699 210.899C-31.6598 212.688 -26.681 215.234 -21.9324 218.541L-20.7894 216.9ZM-36.1852 209.02C-38.4629 208.141 -41.0546 207.462 -43.1734 206.831L-43.7445 208.748C-41.5309 209.407 -39.0848 210.045 -36.9048 210.886L-36.1852 209.02ZM-43.1807 206.829C-45.9737 206.02 -48.8583 205.148 -51.7202 203.935L-52.5009 205.776C-49.5202 207.04 -46.536 207.939 -43.7372 208.75L-43.1807 206.829ZM-51.725 203.933C-57.1783 201.654 -61.1387 198.77 -63.6927 195.324L-65.2996 196.515C-62.4708 200.332 -58.1741 203.406 -52.4961 205.778L-51.725 203.933ZM-63.7634 195.239C-63.8719 195.122 -63.9848 194.964 -64.1091 194.77C-64.2051 194.621 -64.3695 194.347 -64.4794 194.189L-66.1226 195.329C-66.0313 195.461 -65.9631 195.585 -65.792 195.851C-65.6491 196.074 -65.4601 196.351 -65.229 196.6L-63.7634 195.239ZM-64.821 193.882C-64.9264 193.824 -64.9659 193.781 -64.9859 193.755C-65.0088 193.725 -65.0441 193.666 -65.0834 193.532L-67.0028 194.094C-66.9167 194.389 -66.7887 194.689 -66.5757 194.968C-66.3599 195.251 -66.0911 195.467 -65.781 195.636L-64.821 193.882ZM19.4731 85.42C11.4332 85.8704 3.67744 82.1839 -3.25174 78.3927L-4.21173 80.1472C2.70797 83.9332 10.9176 87.9024 19.585 87.4169L19.4731 85.42ZM-3.25174 78.3927C-6.51156 76.6091 -10.0987 74.9092 -13.4839 74.5202C-15.1953 74.3236 -16.8943 74.4564 -18.4868 75.1106C-20.0866 75.7679 -21.5123 76.9243 -22.7106 78.6672L-21.0626 79.8003C-20.0583 78.3397 -18.9269 77.4537 -17.7267 76.9606C-16.5192 76.4645 -15.1752 76.339 -13.7122 76.5072C-10.7486 76.8477 -7.46089 78.3695 -4.21173 80.1472L-3.25174 78.3927ZM-22.6944 78.6443C-25.0206 81.8325 -25.6735 85.8693 -26.1537 89.3613L-24.1724 89.6338C-23.686 86.0969 -23.0691 82.5509 -21.0788 79.8232L-22.6944 78.6443ZM-26.1471 89.3196C-26.2307 89.7818 -26.3368 90.3552 -26.3531 90.7958L-24.3544 90.8698C-24.3446 90.6048 -24.2731 90.1958 -24.179 89.6755L-26.1471 89.3196ZM-26.3387 90.6601C-29.5245 108.832 -39.2743 125.051 -49.8224 142.353L-48.1147 143.394C-37.6031 126.152 -27.6309 109.613 -24.3688 91.0055L-26.3387 90.6601ZM-49.8304 142.366C-51.1076 144.536 -52.4389 146.724 -53.7844 148.936C-55.1285 151.146 -56.4866 153.381 -57.8106 155.636L-56.0859 156.648C-54.7709 154.409 -53.4207 152.187 -52.0756 149.975C-50.7318 147.766 -49.3927 145.566 -48.1067 143.38L-49.8304 142.366ZM-57.8078 155.631C-60.0786 159.451 -62.2086 163.344 -64.2531 167.081L-62.4986 168.041C-60.4514 164.299 -58.3382 160.437 -56.0887 156.653L-57.8078 155.631ZM-64.2531 167.081C-66.3148 170.849 -68.4539 175.415 -69.2181 180.223L-67.2429 180.537C-66.5335 176.074 -64.5286 171.751 -62.4986 168.041L-64.2531 167.081ZM-69.2163 180.212C-70.0649 185.198 -69.22 190.188 -67.0629 194.21L-65.3003 193.265C-67.2405 189.647 -68.0211 185.11 -67.2446 180.548L-69.2163 180.212ZM-67.0032 194.307C-66.964 194.364 -66.9191 194.455 -66.828 194.656C-66.7558 194.814 -66.6373 195.083 -66.4754 195.316L-64.8321 194.176C-64.8714 194.119 -64.9162 194.028 -65.0073 193.828C-65.0795 193.669 -65.198 193.401 -65.36 193.167L-67.0032 194.307ZM-66.3865 195.427C-66.3023 195.517 -66.2367 195.622 -66.1143 195.831C-66.0041 196.02 -65.8371 196.312 -65.5817 196.587L-64.1162 195.226C-64.2004 195.135 -64.266 195.03 -64.3884 194.821C-64.4986 194.633 -64.6656 194.341 -64.921 194.066L-66.3865 195.427ZM-65.6524 196.502C-62.8235 200.319 -58.5268 203.393 -52.8488 205.765L-52.0778 203.92C-57.5311 201.641 -61.4915 198.757 -64.0455 195.311L-65.6524 196.502ZM-52.8488 205.765C-50.0105 206.951 -47.0262 207.851 -44.1007 208.734L-43.5227 206.819C-46.466 205.931 -49.3504 205.059 -52.0778 203.92L-52.8488 205.765ZM-44.1103 208.731C-41.7187 209.479 -39.451 210.027 -37.2576 210.873L-36.5379 209.007C-38.8022 208.134 -41.2953 207.516 -43.5131 206.822L-44.1103 208.731ZM-37.2488 210.876C-32.0959 212.808 -27.1007 215.363 -22.2629 218.543L-21.1643 216.872C-26.1201 213.614 -31.2477 210.99 -36.5466 209.003L-37.2488 210.876ZM-22.2851 218.528C-17.5238 221.844 -13.2033 225.629 -9.45846 229.807L-7.96926 228.472C-11.8232 224.173 -16.2614 220.286 -21.1421 216.887L-22.2851 218.528ZM-9.44664 229.82C-8.11704 231.252 -6.85687 232.824 -5.56957 234.431L-4.0086 233.181C-5.28732 231.584 -6.59314 229.953 -7.98108 228.459L-9.44664 229.82ZM-5.56957 234.431C-1.74088 239.211 2.37069 244.268 8.06689 247.198L8.98159 245.419C3.72411 242.715 -0.139277 238.011 -4.0086 233.181L-5.56957 234.431ZM8.07104 247.2C12.9131 249.662 18.3724 250.216 22.5348 250.512L22.6764 248.517C18.5243 248.222 13.4272 247.68 8.97744 245.417L8.07104 247.2ZM22.5531 250.513C31.76 250.997 41.2241 249.988 51.1557 247.433L50.6574 245.496C40.903 248.005 31.6426 248.988 22.6581 248.516L22.5531 250.513ZM51.1489 247.435C59.3482 245.387 67.9238 242.289 77.6504 238.042L76.85 236.209C67.1887 240.428 58.7226 243.481 50.6642 245.494L51.1489 247.435ZM77.6501 238.042C89.0429 233.072 101.183 226.717 115.502 218.332L114.491 216.607C100.215 224.966 88.1483 231.28 76.8504 236.209L77.6501 238.042ZM115.505 218.33C121.36 214.871 127.001 211.473 132.428 208.138L131.381 206.434C125.965 209.763 120.334 213.154 114.488 216.609L115.505 218.33ZM132.44 208.131C139.597 203.596 147.309 198.515 153.303 191.909L151.822 190.565C146.032 196.946 138.537 201.899 131.37 206.442L132.44 208.131ZM153.315 191.896C155.227 189.713 157.463 187.076 158.286 183.438L156.335 182.997C155.637 186.086 153.734 188.382 151.81 190.578L153.315 191.896ZM158.29 183.419C159.23 178.831 157.493 173.526 153.775 169.066L152.238 170.347C155.69 174.488 157.115 179.191 156.331 183.017L158.29 183.419ZM153.769 169.06C152.306 167.333 150.627 165.676 148.594 164.012L147.327 165.56C149.271 167.152 150.863 168.724 152.243 170.353L153.769 169.06ZM148.578 164C146.285 162.199 143.915 160.537 141.606 159.092L140.545 160.787C142.793 162.195 145.105 163.815 147.343 165.573L148.578 164ZM141.609 159.094C139.467 157.742 137.187 156.314 134.909 154.888L133.848 156.583C136.126 158.01 138.403 159.435 140.542 160.785L141.609 159.094ZM134.858 154.858C134.41 154.613 133.974 154.333 133.503 154.029C133.043 153.733 132.547 153.413 132.026 153.128L131.066 154.883C131.514 155.128 131.95 155.408 132.421 155.711C132.881 156.008 133.377 156.327 133.898 156.612L134.858 154.858ZM132.076 153.158C104.631 135.985 78.4456 117.165 54.1997 97.4292L52.9371 98.9803C77.2462 118.767 103.499 137.636 131.015 154.853L132.076 153.158ZM54.1976 97.4275C50.7799 94.6609 46.866 91.4676 42.6372 88.9479C38.4078 86.4278 33.7797 84.5287 28.913 84.423L28.8695 86.4225C33.2502 86.5177 37.531 88.2335 41.6135 90.666C45.6967 93.099 49.4977 96.1962 52.9392 98.982L54.1976 97.4275ZM28.8926 84.4227C26.8405 84.4201 24.9661 84.7204 23.1113 84.9254L23.331 86.9133C25.3068 86.6949 26.986 86.4202 28.89 86.4227L28.8926 84.4227ZM22.9402 84.9596C22.199 85.1765 20.947 85.3345 19.4711 85.4202L19.587 87.4168C21.0846 87.3299 22.5292 87.1638 23.5021 86.879L22.9402 84.9596Z" fill="white" mask="url(#path-6-inside-1_270_525)"/>
<path d="M126.724 219.387L126.861 219.621C126.908 219.594 126.954 219.566 127.001 219.539C133.31 215.844 139.695 212.013 145.809 208.032L145.662 207.796M126.724 219.387C126.77 219.36 126.817 219.333 126.863 219.306C126.863 219.306 126.863 219.305 126.864 219.305C133.173 215.61 139.554 211.777 145.662 207.796M126.724 219.387C110.331 229.048 97.2638 235.892 84.4614 241.617C84.4609 241.617 84.4603 241.618 84.4598 241.618C84.4022 241.644 84.3445 241.669 84.2869 241.695L126.861 219.621L126.724 219.387ZM145.662 207.796L145.814 208.029C145.856 208.002 145.897 207.975 145.939 207.947C154.088 202.894 162.614 197.152 169.231 190.005C169.248 189.986 169.266 189.967 169.283 189.949C171.491 187.558 173.787 184.676 174.561 180.96M145.662 207.796C145.704 207.77 145.747 207.743 145.789 207.717C145.791 207.716 145.792 207.715 145.794 207.714C153.925 202.667 162.418 196.931 169.006 189.797C169.023 189.778 169.04 189.76 169.058 189.741C171.231 187.381 173.479 184.543 174.264 180.9L174.561 180.96M174.561 180.96C174.567 180.93 174.573 180.9 174.579 180.87C174.579 180.869 174.579 180.869 174.579 180.868C175.487 176.187 173.577 170.507 169.478 165.583L174.265 180.898L174.561 180.96ZM145.261 148.014C145.985 148.5 146.727 148.951 147.47 149.403C148.123 149.8 148.777 150.196 149.417 150.617L-8.10641 61.941C-7.29017 62.4175 -6.49445 62.8679 -5.71767 63.2938C-1.91341 65.3708 1.38477 66.8267 4.59797 67.9923M145.261 148.014C145.172 147.958 145.083 147.902 144.995 147.846C144.994 147.846 144.994 147.846 144.994 147.846C143.53 146.926 142.07 146.001 140.614 145.072M145.261 148.014L145.246 148.036L149.402 150.64C148.679 150.154 147.936 149.702 147.193 149.251C146.54 148.854 145.887 148.457 145.247 148.037L145.261 148.014ZM140.614 145.072C116.387 129.498 93.0578 112.756 71.0582 95.1711M140.614 145.072C116.331 129.581 93.069 112.876 71.0582 95.1711M140.614 145.072C142.067 146.006 143.524 146.936 144.984 147.862L57.3771 83.9825L57.4168 83.9355M71.0582 95.1711C66.4557 91.4689 61.9078 87.7231 57.4168 83.9355M71.0582 95.1711C66.4381 91.478 61.8766 87.7476 57.3777 83.9831L57.4168 83.9355M57.4168 83.9355C57.3369 83.8698 57.2571 83.8043 57.1776 83.7388C57.1774 83.7387 57.1773 83.7386 57.1771 83.7385C56.7389 83.378 56.3055 83.0205 55.8762 82.6662C51.9025 79.3873 48.2745 76.3937 44.289 74.0535C44.1992 73.9982 44.1094 73.9433 44.0197 73.8889C44.0197 73.8889 44.0197 73.8889 44.0197 73.8889C41.4686 72.3418 39.0037 71.1835 36.625 70.4139M36.625 70.4139C34.2299 69.5846 31.9151 69.1176 29.6383 69.0523L29.6302 69.2721M36.625 70.4139C34.2042 69.6307 31.8725 69.2501 29.6302 69.2721M36.625 70.4139C38.995 71.2345 41.4436 72.4099 44.0121 73.902L18.29 70.2653M29.6302 69.2721L29.628 69.052C29.4901 69.0481 29.3524 69.0457 29.2147 69.0448C27.0927 69.0306 25.1374 69.2568 23.3016 69.5617L23.3173 69.9569M29.6302 69.2721C29.4916 69.267 29.3526 69.264 29.2133 69.2629C27.3315 69.2484 25.3958 69.5901 23.616 69.9042C23.5159 69.9219 23.4163 69.9395 23.3173 69.9569M23.3173 69.9569L23.2493 69.5704C23.0864 69.5976 22.9244 69.6255 22.7633 69.6538C21.249 69.8716 19.7347 70.0894 18.2894 70.1812C18.2883 70.1812 18.2872 70.1813 18.2861 70.1814C18.2411 70.1842 18.1963 70.1869 18.1515 70.1895M23.3173 69.9569C23.1496 69.9635 22.9841 69.9715 22.8208 69.9804C22.8173 69.9806 22.8139 69.9808 22.8104 69.981C22.1846 70.0153 21.5887 70.064 21.0083 70.1114C20.0824 70.187 19.1959 70.2595 18.29 70.2653M18.1515 70.1895C14.0845 70.4587 9.63587 69.8134 4.74466 68.0457C4.7446 68.0456 4.74454 68.0456 4.74447 68.0456C4.69568 68.028 4.64685 68.0102 4.59797 67.9923M18.1515 70.1895L18.1562 70.2712L18.29 70.2653M18.1515 70.1895L18.1569 70.2712C18.2012 70.2693 18.2456 70.2674 18.29 70.2653M4.59797 67.9923L4.58948 68.0156L4.73645 68.0681C4.68755 68.0507 4.63857 68.0332 4.58953 68.0156L4.59797 67.9923ZM152.751 152.742C151.716 152.085 150.68 151.429 149.679 150.791L155.546 154.541L155.557 154.523C154.639 153.939 153.695 153.34 152.751 152.742ZM163.428 159.881C160.956 158.017 158.295 156.219 155.823 154.692L169.29 165.357C167.718 163.485 165.989 161.853 163.677 160.07C163.595 160.007 163.512 159.944 163.429 159.882C163.429 159.882 163.429 159.881 163.428 159.881Z" fill="white" stroke="white"/>
<path d="M58.477 258.434C58.4767 258.434 58.4764 258.434 58.4762 258.434L58.4504 258.33L58.477 258.434ZM138.442 221.404L138.513 221.519L138.444 221.402C138.443 221.403 138.443 221.403 138.442 221.404ZM22.9133 262.17L22.9167 262.101L22.9133 262.17ZM159.344 208.443L159.418 208.56C159.418 208.56 159.419 208.56 159.419 208.56L159.344 208.443Z" fill="white" stroke="white"/>
<path d="M-102.941 190.54C-105.92 185.131 -106.806 178.528 -105.714 171.928C-104.546 165.189 -101.502 159.297 -98.4711 153.757C-95.4401 148.218 -92.0565 142.691 -89.2659 137.92C-86.627 133.425 -83.9252 129.145 -81.2235 124.865C-65.0629 98.6177 -49.9501 73.9562 -46.7499 44.7563C-46.648 43.9123 -46.6219 43.2068 -46.52 42.3628C-45.8956 36.9461 -45.4098 31.4536 -42.5565 26.8966C-36.1811 16.8888 -25.264 21.6023 -16.4896 26.943C-7.50085 32.221 4.14526 38.2331 15.6867 37.53C17.602 37.3183 19.5173 37.1066 21.5084 36.7564C24.0665 36.3566 26.7003 35.8183 29.5223 35.9227C42.7256 36.1288 54.4921 46.5256 64.1445 54.8659C97.4683 84.0755 133.63 111.059 171.798 135.361C174.97 137.457 178.08 139.338 181.327 141.295L185.054 143.693C188.025 145.499 191.612 147.822 194.91 150.346C197.792 152.643 200.183 154.851 202.36 157.121C207.782 163.327 210.267 170.625 209.062 176.444C208.187 181.003 205.083 184.704 202.433 187.573C194.347 196.104 184.347 202.869 173.856 209.546C165.9 214.55 158.157 219.491 150.718 223.878C130.633 235.922 114.772 244.519 99.1784 251.642C81.1387 259.947 53.6845 270.658 23.5753 269.119C17.7928 268.835 10.4739 268.069 3.96488 264.508C-3.86627 260.403 -9.11066 253.215 -14.3681 246.38C-16.1162 243.984 -18.0029 241.512 -19.8268 239.254C-30.0411 227.008 -44.3786 217.363 -59.176 212.506C-62.6643 211.317 -66.1657 210.481 -69.6671 209.645C-73.6597 208.72 -77.7151 207.581 -81.6946 206.304C-89.7165 203.534 -96.0609 199.343 -100.035 194.109C-100.438 193.529 -100.84 192.949 -101.243 192.369C-102.212 191.839 -102.614 191.259 -102.941 190.54ZM15.9245 38.7398C4.03032 39.4299 -7.96855 33.4047 -17.02 27.9124C-26.0087 22.6344 -35.7421 18.3886 -41.5871 27.427C-44.2888 31.7071 -44.8374 36.9853 -45.3102 42.125C-45.4121 42.969 -45.514 43.8129 -45.5401 44.5185C-48.6776 73.9327 -64.0805 98.7954 -80.2411 125.043C-82.9428 129.323 -85.5818 133.817 -88.2835 138.097C-91.074 142.869 -94.4577 148.395 -97.4886 153.935C-100.444 159.336 -103.488 165.228 -104.58 171.829C-105.761 178.92 -104.334 186.179 -100.864 191.677C-100.461 192.257 -100.059 192.837 -99.6564 193.417C-95.7447 198.436 -89.6773 202.476 -81.794 205.17C-77.8902 206.586 -73.759 207.586 -69.7664 208.511C-66.265 209.347 -62.7636 210.183 -59.2753 211.372C-44.2637 216.167 -29.725 226.101 -19.3721 238.423C-17.4097 240.757 -15.6616 243.153 -13.775 245.625C-8.65603 252.384 -3.33587 259.434 4.14253 263.526C10.5888 266.873 17.6935 267.701 23.2617 268.048C53.1567 269.649 80.3966 259.001 98.4363 250.696C114.03 243.573 129.815 235.115 149.976 222.932C157.277 218.469 165.082 213.742 173.114 208.6C183.529 202.062 193.529 195.297 201.616 186.765C204.265 183.896 207.079 180.397 207.941 176.19C209.07 170.51 206.635 163.779 201.489 157.725C199.527 155.391 197.136 153.184 194.317 151.101C191.158 148.653 187.431 146.254 184.599 144.524L180.873 142.126C177.625 140.169 174.591 138.149 171.343 136.192C133.175 111.89 96.8752 84.8306 63.5514 55.6211C53.8859 47.6335 42.2579 37.3125 29.4074 37.1194C26.7239 37.0908 24.1658 37.4906 21.6077 37.8905C19.7551 38.3164 17.8398 38.5281 15.9245 38.7398Z" fill="white"/>
</g>
<defs>
<clipPath id="clip0_270_525">
<rect width="292.993" height="216.43" fill="white" transform="translate(-28.1597 0.58374) rotate(28.6848)"/>
</clipPath>
</defs>
</svg>
