<svg width="236" height="236" viewBox="0 0 236 236" fill="none" xmlns="http://www.w3.org/2000/svg">
<g filter="url(#filter0_dd_229_1859)">
<path d="M207.497 108.069C207.488 119.819 205.163 131.452 200.657 142.303C196.151 153.154 189.551 163.011 181.234 171.311C172.917 179.61 163.046 186.19 152.186 190.673C141.325 195.157 129.688 197.457 117.938 197.441C68.6897 197.428 28.6897 157.31 28.6897 108.069C28.7242 58.5794 68.8276 18.4553 118.345 18.6897C142.011 18.7482 164.687 28.1909 181.401 44.9467C198.114 61.7024 207.498 84.403 207.497 108.069Z" fill="#0CA1FB"/>
</g>
<path d="M140.414 52.4C136.793 50.9448 134.731 47.9241 134.807 44.2414C134.859 42.6769 135.378 41.1639 136.297 39.8965C137.393 38.3493 138.803 37.05 140.435 36.0827C142.772 34.6552 147.028 34.7379 149.304 37.5862C152.062 41.0345 153.441 45.0345 154.131 49.3103C154.364 50.8075 154.229 52.339 153.738 53.7724C153.342 55.1175 152.577 56.3247 151.53 57.2572C150.483 58.1897 149.196 58.8102 147.814 59.0483C144.772 59.6689 141.214 58.0552 140.655 54.1655C140.545 53.5862 140.476 52.9793 140.414 52.4Z" fill="#48D9B9"/>
<path d="M122.938 18.8277C121.421 18.7449 119.897 18.6897 118.345 18.6897C68.8276 18.4553 28.7242 58.5794 28.6897 108.069C28.6882 123.703 32.7876 139.063 40.5786 152.617C48.3696 166.171 59.5797 177.444 73.0897 185.31C75.2485 178.952 76.1389 172.232 75.7104 165.531C75.9791 165.285 76.3153 165.124 76.6759 165.069C79.9009 164.141 82.92 162.608 85.5725 160.552C88.269 158.483 90.4828 156.007 91.6483 152.731C92.3411 150.915 92.5085 148.941 92.1311 147.035C91.8447 145.918 91.4061 144.846 90.8276 143.848C91.1173 142.772 91.4138 141.779 91.6552 140.779C91.8924 139.769 92.0173 138.735 92.0276 137.697C92.0373 133.019 90.2413 128.517 87.0138 125.131C83.8435 121.739 79.9058 119.156 75.5311 117.6C69.1859 115.241 62.3808 114.381 55.6483 115.09C54.0107 115.253 52.3573 115.136 50.7587 114.745C49.268 114.437 47.8945 113.714 46.7965 112.66C45.6984 111.606 44.9203 110.263 44.5518 108.786C43.9104 106.572 44.338 104.386 45.0897 102.262C46.471 98.537 48.7638 95.2175 51.7587 92.607C54.3794 90.2277 56.9173 87.7794 59.4276 85.2828C62.669 82.069 65.9311 78.938 68.738 75.3587C71.9348 71.3718 74.2459 66.7497 75.5173 61.8001C75.9044 60.2423 75.9934 58.6254 75.7793 57.0346C75.3593 54.4281 74.725 51.8608 73.8828 49.3587C73.738 48.8828 73.6207 48.4001 73.4897 47.938C73.6187 47.8914 73.7562 47.8729 73.8929 47.8836C74.0297 47.8943 74.1626 47.934 74.2828 48.0001C76.7776 48.8917 79.4454 49.1915 82.0759 48.8759C85.2134 48.4859 88.2762 47.6353 91.1656 46.3518C96.9671 43.8274 102.398 40.5259 107.31 36.538C112.651 32.4011 117.315 27.4593 121.138 21.8897C121.817 20.9178 122.419 19.8939 122.938 18.8277Z" fill="#48D9B9"/>
<path d="M127.612 16.0782L125.636 20.1404C125.05 21.344 124.371 22.4999 123.605 23.5974C119.614 29.4098 114.746 34.5681 109.175 38.8887C104.062 43.0359 98.4094 46.4704 92.3729 49.0981C89.2172 50.4988 85.8723 51.427 82.446 51.853L82.4332 51.8546C80.8752 52.0415 79.3061 52.0447 77.7575 51.8679C78.1585 53.4141 78.4868 54.9789 78.7411 56.5573L78.7474 56.5959L78.7526 56.6346C79.017 58.6005 78.9072 60.5986 78.4287 62.5237L78.4259 62.5351L78.423 62.5465C77.0469 67.9034 74.5468 72.9062 71.0887 77.2226C68.4487 80.5869 65.4294 83.5696 62.5438 86.4202C62.2076 86.7523 61.8732 87.0827 61.5415 87.4116C61.5409 87.4121 61.5404 87.4127 61.5399 87.4132L59.4276 85.2828C56.9173 87.7794 54.3794 90.2277 51.7587 92.607L127.612 16.0782ZM127.612 16.0782L123.101 15.8321C121.551 15.7475 119.972 15.6899 118.352 15.6897M127.612 16.0782L118.352 15.6897M73.4897 47.938C73.5323 47.9226 73.5758 47.9103 73.62 47.9011L73.4897 47.938ZM73.4897 47.938C73.5416 48.1211 73.5914 48.3075 73.6416 48.4954C73.6814 48.6446 73.7215 48.7948 73.7632 48.9451C73.7752 48.9885 73.7873 49.0319 73.7997 49.0753C73.7997 49.0753 73.7997 49.0753 73.7997 49.0754C73.8142 49.1264 73.8289 49.1774 73.8438 49.2284C73.8566 49.2719 73.8696 49.3153 73.8828 49.3587M73.4897 47.938L73.8176 48.8462L73.8994 49.0728L73.9897 49.3227L73.8828 49.3587M73.8828 49.3587C74.0449 49.8404 74.1994 50.3245 74.346 50.8108C74.4008 50.7961 74.455 50.779 74.5086 50.7597L73.9908 49.3258L73.8828 49.3587ZM118.352 15.6897C67.1666 15.4512 25.7253 56.9279 25.6897 108.067V108.069C25.6882 124.227 29.9252 140.103 37.9777 154.112C46.0303 168.121 57.6166 179.772 71.5801 187.903L74.7508 189.749L75.9304 186.275C77.9784 180.243 78.9479 173.904 78.8004 167.547C81.9024 166.497 84.8109 164.937 87.4047 162.927C90.3753 160.647 93.0396 157.746 94.4635 153.768C95.3469 151.435 95.5586 148.9 95.074 146.452L95.0578 146.37L95.0371 146.29C94.7914 145.331 94.4553 144.4 94.0338 143.507C94.2196 142.84 94.4122 142.143 94.5715 141.483L94.5737 141.474L94.5759 141.465C94.8635 140.239 95.0149 138.985 95.0275 137.727L95.0276 137.715L95.0276 137.703C95.0389 132.257 92.9499 127.017 89.1956 123.072C85.7043 119.34 81.3708 116.497 76.5568 114.781C69.7863 112.267 62.5264 111.351 55.3435 112.105C54.0466 112.233 52.7374 112.14 51.4714 111.831L51.4188 111.818L51.3656 111.807C50.4282 111.613 49.5646 111.159 48.8741 110.496C48.1836 109.833 47.6943 108.989 47.4625 108.06L47.4489 108.005L47.4333 107.951C47.0508 106.631 47.2456 105.169 47.9104 103.284L118.352 15.6897ZM76.823 48.6927C78.549 49.0231 80.3207 49.0865 82.0759 48.8759C85.2134 48.4859 88.2762 47.6353 91.1656 46.3518C96.9671 43.8274 102.398 40.5259 107.31 36.538L76.823 48.6927ZM75.7793 57.0346C75.4622 55.0668 75.023 53.1214 74.4644 51.2094L75.7793 57.0346Z" stroke="url(#paint0_linear_229_1859)" stroke-opacity="0.1" stroke-width="6"/>
<mask id="path-5-outside-1_229_1859" maskUnits="userSpaceOnUse" x="101.97" y="76.5737" width="113" height="125" fill="black">
<rect fill="white" x="101.97" y="76.5737" width="113" height="125"/>
<path d="M207.041 117.11C206.89 117.228 206.779 117.373 206.655 117.483C205.668 118.358 204.486 118.985 203.207 119.31C201.416 119.755 199.546 119.776 197.745 119.373C194.285 118.565 191.093 116.873 188.483 114.462C186.699 112.776 185.155 110.852 183.896 108.745C177.952 99.7105 170.552 92.1932 161.138 86.676C160.419 86.2247 159.678 85.8104 158.917 85.4346C155.696 83.938 152.365 83.076 148.779 83.8829C144.041 84.9449 140.538 87.476 138.8 92.1587C138.077 94.052 137.492 95.995 137.048 97.9725C136.36 101.385 135.917 104.842 135.724 108.317C135.551 111.028 134.367 113.575 132.407 115.455C129.276 118.614 125.952 121.504 121.931 123.538C118.782 125.157 115.858 127.181 113.234 129.559C111.407 131.146 109.988 133.149 109.096 135.4C108.534 136.954 108.19 138.579 108.076 140.228C107.469 146.538 109.455 151.904 114.331 155.959C117.924 158.817 122.205 160.682 126.745 161.366C127.069 161.387 127.386 161.473 127.677 161.617C127.968 161.762 128.228 161.962 128.441 162.207C129.012 162.846 129.719 163.348 130.51 163.676C132.529 164.647 134.822 164.89 137 164.366C141.558 163.301 145.843 161.295 149.579 158.476C150.793 157.579 152.007 156.683 153.296 155.904C155.303 154.645 157.584 153.888 159.945 153.697C160.803 153.608 161.67 153.698 162.492 153.96C163.314 154.223 164.073 154.653 164.72 155.223C165.368 155.793 165.891 156.491 166.256 157.272C166.621 158.054 166.82 158.903 166.841 159.766C166.916 161.712 166.339 163.627 165.2 165.207C163.638 167.452 161.872 169.549 159.924 171.469C157.165 174.379 154.49 177.359 152 180.504C149.504 183.61 147.938 187.359 147.483 191.317C147.363 191.705 147.314 192.112 147.338 192.517C163.436 186.937 177.607 176.876 188.183 163.518C198.76 150.16 205.302 134.06 207.041 117.11Z"/>
</mask>
<path d="M207.041 117.11C206.89 117.228 206.779 117.373 206.655 117.483C205.668 118.358 204.486 118.985 203.207 119.31C201.416 119.755 199.546 119.776 197.745 119.373C194.285 118.565 191.093 116.873 188.483 114.462C186.699 112.776 185.155 110.852 183.896 108.745C177.952 99.7105 170.552 92.1932 161.138 86.676C160.419 86.2247 159.678 85.8104 158.917 85.4346C155.696 83.938 152.365 83.076 148.779 83.8829C144.041 84.9449 140.538 87.476 138.8 92.1587C138.077 94.052 137.492 95.995 137.048 97.9725C136.36 101.385 135.917 104.842 135.724 108.317C135.551 111.028 134.367 113.575 132.407 115.455C129.276 118.614 125.952 121.504 121.931 123.538C118.782 125.157 115.858 127.181 113.234 129.559C111.407 131.146 109.988 133.149 109.096 135.4C108.534 136.954 108.19 138.579 108.076 140.228C107.469 146.538 109.455 151.904 114.331 155.959C117.924 158.817 122.205 160.682 126.745 161.366C127.069 161.387 127.386 161.473 127.677 161.617C127.968 161.762 128.228 161.962 128.441 162.207C129.012 162.846 129.719 163.348 130.51 163.676C132.529 164.647 134.822 164.89 137 164.366C141.558 163.301 145.843 161.295 149.579 158.476C150.793 157.579 152.007 156.683 153.296 155.904C155.303 154.645 157.584 153.888 159.945 153.697C160.803 153.608 161.67 153.698 162.492 153.96C163.314 154.223 164.073 154.653 164.72 155.223C165.368 155.793 165.891 156.491 166.256 157.272C166.621 158.054 166.82 158.903 166.841 159.766C166.916 161.712 166.339 163.627 165.2 165.207C163.638 167.452 161.872 169.549 159.924 171.469C157.165 174.379 154.49 177.359 152 180.504C149.504 183.61 147.938 187.359 147.483 191.317C147.363 191.705 147.314 192.112 147.338 192.517C163.436 186.937 177.607 176.876 188.183 163.518C198.76 150.16 205.302 134.06 207.041 117.11Z" fill="#48D9B9"/>
<path d="M207.041 117.11L213.01 117.723L214.437 103.813L203.373 112.363L207.041 117.11ZM206.655 117.483L210.636 121.972L210.641 121.967L206.655 117.483ZM203.207 119.31L204.652 125.134L204.67 125.129L204.687 125.125L203.207 119.31ZM197.745 119.373L196.38 125.215L196.406 125.221L196.432 125.227L197.745 119.373ZM188.483 114.462L184.361 118.823L184.387 118.847L184.412 118.87L188.483 114.462ZM183.896 108.745L189.047 105.668L188.98 105.556L188.909 105.447L183.896 108.745ZM161.138 86.676L157.947 91.7574L158.025 91.8061L158.104 91.8524L161.138 86.676ZM158.917 85.4346L161.574 80.0551L161.51 80.0234L161.446 79.9933L158.917 85.4346ZM148.779 83.8829L150.092 89.7376L150.096 89.7365L148.779 83.8829ZM138.8 92.1587L144.405 94.299L144.415 94.2728L144.425 94.2464L138.8 92.1587ZM137.048 97.9725L131.194 96.6599L131.179 96.7227L131.167 96.7858L137.048 97.9725ZM135.724 108.317L141.712 108.7L141.713 108.675L141.715 108.65L135.724 108.317ZM132.407 115.455L128.254 111.125L128.199 111.177L128.146 111.231L132.407 115.455ZM121.931 123.538L119.222 118.184L119.205 118.193L119.188 118.201L121.931 123.538ZM113.234 129.559L117.169 134.089L117.217 134.047L117.264 134.004L113.234 129.559ZM109.096 135.4L103.518 133.192L103.485 133.274L103.455 133.357L109.096 135.4ZM108.076 140.228L114.048 140.802L114.056 140.723L114.061 140.643L108.076 140.228ZM114.331 155.959L110.494 160.572L110.544 160.613L110.595 160.654L114.331 155.959ZM126.745 161.366L125.851 167.299L126.097 167.336L126.344 167.352L126.745 161.366ZM128.441 162.207L123.918 166.149L123.942 166.177L123.967 166.204L128.441 162.207ZM130.51 163.676L133.11 158.268L132.961 158.197L132.809 158.134L130.51 163.676ZM137 164.366L135.636 158.523L135.615 158.528L135.595 158.532L137 164.366ZM149.579 158.476L146.014 153.65L145.99 153.668L145.965 153.686L149.579 158.476ZM153.296 155.904L156.4 161.039L156.443 161.013L156.485 160.986L153.296 155.904ZM159.945 153.697L160.428 159.677L160.495 159.672L160.562 159.665L159.945 153.697ZM166.841 159.766L160.843 159.912L160.844 159.955L160.846 159.997L166.841 159.766ZM165.2 165.207L160.332 161.699L160.303 161.739L160.275 161.78L165.2 165.207ZM159.924 171.469L155.711 167.197L155.639 167.268L155.569 167.341L159.924 171.469ZM152 180.504L156.677 184.262L156.691 184.245L156.704 184.228L152 180.504ZM147.483 191.317L153.215 193.09L153.38 192.557L153.443 192.003L147.483 191.317ZM147.338 192.517L141.349 192.875L141.821 200.78L149.303 198.186L147.338 192.517ZM203.373 112.363C202.928 112.706 202.61 113.039 202.51 113.144C202.485 113.17 202.454 113.202 202.449 113.207C202.438 113.219 202.442 113.215 202.452 113.205C202.469 113.187 202.55 113.105 202.669 112.998L210.641 121.967C210.735 121.884 210.815 121.809 210.88 121.745C210.945 121.682 211 121.626 211.041 121.585C211.081 121.544 211.116 121.508 211.134 121.488C211.139 121.483 211.144 121.478 211.148 121.474C211.152 121.47 211.155 121.466 211.158 121.463C211.163 121.458 211.165 121.455 211.166 121.454C211.168 121.453 211.158 121.464 211.14 121.481C211.122 121.499 211.094 121.527 211.057 121.562C210.983 121.632 210.865 121.738 210.71 121.858L203.373 112.363ZM202.675 112.993C202.403 113.234 202.078 113.406 201.726 113.496L204.687 125.125C206.893 124.563 208.933 123.482 210.636 121.972L202.675 112.993ZM201.761 113.487C200.875 113.707 199.949 113.718 199.057 113.518L196.432 125.227C199.142 125.835 201.957 125.803 204.652 125.134L201.761 113.487ZM199.109 113.53C196.66 112.958 194.401 111.76 192.553 110.054L184.412 118.87C187.786 121.985 191.909 124.171 196.38 125.215L199.109 113.53ZM192.604 110.101C191.22 108.794 190.024 107.302 189.047 105.668L178.746 111.822C180.287 114.402 182.177 116.758 184.361 118.823L192.604 110.101ZM188.909 105.447C182.534 95.7588 174.492 87.5482 164.172 81.4995L158.104 91.8524C166.611 96.8382 173.369 103.662 178.884 112.043L188.909 105.447ZM164.328 81.5946C163.437 81.035 162.518 80.5211 161.574 80.0551L156.26 90.8141C156.838 91.0997 157.401 91.4145 157.947 91.7574L164.328 81.5946ZM161.446 79.9933C157.619 78.2155 152.861 76.8144 147.462 78.0292L150.096 89.7365C151.87 89.3375 153.774 89.6606 156.389 90.8759L161.446 79.9933ZM147.467 78.0282C141.136 79.4472 135.748 83.1366 133.175 90.0711L144.425 94.2464C145.327 91.8153 146.946 90.4427 150.092 89.7376L147.467 78.0282ZM133.195 90.0184C132.369 92.1812 131.7 94.4008 131.194 96.6599L142.903 99.2851C143.283 97.5892 143.785 95.9228 144.405 94.299L133.195 90.0184ZM131.167 96.7858C130.421 100.48 129.942 104.222 129.733 107.984L141.715 108.65C141.892 105.462 142.298 102.29 142.93 99.1592L131.167 96.7858ZM129.736 107.935C129.659 109.146 129.13 110.285 128.254 111.125L136.56 119.786C139.605 116.866 141.443 112.91 141.712 108.7L129.736 107.935ZM128.146 111.231C125.193 114.21 122.4 116.576 119.222 118.184L124.64 128.892C129.503 126.431 133.359 123.018 136.668 119.679L128.146 111.231ZM119.188 118.201C115.573 120.06 112.217 122.383 109.205 125.113L117.264 134.004C119.499 131.978 121.99 130.254 124.673 128.875L119.188 118.201ZM109.3 125.029C106.746 127.247 104.763 130.046 103.518 133.192L114.675 137.609C115.212 136.252 116.067 135.045 117.169 134.089L109.3 125.029ZM103.455 133.357C102.702 135.435 102.243 137.608 102.09 139.813L114.061 140.643C114.137 139.55 114.365 138.473 114.738 137.443L103.455 133.357ZM102.103 139.653C101.322 147.773 103.968 155.144 110.494 160.572L118.168 151.346C114.942 148.663 113.615 145.303 114.048 140.802L102.103 139.653ZM110.595 160.654C115.011 164.167 120.272 166.458 125.851 167.299L127.638 155.433C124.138 154.905 120.837 153.468 118.067 151.264L110.595 160.654ZM126.344 167.352C125.881 167.321 125.428 167.199 125.011 166.992L130.343 156.242C129.344 155.747 128.257 155.453 127.145 155.379L126.344 167.352ZM125.011 166.992C124.595 166.786 124.223 166.499 123.918 166.149L132.965 158.265C132.232 157.425 131.341 156.737 130.343 156.242L125.011 166.992ZM123.967 166.204C125.137 167.515 126.589 168.545 128.212 169.218L132.809 158.134C132.85 158.151 132.886 158.177 132.916 158.21L123.967 166.204ZM127.911 169.084C131.176 170.653 134.883 171.047 138.405 170.199L135.595 158.532C134.761 158.733 133.883 158.64 133.11 158.268L127.911 169.084ZM138.364 170.208C143.737 168.954 148.789 166.589 153.193 163.266L145.965 153.686C142.897 156.001 139.379 157.649 135.636 158.523L138.364 170.208ZM153.144 163.302C154.396 162.378 155.388 161.65 156.4 161.039L150.193 150.768C148.626 151.715 147.19 152.781 146.014 153.65L153.144 163.302ZM156.485 160.986C157.675 160.239 159.028 159.79 160.428 159.677L159.461 147.716C156.139 147.985 152.931 149.05 150.108 150.821L156.485 160.986ZM160.562 159.665C160.597 159.661 160.632 159.665 160.666 159.676L164.319 148.245C162.708 147.731 161.009 147.555 159.328 147.728L160.562 159.665ZM160.666 159.676C160.699 159.686 160.73 159.704 160.757 159.727L168.684 150.719C167.415 149.602 165.929 148.76 164.319 148.245L160.666 159.676ZM160.757 159.727C160.783 159.75 160.804 159.779 160.819 159.811L171.693 154.734C170.977 153.202 169.953 151.835 168.684 150.719L160.757 159.727ZM160.819 159.811C160.834 159.843 160.842 159.877 160.843 159.912L172.84 159.619C172.798 157.929 172.408 156.266 171.693 154.734L160.819 159.811ZM160.846 159.997C160.869 160.606 160.689 161.205 160.332 161.699L170.068 168.715C171.989 166.049 172.964 162.818 172.837 159.534L160.846 159.997ZM160.275 161.78C158.924 163.723 157.396 165.536 155.711 167.197L164.137 175.741C166.348 173.562 168.352 171.182 170.125 168.634L160.275 161.78ZM155.569 167.341C152.742 170.325 149.935 173.445 147.296 176.779L156.704 184.228C159.044 181.272 161.589 178.434 164.279 175.597L155.569 167.341ZM147.323 176.745C144.118 180.734 142.107 185.548 141.522 190.632L153.443 192.003C153.769 189.169 154.89 186.485 156.677 184.262L147.323 176.745ZM141.751 189.545C141.417 190.622 141.281 191.75 141.349 192.875L153.327 192.159C153.346 192.474 153.308 192.789 153.215 193.09L141.751 189.545ZM149.303 198.186C166.481 192.232 181.602 181.496 192.887 167.243L183.479 159.794C173.612 172.256 160.392 181.642 145.373 186.848L149.303 198.186ZM192.887 167.243C204.173 152.989 211.154 135.809 213.01 117.723L201.073 116.498C199.45 132.311 193.346 147.331 183.479 159.794L192.887 167.243Z" fill="url(#paint1_linear_229_1859)" fill-opacity="0.1" mask="url(#path-5-outside-1_229_1859)"/>
<path d="M191.138 82.9794C194.586 89.4001 199.883 93.6553 206.724 96.4277C205.039 83.6894 200.635 71.4623 193.811 60.5749C186.986 49.6874 177.902 40.3939 167.172 33.3242C167.386 33.6897 167.586 34.0139 167.779 34.3932C169.488 37.2158 170.728 40.2973 171.448 43.5173C172.138 47.138 171.531 50.3518 168.91 53.069C168.043 54.0008 167.256 55.0044 166.559 56.0691C165.826 57.1221 165.328 58.321 165.101 59.5838C164.874 60.8467 164.922 62.1437 165.241 63.3863C166.012 67.0075 167.805 70.3319 170.407 72.9656C175.505 78.0766 182.069 81.473 189.186 82.6828C189.847 82.6963 190.503 82.796 191.138 82.9794Z" fill="#48D9B9"/>
<path d="M165.213 35.947C166.745 38.4777 167.859 41.2392 168.51 44.1248C169.046 46.9876 168.543 49.1287 166.751 50.9864L166.733 51.0056L166.714 51.0251C165.741 52.0712 164.857 53.1971 164.072 54.391C163.105 55.7897 162.45 57.379 162.148 59.0523C161.849 60.7185 161.907 62.4291 162.32 64.0705C163.217 68.2295 165.282 72.0469 168.273 75.0741L168.278 75.0792L168.283 75.0843C173.822 80.6366 180.952 84.3261 188.683 85.6404L188.903 85.6777L189.125 85.6822C189.158 85.6829 189.191 85.6839 189.224 85.6853C193.058 92.1061 198.676 96.403 205.597 99.208L210.374 101.144L209.698 96.0341C207.956 82.8696 203.405 70.2334 196.352 58.9816C189.3 47.7298 179.912 38.1254 168.823 30.8191L164.583 34.8389C164.646 34.9473 164.702 35.0411 164.751 35.1252C164.902 35.3809 165 35.5463 165.106 35.7542L165.156 35.8526L165.213 35.947Z" stroke="url(#paint2_linear_229_1859)" stroke-opacity="0.1" stroke-width="6"/>
<path d="M117.938 197.441C124.127 197.45 130.3 196.817 136.359 195.552C135.14 194.514 133.829 193.591 132.442 192.793C130.744 191.754 128.804 191.177 126.814 191.117C124.999 191.154 123.204 190.734 121.593 189.897C118.538 188.31 115.145 187.828 111.731 187.738C104.542 187.618 97.435 189.276 91.0415 192.566C90.7644 192.668 90.5093 192.823 90.2898 193.021C99.2143 195.946 108.546 197.439 117.938 197.441Z" fill="#48D9B9"/>
<path d="M111.781 184.738C104.147 184.611 96.5984 186.36 89.7991 189.831L117.934 200.441C117.935 200.441 117.935 200.441 117.936 200.441C124.332 200.45 130.711 199.796 136.972 198.489L142.964 197.238L138.304 193.268C136.956 192.12 135.505 191.097 133.971 190.212C131.836 188.914 129.401 188.193 126.903 188.119L126.829 188.116L126.754 188.118C125.441 188.144 124.142 187.841 122.977 187.235L122.976 187.234C119.338 185.346 115.421 184.834 111.81 184.739L111.796 184.739L111.781 184.738Z" stroke="url(#paint3_linear_229_1859)" stroke-opacity="0.1" stroke-width="6"/>
<g style="mix-blend-mode:multiply">
<path d="M174.71 38.8828C188.797 56.0299 196.001 77.8036 194.922 99.9684C193.843 122.133 184.558 143.104 168.873 158.802C153.188 174.5 132.225 183.802 110.061 184.9C87.897 185.997 66.1174 178.81 48.9587 164.738C56.8754 174.39 66.7258 182.277 77.8757 187.891C89.0255 193.505 101.228 196.722 113.696 197.333C126.165 197.945 138.623 195.939 150.269 191.443C161.915 186.948 172.49 180.063 181.313 171.232C190.137 162.401 197.013 151.821 201.499 140.171C205.985 128.521 207.981 116.061 207.359 103.593C206.737 91.1254 203.511 78.926 197.887 67.7807C192.264 56.6354 184.369 46.7915 174.71 38.8828Z" fill="#EAEAEA"/>
</g>
<defs>
<filter id="filter0_dd_229_1859" x="0.689697" y="0.688721" width="234.807" height="234.753" filterUnits="userSpaceOnUse" color-interpolation-filters="sRGB">
<feFlood flood-opacity="0" result="BackgroundImageFix"/>
<feColorMatrix in="SourceAlpha" type="matrix" values="0 0 0 0 0 0 0 0 0 0 0 0 0 0 0 0 0 0 127 0" result="hardAlpha"/>
<feOffset dy="10"/>
<feGaussianBlur stdDeviation="14"/>
<feComposite in2="hardAlpha" operator="out"/>
<feColorMatrix type="matrix" values="0 0 0 0 0.282353 0 0 0 0 0.85098 0 0 0 0 0.72549 0 0 0 1 0"/>
<feBlend mode="normal" in2="BackgroundImageFix" result="effect1_dropShadow_229_1859"/>
<feColorMatrix in="SourceAlpha" type="matrix" values="0 0 0 0 0 0 0 0 0 0 0 0 0 0 0 0 0 0 127 0" result="hardAlpha"/>
<feOffset dy="5"/>
<feGaussianBlur stdDeviation="7"/>
<feComposite in2="hardAlpha" operator="out"/>
<feColorMatrix type="matrix" values="0 0 0 0 0 0 0 0 0 0 0 0 0 0 0 0 0 0 0.15 0"/>
<feBlend mode="normal" in2="effect1_dropShadow_229_1859" result="effect2_dropShadow_229_1859"/>
<feBlend mode="normal" in="SourceGraphic" in2="effect2_dropShadow_229_1859" result="shape"/>
</filter>
<linearGradient id="paint0_linear_229_1859" x1="75.8138" y1="18.6887" x2="75.8138" y2="185.31" gradientUnits="userSpaceOnUse">
<stop stop-color="white"/>
<stop offset="1" stop-color="white" stop-opacity="0"/>
</linearGradient>
<linearGradient id="paint1_linear_229_1859" x1="157.506" y1="83.5737" x2="157.506" y2="192.517" gradientUnits="userSpaceOnUse">
<stop stop-color="white"/>
<stop offset="1" stop-color="white" stop-opacity="0"/>
</linearGradient>
<linearGradient id="paint2_linear_229_1859" x1="185.842" y1="33.3242" x2="185.842" y2="96.4277" gradientUnits="userSpaceOnUse">
<stop stop-color="white"/>
<stop offset="1" stop-color="white" stop-opacity="0"/>
</linearGradient>
<linearGradient id="paint3_linear_229_1859" x1="113.324" y1="187.732" x2="113.324" y2="197.442" gradientUnits="userSpaceOnUse">
<stop stop-color="white"/>
<stop offset="1" stop-color="white" stop-opacity="0"/>
</linearGradient>
</defs>
</svg>
