<svg width="300" height="329" viewBox="0 0 300 329" fill="none" xmlns="http://www.w3.org/2000/svg">
<path d="M149.87 72.8194C189.5 72.8194 225.352 83.1212 251.279 99.7475C277.212 116.378 293.152 139.285 293.152 164.501C293.152 189.717 277.212 212.624 251.279 229.255C225.352 245.881 189.5 256.183 149.87 256.183C110.24 256.183 74.3886 245.881 48.4615 229.255C22.5282 212.624 6.58875 189.717 6.58875 164.501C6.58875 139.285 22.5282 116.378 48.4615 99.7475C74.3886 83.1212 110.24 72.8194 149.87 72.8194Z" stroke="#1AA5E2" stroke-width="1.11695"/>
<path d="M240.475 209.139C224.226 242.055 199.371 266.825 172.345 280.274C145.32 293.724 116.156 295.843 91.2233 283.535C66.2908 271.226 50.239 246.786 44.4822 217.153C38.7253 187.519 43.2747 152.725 59.5246 119.809C75.7744 86.8925 100.629 62.123 127.655 48.6732C154.68 35.2237 183.844 33.1044 208.777 45.4128C233.709 57.7212 249.761 82.162 255.518 111.795C261.275 141.428 256.725 176.222 240.475 209.139Z" stroke="#1AA5E2" stroke-width="1.11695"/>
<g clip-path="url(#clip0_86_2115)">
<path d="M100.035 101.43C85.3062 100.705 73.5859 88.5331 73.5859 73.625C73.5859 58.9681 84.9114 46.959 99.2861 45.8676C99.7625 46.5364 100.037 47.2885 100.037 48.1532C100.037 54.8258 83.7221 54.8258 83.7221 61.4984C83.7221 68.171 100.037 68.171 100.037 74.8437C100.037 81.5163 83.7221 81.5163 83.7221 88.1889C83.7221 94.8272 99.8685 94.8615 100.035 101.43Z" fill="#DB2B19"/>
<path d="M100.035 101.43C99.8686 94.8619 83.7222 94.8276 83.7222 88.1893C83.7222 81.5167 100.037 81.5167 100.037 74.844C100.037 68.1714 83.7222 68.1714 83.7222 61.4988C83.7222 54.8262 100.037 54.8262 100.037 48.1536C100.037 47.2889 99.7625 46.5368 99.2862 45.8679C99.9926 45.8141 100.706 45.7864 101.425 45.7864C107.691 45.7864 113.473 47.8567 118.126 51.3496C113.726 53.1768 108.907 54.8327 108.907 58.4594C108.907 65.1321 125.221 65.1321 125.221 71.8047C125.221 78.4773 108.907 78.4773 108.907 85.1499C108.907 89.5727 116.074 91.0639 120.908 93.5094C115.888 98.4299 109.01 101.464 101.425 101.464C100.958 101.464 100.495 101.453 100.035 101.43Z" fill="#F24125"/>
<path d="M108.906 58.4593C108.906 54.8326 113.725 53.1767 118.125 51.3495C124.888 56.4282 129.263 64.5153 129.263 73.6252C129.263 81.4154 126.064 88.4567 120.907 93.5093C116.073 91.0638 108.906 89.5726 108.906 85.1498C108.906 78.4772 125.22 78.4772 125.22 71.8046C125.22 65.1319 108.906 65.1319 108.906 58.4593Z" fill="#FC7365"/>
<path d="M117.064 79.2933C116.743 79.2933 116.438 79.1021 116.309 78.7863C116.138 78.3693 116.338 77.893 116.755 77.7224C120.469 76.2035 124.308 74.6331 124.308 71.8048C124.308 69.0149 120.615 67.4953 116.705 65.8866C112.47 64.1442 108.091 62.3424 108.091 58.4596C108.091 54.5754 112.496 52.7735 116.756 51.0311C117.109 50.8866 117.462 50.742 117.813 50.5963C118.229 50.4234 118.707 50.6208 118.879 51.0368C119.052 51.4528 118.855 51.9302 118.439 52.103C118.085 52.2496 117.729 52.3953 117.374 52.541C113.439 54.1504 109.723 55.6706 109.723 58.4596C109.723 61.2495 113.416 62.769 117.326 64.3778C121.561 66.1202 125.94 67.9221 125.94 71.8048C125.94 75.7286 121.388 77.5901 117.373 79.2325C117.272 79.2737 117.167 79.2933 117.064 79.2933Z" fill="#333333"/>
<path d="M113.505 80.8386C113.204 80.8386 112.914 80.6706 112.772 80.3815C112.574 79.9769 112.741 79.4883 113.146 79.2902C113.545 79.0948 113.978 78.8951 114.469 78.6796C114.881 78.4985 115.362 78.6863 115.543 79.0987C115.724 79.5113 115.537 79.9924 115.124 80.1735C114.654 80.3797 114.242 80.5701 113.863 80.7554C113.748 80.8119 113.626 80.8386 113.505 80.8386Z" fill="#333333"/>
<path d="M120.907 94.3252C120.783 94.3252 120.657 94.297 120.539 94.2371C119.381 93.6513 118.047 93.1055 116.756 92.5776C112.496 90.8355 108.091 89.0341 108.091 85.1496C108.091 83.359 109.046 81.8398 111.01 80.5049C111.382 80.2517 111.89 80.3484 112.143 80.7209C112.396 81.0935 112.299 81.6009 111.927 81.8541C110.423 82.8762 109.723 83.9234 109.723 85.1496C109.723 87.9386 113.439 89.4584 117.373 91.0675C118.694 91.6075 120.06 92.166 121.276 92.7814C121.678 92.9848 121.839 93.4755 121.635 93.8775C121.492 94.1616 121.205 94.3252 120.907 94.3252Z" fill="#333333"/>
<path d="M100.035 102.247C99.5939 102.247 99.2311 101.895 99.2198 101.452C99.1507 98.7175 95.2977 97.1418 91.5718 95.618C88.1705 94.2271 84.6536 92.7888 83.393 90.2604C83.192 89.8572 83.3558 89.3675 83.7591 89.1663C84.1624 88.9653 84.6522 89.1291 84.8532 89.5324C85.8399 91.5112 89.0677 92.8314 92.1894 94.108C96.4004 95.8301 100.755 97.6107 100.851 101.41C100.862 101.861 100.507 102.235 100.056 102.246C100.049 102.247 100.042 102.247 100.035 102.247Z" fill="#333333"/>
<path d="M83.9049 87.8287C83.8215 87.8287 83.7365 87.8158 83.653 87.7886C83.2246 87.6494 82.9898 87.1894 83.129 86.761C84.0822 83.8239 87.8889 82.267 91.5701 80.7613C95.5043 79.1522 99.2204 77.6324 99.2204 74.8437C99.2204 73.3141 98.136 72.0569 95.7041 70.7672C95.3061 70.5563 95.1545 70.0625 95.3656 69.6644C95.5769 69.2665 96.0706 69.1149 96.4685 69.3259C98.3502 70.3236 100.852 71.9814 100.852 74.8436C100.852 78.7276 96.4474 80.529 92.1879 82.2712C88.8511 83.6359 85.4006 85.0473 84.681 87.2644C84.5687 87.6095 84.2488 87.8287 83.9049 87.8287Z" fill="#333333"/>
<path d="M93.4759 69.6478C93.3699 69.6478 93.262 69.6271 93.1583 69.5831C92.635 69.3615 92.1027 69.1439 91.5704 68.9261C87.3108 67.184 82.9062 65.3826 82.9062 61.4986C82.9062 57.6146 87.3108 55.8132 91.5704 54.071C95.5046 52.4619 99.2207 50.942 99.2207 48.1534C99.2207 47.4998 99.0248 46.9069 98.6216 46.3408C98.3603 45.9739 98.4459 45.4646 98.8128 45.2032C99.1796 44.9419 99.6889 45.0275 99.9504 45.3944C100.549 46.2346 100.852 47.1628 100.852 48.1532C100.852 52.0372 96.4476 53.8386 92.188 55.5809C88.2538 57.1901 84.5377 58.71 84.5377 61.4986C84.5377 64.2872 88.2538 65.8071 92.188 67.4162C92.7266 67.6364 93.2651 67.8567 93.7944 68.0807C94.2092 68.2564 94.4032 68.735 94.2275 69.1499C94.0958 69.461 93.7937 69.6478 93.4759 69.6478Z" fill="#333333"/>
<path opacity="0.25" d="M103.808 99.9488C100.552 98.7986 97.5726 97.0579 95.0014 94.8571C89.032 89.7506 85.2487 82.1644 85.2487 73.694C85.2487 66.1828 88.2244 59.365 93.06 54.3581C95.7242 51.5993 98.9528 49.3887 102.56 47.9139C104.064 47.2996 105.635 46.8146 107.257 46.4689C105.376 46.0679 103.425 45.855 101.425 45.855C97.6987 45.855 94.1454 46.5875 90.8972 47.9139C87.2901 49.3887 84.0615 51.5993 81.3973 54.3581C76.5617 59.365 73.5859 66.1828 73.5859 73.694C73.5859 82.1644 77.3693 89.7506 83.3387 94.8571C85.9099 97.0579 88.8889 98.7986 92.1453 99.9488C95.0476 100.975 98.1718 101.533 101.425 101.533C103.424 101.533 105.374 101.321 107.255 100.92C106.076 100.669 104.926 100.344 103.808 99.9488Z" fill="black"/>
<path d="M113.611 53.552C113.463 53.552 113.314 53.5117 113.179 53.4275C112.216 52.8242 111.202 52.2863 110.165 51.8289C109.753 51.647 109.566 51.1654 109.748 50.7533C109.93 50.3413 110.412 50.1544 110.824 50.3364C111.932 50.8255 113.016 51.4003 114.045 52.045C114.427 52.2842 114.542 52.7875 114.303 53.1694C114.148 53.4164 113.883 53.552 113.611 53.552Z" fill="white"/>
<path d="M117.379 92.3388C117.161 92.3388 116.944 92.252 116.783 92.0804C116.475 91.7514 116.493 91.2352 116.822 90.9275C121.705 86.3583 124.395 80.1973 124.395 73.5797C124.395 67.1159 121.676 60.8316 116.934 56.3379C116.607 56.0279 116.594 55.5117 116.904 55.1846C117.213 54.8577 117.73 54.8438 118.057 55.1536C123.122 59.9538 126.027 66.6698 126.027 73.5795C126.027 80.6536 123.153 87.2376 117.936 92.1186C117.779 92.2659 117.579 92.3388 117.379 92.3388Z" fill="white"/>
<path d="M113.948 95.0247C113.681 95.0247 113.419 94.8937 113.263 94.6531C113.017 94.2752 113.125 93.77 113.503 93.5248C113.919 93.2548 114.332 92.968 114.73 92.6722C115.092 92.4036 115.603 92.4795 115.872 92.841C116.14 93.2029 116.064 93.7137 115.703 93.9822C115.277 94.2982 114.836 94.6048 114.391 94.8932C114.254 94.9821 114.1 95.0247 113.948 95.0247Z" fill="white"/>
<path d="M101.425 102.28C100.947 102.28 100.466 102.268 99.9946 102.245C84.7285 101.494 72.77 88.923 72.77 73.6254C72.77 66.3547 75.4968 59.4217 80.4483 54.1039C85.3738 48.8137 92.042 45.6 99.2242 45.0546C99.955 44.9989 100.695 44.9707 101.425 44.9707C107.681 44.9707 113.625 46.951 118.616 50.6972C122.097 53.3118 124.981 56.7377 126.957 60.6047C129.029 64.6596 130.079 69.0406 130.079 73.6254C130.079 81.3895 127.025 88.658 121.478 94.0921C116.092 99.3722 108.97 102.28 101.425 102.28ZM101.425 46.6021C100.737 46.6021 100.038 46.6287 99.3479 46.6814C92.5754 47.1957 86.2875 50.2264 81.6423 55.2157C76.9729 60.2306 74.4015 66.7686 74.4015 73.6254C74.4015 88.052 85.6785 99.9073 100.075 100.615H100.075C100.52 100.637 100.974 100.649 101.425 100.649C108.54 100.649 115.256 97.9064 120.336 92.9269C125.567 87.802 128.448 80.9473 128.448 73.6254C128.448 69.3011 127.458 65.17 125.504 61.347C123.641 57.6997 120.92 54.4683 117.636 52.0019C112.93 48.4693 107.324 46.6021 101.425 46.6021Z" fill="#333333"/>
</g>
<g clip-path="url(#clip1_86_2115)">
<path d="M123.91 262.569C120.413 272.425 146.528 265.516 146.505 272.627C150.616 267.872 153.103 261.674 153.103 254.896C153.103 246.777 149.535 239.49 143.883 234.52H143.881C143.881 234.52 126.453 235.068 126.453 242.698C126.453 250.329 149.663 244.288 147.755 251.918C145.847 259.549 127.407 252.713 123.91 262.569Z" fill="#20CE55"/>
<path d="M112.464 268.768C116.28 254.461 101.337 255.733 101.655 250.487C101.973 245.241 112.782 250.646 113.895 244.287C115.008 237.929 106.463 236.056 106.463 236.056L106.462 236.054C101.75 240.933 98.8506 247.576 98.8506 254.895C98.8506 263.149 102.537 270.541 108.354 275.516C110.248 273.76 111.722 271.55 112.464 268.768Z" fill="#20CE55"/>
<path d="M115.718 229.775C112.203 231.212 109.057 233.366 106.462 236.054L106.463 236.056C106.463 236.056 115.008 237.928 113.895 244.287C112.782 250.646 101.972 245.241 101.654 250.487C101.336 255.733 116.279 254.461 112.464 268.768C111.722 271.55 110.248 273.759 108.353 275.516C110.859 277.66 113.761 279.356 116.934 280.477V280.476C126.493 273.742 135.489 280.304 135.489 280.304V280.306C139.782 278.698 143.561 276.033 146.505 272.626C146.527 265.515 120.412 272.424 123.91 262.568C127.407 252.712 145.847 259.548 147.755 251.917C149.662 244.287 126.453 250.328 126.453 242.697C126.453 235.067 143.881 234.518 143.881 234.518C141.668 232.571 139.134 230.978 136.369 229.832V229.834C136.369 229.834 127.719 235.933 115.72 229.778L115.718 229.775Z" fill="#1AA5E2"/>
<path d="M146.505 273.422C146.505 273.422 146.504 273.422 146.503 273.422C146.064 273.42 145.709 273.063 145.711 272.624C145.718 270.128 140.495 269.818 135.444 269.518C134.79 269.479 134.134 269.44 133.484 269.396C133.046 269.367 132.715 268.988 132.745 268.55C132.774 268.112 133.152 267.781 133.591 267.81C134.236 267.854 134.888 267.892 135.538 267.931C138.43 268.103 141.162 268.265 143.293 268.812C145.958 269.496 147.306 270.781 147.3 272.629C147.299 273.067 146.943 273.422 146.505 273.422Z" fill="#333333"/>
<path d="M131.157 269.202C131.13 269.202 131.103 269.201 131.076 269.198C130.578 269.147 130.125 269.094 129.692 269.034C129.257 268.973 128.953 268.572 129.013 268.137C129.074 267.702 129.474 267.399 129.91 267.459C130.324 267.516 130.758 267.568 131.237 267.617C131.674 267.661 131.992 268.051 131.947 268.488C131.905 268.897 131.56 269.202 131.157 269.202Z" fill="#333333"/>
<path d="M126.634 268.348C126.549 268.348 126.463 268.334 126.378 268.306C124.732 267.747 123.678 266.949 123.153 265.867C122.671 264.873 122.674 263.673 123.16 262.302C125.188 256.589 131.64 256.027 137.332 255.53C138.335 255.443 139.282 255.36 140.201 255.252C140.636 255.201 141.032 255.513 141.083 255.949C141.134 256.385 140.822 256.78 140.386 256.831C139.444 256.942 138.485 257.025 137.47 257.114C132 257.591 126.344 258.084 124.658 262.834C124.315 263.803 124.29 264.568 124.584 265.173C124.913 265.853 125.667 266.385 126.889 266.8C127.305 266.942 127.528 267.393 127.386 267.809C127.274 268.14 126.965 268.348 126.634 268.348Z" fill="#333333"/>
<path d="M145.146 255.685C144.848 255.685 144.562 255.517 144.427 255.229C144.24 254.832 144.41 254.359 144.807 254.171C146.018 253.6 146.709 252.823 146.984 251.726C147.198 250.869 146.978 250.432 146.794 250.178C145.699 248.668 141.444 248.364 137.689 248.096C134.897 247.897 132.01 247.691 129.797 247.039C127.051 246.231 125.658 244.771 125.658 242.699C125.658 234.393 143.113 233.749 143.856 233.725L143.881 233.725C144.32 233.725 144.676 234.081 144.676 234.52C144.676 234.953 144.33 235.305 143.899 235.314C143.707 235.321 139.487 235.482 135.339 236.524C131.648 237.451 127.248 239.275 127.248 242.699C127.248 245.757 132.613 246.14 137.802 246.51C142.302 246.832 146.552 247.135 148.081 249.245C148.654 250.035 148.804 251 148.526 252.111C148.138 253.664 147.114 254.841 145.484 255.609C145.375 255.661 145.26 255.685 145.146 255.685Z" fill="#333333"/>
<path d="M108.353 276.311C108.14 276.311 107.927 276.226 107.77 276.057C107.472 275.735 107.491 275.232 107.813 274.934C109.738 273.149 111.044 271.006 111.696 268.563C113.036 263.536 112.179 260.154 108.915 257.598C108.57 257.327 108.509 256.827 108.78 256.482C109.05 256.136 109.55 256.076 109.896 256.346C113.679 259.31 114.739 263.322 113.232 268.973C112.501 271.71 111.042 274.108 108.893 276.099C108.74 276.241 108.546 276.311 108.353 276.311Z" fill="#333333"/>
<path d="M106.731 256.036C106.599 256.036 106.465 256.003 106.342 255.934C106.015 255.75 105.69 255.573 105.372 255.4C102.977 254.093 100.714 252.858 100.861 250.439C100.949 248.978 101.714 247.989 103.135 247.497C104.242 247.114 105.603 247.07 107.044 247.023C110.526 246.911 112.672 246.662 113.111 244.15C113.51 241.872 112.532 239.964 110.203 238.479C108.347 237.296 106.312 236.837 106.292 236.832C105.864 236.737 105.593 236.314 105.687 235.885C105.781 235.457 106.205 235.186 106.633 235.28C106.726 235.3 108.93 235.793 111.021 237.115C113.928 238.954 115.193 241.481 114.677 244.424C113.983 248.39 110.164 248.513 107.095 248.612C103.939 248.714 102.545 248.927 102.448 250.535C102.366 251.878 103.795 252.728 106.134 254.004C106.457 254.181 106.787 254.361 107.121 254.548C107.504 254.763 107.64 255.248 107.425 255.63C107.279 255.89 107.009 256.036 106.731 256.036Z" fill="#333333"/>
<path opacity="0.25" d="M109.988 254.895C109.988 252.057 110.426 249.322 111.234 246.751C111.947 246.969 112.703 247.087 113.487 247.087C117.728 247.087 121.165 243.649 121.165 239.409C121.165 237.504 120.471 235.763 119.323 234.421C122.751 231.441 126.932 229.304 131.545 228.342C129.747 227.966 127.886 227.769 125.976 227.769C121.555 227.769 117.382 228.827 113.694 230.703C113.318 230.647 112.933 230.617 112.542 230.617C108.451 230.617 105.108 233.816 104.877 237.849C101.109 242.507 98.8506 248.437 98.8506 254.895C98.8506 269.876 110.996 282.021 125.977 282.021C127.886 282.021 129.747 281.824 131.545 281.447C119.235 278.879 109.988 267.966 109.988 254.895Z" fill="black"/>
<path d="M116.935 281.271C116.685 281.271 116.439 281.154 116.284 280.934C116.032 280.575 116.117 280.079 116.476 279.827C121.681 276.16 126.728 276.324 130.045 277.107C130.472 277.208 130.737 277.636 130.636 278.064C130.535 278.491 130.106 278.755 129.679 278.654C125.316 277.624 121.182 278.456 117.392 281.126C117.253 281.224 117.093 281.271 116.935 281.271Z" fill="#333333"/>
<path d="M135.488 281.1C135.326 281.1 135.162 281.05 135.021 280.947C134.999 280.931 133.81 280.079 131.893 279.34C131.483 279.183 131.279 278.723 131.437 278.313C131.595 277.903 132.055 277.699 132.465 277.857C134.6 278.68 135.903 279.623 135.957 279.662C136.312 279.921 136.39 280.418 136.131 280.773C135.975 280.987 135.733 281.1 135.488 281.1Z" fill="#333333"/>
<path d="M126.492 233.317C123.388 233.317 119.574 232.649 115.357 230.486L116.083 229.071C120.866 231.525 125.652 232.292 130.308 231.352C133.789 230.648 135.892 229.198 135.913 229.184L136.827 230.484C136.734 230.55 134.486 232.113 130.705 232.893C129.521 233.137 128.102 233.317 126.492 233.317Z" fill="#333333"/>
<path d="M125.976 282.816C122.783 282.816 119.651 282.281 116.669 281.227C113.431 280.083 110.459 278.364 107.836 276.12C101.62 270.802 98.0552 263.066 98.0552 254.895C98.0552 247.62 100.837 240.733 105.89 235.502C108.608 232.687 111.814 230.513 115.417 229.039C118.773 227.669 122.326 226.974 125.976 226.974C129.683 226.974 133.282 227.689 136.674 229.098C139.497 230.269 142.099 231.891 144.405 233.922L143.355 235.115C141.18 233.201 138.727 231.67 136.065 230.566C132.867 229.237 129.473 228.564 125.976 228.564C122.533 228.564 119.183 229.219 116.018 230.511C112.62 231.9 109.597 233.951 107.033 236.606C102.269 241.539 99.6447 248.034 99.6447 254.895C99.6447 262.601 103.007 269.897 108.869 274.912C111.343 277.029 114.145 278.649 117.199 279.728C120.01 280.722 122.963 281.226 125.976 281.226C129.156 281.226 132.263 280.666 135.209 279.561C139.32 278.022 143.018 275.445 145.903 272.106C150.033 267.33 152.307 261.217 152.307 254.895C152.307 247.326 149.045 240.117 143.357 235.115L144.407 233.921C150.438 239.225 153.897 246.869 153.897 254.895C153.897 261.599 151.485 268.081 147.106 273.146C144.047 276.685 140.126 279.418 135.767 281.05C132.642 282.222 129.348 282.816 125.976 282.816Z" fill="#333333"/>
<path d="M105.061 241.842C109.302 241.842 112.74 238.404 112.74 234.163C112.74 229.922 109.302 226.484 105.061 226.484C100.82 226.484 97.3823 229.922 97.3823 234.163C97.3823 238.404 100.82 241.842 105.061 241.842Z" fill="#FCBC1D"/>
<path opacity="0.25" d="M97.3823 234.162C97.3823 238.403 100.819 241.842 105.06 241.842C105.719 241.842 106.359 241.759 106.968 241.603C103.65 240.755 101.198 237.745 101.198 234.162C101.198 230.579 103.65 227.571 106.968 226.723C106.359 226.567 105.719 226.484 105.06 226.484C100.819 226.484 97.3823 229.921 97.3823 234.162Z" fill="black"/>
<path opacity="0.47" d="M104.197 236.735C104.197 237.699 104.951 238.486 105.9 238.54C105.63 238.225 105.469 237.816 105.469 237.371C105.469 236.373 106.278 235.564 107.276 235.564C107.311 235.564 107.346 235.565 107.381 235.567C107.052 235.176 106.558 234.928 106.005 234.928C105.006 234.928 104.197 235.737 104.197 236.735Z" fill="black"/>
<path d="M106.005 239.339C104.57 239.339 103.403 238.171 103.403 236.737C103.403 235.302 104.57 234.135 106.005 234.135C107.44 234.135 108.607 235.302 108.607 236.737C108.607 237.176 108.251 237.532 107.812 237.532C107.373 237.532 107.017 237.176 107.017 236.737C107.017 236.179 106.563 235.724 106.005 235.724C105.447 235.724 104.992 236.179 104.992 236.737C104.992 237.295 105.447 237.749 106.005 237.749C106.444 237.749 106.8 238.105 106.8 238.544C106.8 238.983 106.444 239.339 106.005 239.339Z" fill="#333333"/>
<path d="M104.796 233.476C104.743 233.476 104.692 233.472 104.64 233.46C104.589 233.451 104.54 233.435 104.492 233.416C104.444 233.395 104.398 233.371 104.354 233.343C104.311 233.314 104.271 233.281 104.233 233.244C104.085 233.096 104.001 232.891 104.001 232.681C104.001 232.631 104.006 232.578 104.017 232.527C104.026 232.476 104.042 232.426 104.061 232.378C104.082 232.33 104.106 232.284 104.135 232.241C104.163 232.197 104.197 232.157 104.233 232.12C104.271 232.084 104.311 232.05 104.354 232.02C104.398 231.992 104.444 231.968 104.492 231.949C104.54 231.928 104.589 231.912 104.64 231.903C104.899 231.85 105.173 231.934 105.359 232.12C105.395 232.157 105.427 232.197 105.457 232.241C105.486 232.284 105.51 232.33 105.53 232.378C105.549 232.426 105.565 232.476 105.575 232.527C105.586 232.578 105.591 232.631 105.591 232.681C105.591 232.891 105.506 233.096 105.359 233.244C105.209 233.392 105.006 233.476 104.796 233.476Z" fill="#333333"/>
<path d="M104.357 230.14C104.149 230.14 103.944 230.056 103.796 229.908C103.759 229.872 103.726 229.83 103.697 229.787C103.669 229.744 103.643 229.698 103.624 229.651C103.603 229.601 103.589 229.552 103.578 229.501C103.568 229.45 103.562 229.398 103.562 229.345C103.562 229.295 103.568 229.242 103.578 229.191C103.589 229.14 103.603 229.09 103.624 229.042C103.643 228.994 103.669 228.948 103.697 228.905C103.726 228.861 103.759 228.821 103.796 228.784C103.832 228.748 103.872 228.714 103.917 228.686C103.959 228.657 104.006 228.632 104.053 228.613C104.101 228.592 104.152 228.578 104.203 228.567C104.304 228.546 104.411 228.546 104.513 228.567C104.563 228.578 104.613 228.592 104.662 228.613C104.71 228.632 104.756 228.657 104.799 228.686C104.842 228.714 104.883 228.748 104.92 228.784C104.956 228.821 104.99 228.861 105.018 228.905C105.047 228.948 105.072 228.994 105.091 229.042C105.112 229.09 105.126 229.14 105.137 229.191C105.147 229.242 105.152 229.295 105.152 229.345C105.152 229.555 105.067 229.76 104.92 229.908C104.772 230.056 104.567 230.14 104.357 230.14Z" fill="#333333"/>
<path d="M101.495 232.524C101.287 232.524 101.082 232.439 100.934 232.291C100.786 232.144 100.7 231.939 100.7 231.729C100.7 231.52 100.786 231.315 100.934 231.168C101.082 231.02 101.287 230.934 101.495 230.934C101.705 230.934 101.91 231.02 102.058 231.168C102.206 231.315 102.29 231.52 102.29 231.729C102.29 231.939 102.206 232.144 102.058 232.291C101.91 232.439 101.705 232.524 101.495 232.524Z" fill="#333333"/>
<path d="M138.652 235.381C138.507 235.381 138.362 235.342 138.231 235.26C137.292 234.672 136.304 234.148 135.294 233.702C134.893 233.525 134.711 233.056 134.888 232.654C135.065 232.253 135.534 232.071 135.936 232.248C137.016 232.725 138.072 233.285 139.074 233.913C139.446 234.146 139.559 234.636 139.326 235.009C139.175 235.249 138.916 235.381 138.652 235.381Z" fill="white"/>
<path d="M142.323 273.174C142.111 273.174 141.899 273.089 141.743 272.922C141.443 272.601 141.46 272.099 141.78 271.799C146.45 267.43 149.128 261.269 149.128 254.895C149.128 248.485 146.557 242.519 141.89 238.095C141.571 237.793 141.558 237.29 141.86 236.971C142.162 236.653 142.665 236.639 142.983 236.941C147.971 241.668 150.718 248.044 150.718 254.895C150.718 261.707 147.856 268.291 142.866 272.959C142.713 273.103 142.518 273.174 142.323 273.174Z" fill="white"/>
<path d="M138.98 275.791C138.72 275.791 138.465 275.663 138.313 275.429C138.074 275.061 138.178 274.568 138.547 274.329C138.951 274.066 139.354 273.787 139.743 273.498C140.095 273.237 140.593 273.31 140.855 273.663C141.116 274.016 141.042 274.513 140.69 274.775C140.274 275.083 139.845 275.382 139.412 275.663C139.278 275.749 139.128 275.791 138.98 275.791Z" fill="white"/>
<path d="M108.918 238.814C108.714 238.814 108.511 238.736 108.356 238.581C108.045 238.271 108.045 237.768 108.356 237.457C109.45 236.363 109.927 234.798 109.632 233.272C109.549 232.841 109.831 232.424 110.262 232.34C110.692 232.257 111.11 232.539 111.193 232.97C111.588 235.015 110.948 237.113 109.48 238.581C109.325 238.736 109.121 238.814 108.918 238.814Z" fill="white"/>
<path d="M108.917 231.103C108.866 231.103 108.814 231.096 108.763 231.087C108.712 231.077 108.661 231.061 108.613 231.041C108.566 231.022 108.519 230.996 108.477 230.968C108.432 230.939 108.392 230.906 108.356 230.869C108.208 230.721 108.122 230.518 108.122 230.308C108.122 230.255 108.127 230.203 108.138 230.152C108.148 230.101 108.163 230.052 108.184 230.004C108.203 229.955 108.227 229.909 108.257 229.866C108.286 229.823 108.319 229.782 108.356 229.745C108.392 229.709 108.432 229.675 108.477 229.647C108.519 229.618 108.566 229.594 108.613 229.573C108.661 229.554 108.712 229.538 108.763 229.529C108.864 229.508 108.969 229.508 109.073 229.529C109.124 229.538 109.173 229.554 109.221 229.573C109.27 229.594 109.316 229.618 109.359 229.647C109.402 229.675 109.443 229.709 109.48 229.745C109.516 229.782 109.55 229.823 109.578 229.866C109.607 229.909 109.631 229.955 109.651 230.004C109.67 230.052 109.686 230.101 109.696 230.152C109.707 230.203 109.712 230.255 109.712 230.308C109.712 230.518 109.627 230.721 109.48 230.869C109.443 230.906 109.402 230.939 109.359 230.968C109.316 230.996 109.27 231.022 109.221 231.041C109.173 231.061 109.124 231.077 109.073 231.087C109.022 231.096 108.969 231.103 108.917 231.103Z" fill="white"/>
<path d="M105.061 242.637C100.389 242.637 96.5874 238.836 96.5874 234.163C96.5874 229.491 100.389 225.689 105.061 225.689C109.733 225.689 113.535 229.491 113.535 234.163C113.535 238.835 109.734 242.637 105.061 242.637ZM105.061 227.279C101.265 227.279 98.1771 230.367 98.1771 234.163C98.1771 237.959 101.265 241.047 105.061 241.047C108.857 241.047 111.945 237.959 111.945 234.163C111.945 230.367 108.857 227.279 105.061 227.279Z" fill="#333333"/>
</g>
<path d="M273.857 82.6805C276.471 85.2909 278.57 88.4167 279.985 91.8949C281.302 95.1317 282.026 98.672 282.026 102.38C282.026 104.387 281.814 106.345 281.409 108.231C280.248 113.667 277.499 118.514 273.67 122.264C271.821 124.077 269.718 125.635 267.421 126.876C263.484 129.009 258.977 130.219 254.187 130.219C253.72 130.219 253.257 130.208 252.797 130.185C244.106 129.758 236.464 125.344 231.658 118.737C228.319 114.145 226.348 108.492 226.348 102.38C226.348 102.075 226.353 101.772 226.363 101.468C226.563 95.2231 228.823 89.4967 232.482 84.9466C237.166 79.1224 244.147 75.2232 252.048 74.6228C252.754 74.569 253.467 74.5413 254.187 74.5413C260.453 74.5413 266.235 76.6116 270.888 80.1045C271.939 80.8925 272.931 81.7539 273.857 82.6805Z" fill="#FCBC1D"/>
<path opacity="0.25" d="M256.571 128.704C253.315 127.554 250.336 125.813 247.764 123.612C241.795 118.506 238.012 110.919 238.012 102.449C238.012 94.9378 240.987 88.12 245.823 83.1131C248.487 80.3543 251.716 78.1437 255.323 76.6689C256.827 76.0546 258.397 75.5696 260.019 75.2239C258.139 74.8229 256.188 74.61 254.188 74.61C250.462 74.61 246.908 75.3425 243.66 76.6689C240.053 78.1437 236.824 80.3543 234.16 83.1131C229.325 88.12 226.349 94.9378 226.349 102.449C226.349 110.919 230.132 118.506 236.102 123.612C238.673 125.813 241.652 127.554 244.908 128.704C247.811 129.73 250.935 130.288 254.188 130.288C256.187 130.288 258.137 130.076 260.018 129.675C258.839 129.424 257.689 129.099 256.571 128.704Z" fill="black"/>
<path opacity="0.25" d="M267.254 95.8382C266.855 93.9015 267.441 92.0637 268.606 91.1804C268.923 90.9412 269.283 90.7716 269.678 90.6895C271.525 90.3104 273.431 91.9999 273.938 94.4644C274.443 96.9273 273.359 99.2321 271.512 99.6112C270.922 99.7339 270.322 99.6424 269.768 99.3822C268.589 98.829 267.599 97.5129 267.254 95.8382Z" fill="black"/>
<path d="M267.254 95.8371C266.855 93.9004 267.441 92.0626 268.606 91.1793C269.785 91.7329 270.777 93.0494 271.12 94.7235C271.518 96.6603 270.933 98.498 269.768 99.3813C268.589 98.8279 267.599 97.5118 267.254 95.8371Z" fill="#FCBC1D"/>
<path d="M270.988 100.481C270.461 100.481 269.93 100.36 269.421 100.121C269.013 99.9292 268.838 99.4434 269.029 99.0357C269.221 98.6278 269.707 98.4528 270.114 98.644C270.53 98.8393 270.945 98.896 271.346 98.8127C272.726 98.5294 273.546 96.6135 273.138 94.6283C272.73 92.6435 271.221 91.2054 269.842 91.4886C269.577 91.5436 269.325 91.6591 269.097 91.8317C268.148 92.5507 267.728 94.0952 268.053 95.6738C268.143 96.1151 267.859 96.5463 267.418 96.6371C266.976 96.728 266.545 96.4436 266.455 96.0025C265.999 93.7875 266.65 91.6395 268.113 90.5305C268.537 90.2104 269.008 89.9957 269.512 89.8909C271.798 89.4221 274.14 91.4 274.736 94.3002C275.332 97.2011 273.959 99.9421 271.676 100.41C271.449 100.457 271.219 100.481 270.988 100.481Z" fill="#333333"/>
<path d="M274.037 89.8707C273.769 89.8707 273.506 89.7389 273.35 89.497C272.315 87.8916 271.086 86.4103 269.697 85.0937C269.37 84.7839 269.356 84.2675 269.666 83.9404C269.976 83.6135 270.492 83.5995 270.819 83.9094C272.303 85.3156 273.616 86.8979 274.721 88.6127C274.965 88.9914 274.856 89.4962 274.478 89.7404C274.341 89.8286 274.188 89.8707 274.037 89.8707Z" fill="white"/>
<path d="M270.142 121.094C269.924 121.094 269.707 121.007 269.546 120.836C269.239 120.507 269.256 119.991 269.585 119.683C274.377 115.2 277.126 108.876 277.126 102.335C277.126 100.91 276.998 99.4825 276.747 98.0915C276.666 97.6482 276.961 97.2237 277.404 97.1435C277.848 97.0635 278.271 97.3575 278.352 97.8009C278.621 99.2875 278.757 100.813 278.757 102.335C278.757 109.326 275.82 116.083 270.699 120.874C270.542 121.021 270.342 121.094 270.142 121.094Z" fill="white"/>
<path d="M266.711 123.78C266.444 123.78 266.182 123.649 266.026 123.409C265.781 123.031 265.888 122.526 266.266 122.28C266.683 122.01 267.096 121.723 267.494 121.428C267.856 121.159 268.366 121.235 268.635 121.597C268.903 121.959 268.828 122.469 268.466 122.738C268.041 123.053 267.599 123.36 267.154 123.649C267.017 123.738 266.863 123.78 266.711 123.78Z" fill="white"/>
<path d="M254.187 131.035C238.387 131.035 225.532 118.181 225.532 102.38C225.532 86.5801 238.387 73.7256 254.187 73.7256C269.988 73.7256 282.842 86.5801 282.842 102.38C282.842 118.181 269.987 131.035 254.187 131.035ZM254.187 75.357C239.287 75.357 227.164 87.4796 227.164 102.38C227.164 117.281 239.287 129.404 254.187 129.404C269.088 129.404 281.211 117.281 281.211 102.38C281.211 87.4796 269.088 75.357 254.187 75.357Z" fill="#333333"/>
<path opacity="0.25" d="M258.838 103.443C258.838 106.362 256.471 108.729 253.552 108.729C252.98 108.729 252.428 108.638 251.911 108.468C254.025 107.778 255.554 105.789 255.554 103.443C255.554 101.097 254.025 99.1087 251.911 98.4186C252.428 98.249 252.98 98.1576 253.552 98.1576C256.471 98.1578 258.838 100.525 258.838 103.443Z" fill="black"/>
<path d="M241.765 115.984C241.463 116.378 241.085 116.695 240.631 116.91C238.655 117.848 236.039 116.47 234.787 113.833C233.536 111.197 234.123 108.298 236.099 107.36C236.398 107.218 236.711 107.13 237.032 107.091C238.833 106.869 240.879 108.198 241.943 110.438C242.907 112.471 242.78 114.657 241.765 115.984Z" fill="#FCBC1D"/>
<path opacity="0.25" d="M241.765 115.984C239.962 116.207 237.916 114.876 236.854 112.637C235.89 110.605 236.017 108.417 237.032 107.091C238.833 106.869 240.879 108.198 241.943 110.438C242.907 112.471 242.78 114.657 241.765 115.984Z" fill="black"/>
<path d="M239.321 118.016C237.308 118.016 235.174 116.55 234.051 114.184C232.609 111.144 233.37 107.753 235.749 106.624C236.942 106.058 238.335 106.134 239.672 106.837C240.931 107.5 241.999 108.655 242.679 110.088C242.873 110.496 242.699 110.982 242.292 111.175C241.885 111.368 241.399 111.195 241.206 110.788C240.675 109.671 239.861 108.781 238.912 108.281C238.041 107.822 237.166 107.757 236.449 108.098C234.882 108.841 234.468 111.258 235.525 113.484C236.581 115.71 238.715 116.918 240.282 116.174C240.999 115.833 241.502 115.115 241.698 114.15C241.787 113.708 242.218 113.423 242.659 113.512C243.101 113.602 243.386 114.032 243.297 114.474C242.997 115.954 242.175 117.081 240.981 117.648C240.455 117.898 239.893 118.016 239.321 118.016Z" fill="#333333"/>
<path d="M253.554 109.546C250.19 109.546 247.453 106.809 247.453 103.445C247.453 102.994 247.818 102.629 248.269 102.629C248.719 102.629 249.084 102.994 249.084 103.445C249.084 105.909 251.089 107.914 253.554 107.914C256.019 107.914 258.024 105.909 258.024 103.445C258.024 100.98 256.019 98.9751 253.554 98.9751C252.742 98.9751 251.948 99.1947 251.256 99.6101C250.87 99.8422 250.369 99.7171 250.137 99.3308C249.905 98.9446 250.03 98.4434 250.416 98.2114C251.361 97.6437 252.446 97.3435 253.554 97.3435C256.918 97.3435 259.655 100.08 259.655 103.445C259.655 106.809 256.918 109.546 253.554 109.546Z" fill="#333333"/>
<path d="M253.228 90.0703C252.459 90.0703 251.736 89.7708 251.192 89.227C250.873 88.9084 250.873 88.3919 251.192 88.0734C251.51 87.7548 252.027 87.7548 252.345 88.0734C252.581 88.3092 252.894 88.4389 253.228 88.4389C253.561 88.4389 253.874 88.309 254.11 88.0734C254.597 87.5869 254.597 86.7952 254.11 86.3085C253.874 86.0728 253.561 85.9431 253.228 85.9431C252.894 85.9431 252.581 86.0728 252.345 86.3085C252.027 86.6272 251.51 86.6272 251.192 86.3085C250.873 85.9901 250.873 85.4736 251.192 85.1549C251.736 84.611 252.459 84.3116 253.228 84.3116C253.997 84.3116 254.72 84.6112 255.264 85.1549C256.386 86.2777 256.386 88.1044 255.264 89.227C254.72 89.7708 253.997 90.0703 253.228 90.0703Z" fill="#333333"/>
<path d="M263.406 119.497C262.637 119.497 261.914 119.198 261.37 118.654C261.051 118.336 261.051 117.819 261.37 117.501C261.688 117.182 262.205 117.182 262.524 117.501C262.759 117.736 263.073 117.866 263.406 117.866C263.739 117.866 264.053 117.736 264.288 117.501C264.524 117.265 264.654 116.951 264.654 116.618C264.654 116.285 264.524 115.971 264.288 115.736C264.053 115.5 263.739 115.37 263.406 115.37C263.073 115.37 262.759 115.5 262.524 115.736C262.205 116.054 261.689 116.054 261.37 115.736C261.051 115.417 261.051 114.901 261.37 114.582C261.914 114.038 262.637 113.739 263.406 113.739C264.175 113.739 264.898 114.038 265.442 114.582C265.986 115.126 266.285 115.849 266.285 116.618C266.285 117.387 265.986 118.11 265.442 118.654C264.898 119.198 264.175 119.497 263.406 119.497Z" fill="#333333"/>
<g clip-path="url(#clip2_86_2115)">
<path d="M64.6787 145.005C67.2923 147.616 69.392 150.742 70.8065 154.22C72.123 157.457 72.8474 160.997 72.8474 164.705C72.8474 166.712 72.6353 168.67 72.2307 170.556C71.0691 175.992 68.3201 180.839 64.4911 184.589C62.6427 186.402 60.5398 187.96 58.2427 189.201C54.306 191.334 49.7983 192.544 45.0084 192.544C44.5418 192.544 44.0785 192.533 43.6184 192.51C34.9277 192.082 27.286 187.669 22.4798 181.062C19.1402 176.47 17.1694 170.817 17.1694 164.705C17.1694 164.4 17.1743 164.097 17.1841 163.793C17.3848 157.548 19.6443 151.822 23.3037 147.272C27.9875 141.447 34.9685 137.548 42.8696 136.948C43.576 136.894 44.2889 136.866 45.0084 136.866C51.2748 136.866 57.0566 138.937 61.7095 142.429C62.7602 143.217 63.7521 144.079 64.6787 145.005Z" fill="#F9911E"/>
<path d="M38.9008 154.527H37.2093C36.7588 154.527 36.3936 154.162 36.3936 153.712C36.3936 153.261 36.7588 152.896 37.2093 152.896H38.9008C39.3512 152.896 39.7165 153.261 39.7165 153.712C39.7165 154.162 39.3514 154.527 38.9008 154.527Z" fill="white"/>
<path d="M24.9917 154.527H24.1458C23.6954 154.527 23.3301 154.162 23.3301 153.712C23.3301 153.261 23.6954 152.896 24.1458 152.896H24.9917C25.4421 152.896 25.8074 153.261 25.8074 153.712C25.8074 154.162 25.4423 154.527 24.9917 154.527Z" fill="#4D4D4D"/>
<path d="M43.3173 154.527H41.6258C41.1753 154.527 40.8101 154.162 40.8101 153.712C40.8101 153.261 41.1753 152.896 41.6258 152.896H43.3173C43.7677 152.896 44.133 153.261 44.133 153.712C44.133 154.162 43.7677 154.527 43.3173 154.527Z" fill="white"/>
<path d="M32.1341 151.426H27.6233C27.1729 151.426 26.8076 151.06 26.8076 150.61C26.8076 150.159 27.1729 149.794 27.6233 149.794H32.1341C32.5846 149.794 32.9498 150.159 32.9498 150.61C32.9498 151.06 32.5846 151.426 32.1341 151.426Z" fill="#4D4D4D"/>
<path d="M43.9745 143.344H39.4637C39.0132 143.344 38.6479 142.979 38.6479 142.528C38.6479 142.078 39.0132 141.713 39.4637 141.713H43.9745C44.4249 141.713 44.7902 142.078 44.7902 142.528C44.7902 142.979 44.4249 143.344 43.9745 143.344Z" fill="#4D4D4D"/>
<path d="M36.7386 147.102H34.2952C33.8448 147.102 33.4795 146.737 33.4795 146.286C33.4795 145.836 33.8448 145.471 34.2952 145.471H36.7386C37.1891 145.471 37.5544 145.836 37.5544 146.286C37.5544 146.737 37.1891 147.102 36.7386 147.102Z" fill="#4D4D4D"/>
<path d="M46.0421 147.102H45.1023C44.6519 147.102 44.2866 146.737 44.2866 146.286C44.2866 145.836 44.6519 145.471 45.1023 145.471H46.0421C46.4925 145.471 46.8578 145.836 46.8578 146.286C46.8578 146.737 46.4925 147.102 46.0421 147.102Z" fill="white"/>
<path d="M48.8614 147.102H47.9217C47.4712 147.102 47.106 146.737 47.106 146.286C47.106 145.836 47.4712 145.471 47.9217 145.471H48.8614C49.3118 145.471 49.6771 145.836 49.6771 146.286C49.6771 146.737 49.3118 147.102 48.8614 147.102Z" fill="#4D4D4D"/>
<path d="M59.1048 147.102H56.6614C56.211 147.102 55.8457 146.737 55.8457 146.286C55.8457 145.836 56.211 145.471 56.6614 145.471H59.1048C59.5553 145.471 59.9206 145.836 59.9206 146.286C59.9206 146.737 59.5553 147.102 59.1048 147.102Z" fill="#4D4D4D"/>
<path d="M31.0062 147.103C30.9523 147.103 30.9001 147.098 30.8463 147.087C30.7941 147.077 30.7435 147.061 30.6945 147.041C30.6456 147.02 30.5967 146.995 30.5526 146.966C30.5086 146.935 30.4661 146.902 30.4286 146.863C30.3911 146.826 30.3568 146.785 30.3275 146.739C30.2981 146.695 30.2736 146.648 30.2524 146.599C30.2328 146.55 30.2165 146.498 30.2067 146.447C30.1953 146.393 30.1904 146.34 30.1904 146.287C30.1904 146.072 30.2769 145.862 30.4286 145.71C30.4661 145.672 30.5086 145.638 30.5526 145.609C30.5967 145.579 30.644 145.555 30.6945 145.534C30.7435 145.514 30.7941 145.498 30.8463 145.488C31.1122 145.434 31.3944 145.521 31.5837 145.71C31.6212 145.747 31.6538 145.79 31.6848 145.834C31.7142 145.878 31.7387 145.925 31.7599 145.976C31.7795 146.025 31.7958 146.075 31.8056 146.127C31.817 146.18 31.8219 146.234 31.8219 146.287C31.8219 146.503 31.7354 146.713 31.5837 146.863C31.4303 147.017 31.2215 147.103 31.0062 147.103Z" fill="#4D4D4D"/>
<path d="M35.8934 151.426H35.0477C34.5972 151.426 34.2319 151.06 34.2319 150.61C34.2319 150.159 34.5972 149.794 35.0477 149.794H35.8934C36.3438 149.794 36.7091 150.159 36.7091 150.61C36.7091 151.06 36.3438 151.426 35.8934 151.426Z" fill="#4D4D4D"/>
<path d="M51.4988 151.426H49.7015C49.251 151.426 48.8857 151.06 48.8857 150.61C48.8857 150.159 49.251 149.794 49.7015 149.794H51.4988C51.9493 149.794 52.3146 150.159 52.3146 150.61C52.3146 151.06 51.9493 151.426 51.4988 151.426Z" fill="white"/>
<path d="M43.3173 166.18H41.6258C41.1753 166.18 40.8101 165.815 40.8101 165.364C40.8101 164.914 41.1753 164.548 41.6258 164.548H43.3173C43.7677 164.548 44.133 164.914 44.133 165.364C44.133 165.815 43.7677 166.18 43.3173 166.18Z" fill="white"/>
<path d="M21.139 166.18H19.4476C18.9971 166.18 18.6318 165.815 18.6318 165.364C18.6318 164.914 18.9971 164.548 19.4476 164.548H21.139C21.5895 164.548 21.9548 164.914 21.9548 165.364C21.9548 165.815 21.5895 166.18 21.139 166.18Z" fill="#4D4D4D"/>
<path d="M26.4014 169.939H24.7098C24.2593 169.939 23.894 169.574 23.894 169.124C23.894 168.673 24.2593 168.308 24.7098 168.308H26.4012C26.8517 168.308 27.217 168.673 27.217 169.124C27.217 169.574 26.8519 169.939 26.4014 169.939Z" fill="#4D4D4D"/>
<path d="M46.5127 169.939H44.8211C44.3707 169.939 44.0054 169.574 44.0054 169.124C44.0054 168.673 44.3707 168.308 44.8211 168.308H46.5127C46.9632 168.308 47.3285 168.673 47.3285 169.124C47.3285 169.574 46.9632 169.939 46.5127 169.939Z" fill="white"/>
<path d="M38.7123 174.074H37.0208C36.5704 174.074 36.2051 173.709 36.2051 173.258C36.2051 172.808 36.5704 172.442 37.0208 172.442H38.7123C39.1627 172.442 39.528 172.808 39.528 173.258C39.528 173.709 39.1627 174.074 38.7123 174.074Z" fill="#4D4D4D"/>
<path d="M33.92 177.738H32.2283C31.7779 177.738 31.4126 177.373 31.4126 176.922C31.4126 176.472 31.7779 176.107 32.2283 176.107H33.92C34.3704 176.107 34.7357 176.472 34.7357 176.922C34.7357 177.373 34.3704 177.738 33.92 177.738Z" fill="#4D4D4D"/>
<path d="M48.2035 177.738H46.512C46.0616 177.738 45.6963 177.373 45.6963 176.922C45.6963 176.472 46.0616 176.107 46.512 176.107H48.2035C48.6539 176.107 49.0192 176.472 49.0192 176.922C49.0192 177.373 48.6539 177.738 48.2035 177.738Z" fill="white"/>
<path d="M46.4186 180.089H43.0354C42.585 180.089 42.2197 179.723 42.2197 179.273C42.2197 178.823 42.585 178.457 43.0354 178.457H46.4186C46.869 178.457 47.2343 178.823 47.2343 179.273C47.2343 179.723 46.8692 180.089 46.4186 180.089Z" fill="white"/>
<path d="M41.061 185.07H38.1478C37.6973 185.07 37.332 184.704 37.332 184.254C37.332 183.804 37.6973 183.438 38.1478 183.438H41.0609C41.5113 183.438 41.8766 183.804 41.8766 184.254C41.8766 184.704 41.5115 185.07 41.061 185.07Z" fill="white"/>
<path d="M52.2449 182.532H51.2112C50.7608 182.532 50.3955 182.166 50.3955 181.716C50.3955 181.265 50.7608 180.9 51.2112 180.9H52.2449C52.6954 180.9 53.0606 181.265 53.0606 181.716C53.0606 182.166 52.6954 182.532 52.2449 182.532Z" fill="#4D4D4D"/>
<path d="M44.633 187.7H43.5052C43.0547 187.7 42.6895 187.335 42.6895 186.884C42.6895 186.434 43.0547 186.069 43.5052 186.069H44.633C45.0834 186.069 45.4487 186.434 45.4487 186.884C45.4487 187.335 45.0834 187.7 44.633 187.7Z" fill="white"/>
<path d="M35.5176 187.7H34.3899C33.9395 187.7 33.5742 187.335 33.5742 186.884C33.5742 186.434 33.9395 186.069 34.3899 186.069H35.5176C35.968 186.069 36.3333 186.434 36.3333 186.884C36.3333 187.335 35.968 187.7 35.5176 187.7Z" fill="#4D4D4D"/>
<path d="M31.6314 180.502H29.658C29.2076 180.502 28.8423 180.136 28.8423 179.686C28.8423 179.235 29.2076 178.87 29.658 178.87H31.6316C32.082 178.87 32.4473 179.235 32.4473 179.686C32.4473 180.136 32.0818 180.502 31.6314 180.502Z" fill="#4D4D4D"/>
<path d="M59.6692 180.089H57.6956C57.2452 180.089 56.8799 179.723 56.8799 179.273C56.8799 178.823 57.2452 178.457 57.6956 178.457H59.6692C60.1196 178.457 60.4849 178.823 60.4849 179.273C60.4849 179.723 60.1196 180.089 59.6692 180.089Z" fill="#4D4D4D"/>
<path d="M61.7586 177.783H58.8455C58.3951 177.783 58.0298 177.418 58.0298 176.967C58.0298 176.517 58.3951 176.151 58.8455 176.151H61.7586C62.2091 176.151 62.5743 176.517 62.5743 176.967C62.5743 177.418 62.2091 177.783 61.7586 177.783Z" fill="#4D4D4D"/>
<path d="M28.4694 177.738H25.2742C24.8238 177.738 24.4585 177.373 24.4585 176.922C24.4585 176.472 24.8238 176.107 25.2742 176.107H28.4694C28.9198 176.107 29.2851 176.472 29.2851 176.922C29.2851 177.373 28.9198 177.738 28.4694 177.738Z" fill="#4D4D4D"/>
<path d="M65.4012 174.074H63.7098C63.2593 174.074 62.894 173.709 62.894 173.258C62.894 172.808 63.2593 172.442 63.7098 172.442H65.4012C65.8517 172.442 66.217 172.808 66.217 173.258C66.217 173.709 65.8517 174.074 65.4012 174.074Z" fill="#4D4D4D"/>
<path d="M61.3837 174.074H59.6922C59.2417 174.074 58.8765 173.709 58.8765 173.258C58.8765 172.808 59.2417 172.442 59.6922 172.442H61.3837C61.8341 172.442 62.1994 172.808 62.1994 173.258C62.1994 173.709 61.8343 174.074 61.3837 174.074Z" fill="#4D4D4D"/>
<path d="M51.023 174.074H49.3313C48.8809 174.074 48.5156 173.709 48.5156 173.258C48.5156 172.808 48.8809 172.442 49.3313 172.442H51.023C51.4734 172.442 51.8387 172.808 51.8387 173.258C51.8387 173.709 51.4736 174.074 51.023 174.074Z" fill="white"/>
<path d="M36.5513 169.939H33.826C33.3755 169.939 33.0103 169.574 33.0103 169.124C33.0103 168.673 33.3755 168.308 33.826 168.308H36.5513C37.0017 168.308 37.367 168.673 37.367 169.124C37.367 169.574 37.0017 169.939 36.5513 169.939Z" fill="#4D4D4D"/>
<path d="M31.1006 166.18H27.1536C26.7032 166.18 26.3379 165.815 26.3379 165.364C26.3379 164.914 26.7032 164.548 27.1536 164.548H31.1006C31.551 164.548 31.9163 164.914 31.9163 165.364C31.9163 165.815 31.551 166.18 31.1006 166.18Z" fill="#4D4D4D"/>
<path d="M24.4529 166.18C24.3991 166.18 24.3469 166.175 24.293 166.164C24.2408 166.154 24.1903 166.138 24.1413 166.118C24.0924 166.097 24.0451 166.073 24.001 166.043C23.9553 166.014 23.9146 165.98 23.8754 165.942C23.7237 165.79 23.6372 165.58 23.6372 165.365C23.6372 165.312 23.6421 165.259 23.6535 165.205C23.6633 165.154 23.6796 165.102 23.6992 165.053C23.7204 165.004 23.7449 164.957 23.7742 164.913C23.8052 164.867 23.8379 164.826 23.8754 164.789C23.9146 164.751 23.9553 164.717 24.001 164.688C24.0451 164.657 24.0924 164.632 24.1413 164.612C24.1903 164.591 24.2408 164.575 24.293 164.565C24.559 164.511 24.8412 164.599 25.0305 164.789C25.068 164.826 25.1022 164.867 25.1316 164.913C25.161 164.957 25.1854 165.004 25.2067 165.053C25.2262 165.102 25.2425 165.154 25.2523 165.205C25.2638 165.259 25.2687 165.312 25.2687 165.365C25.2687 165.58 25.1822 165.79 25.0305 165.942C24.9929 165.98 24.9505 166.014 24.9065 166.043C24.8624 166.073 24.8135 166.097 24.7645 166.118C24.7156 166.138 24.665 166.154 24.6128 166.164C24.559 166.175 24.5068 166.18 24.4529 166.18Z" fill="#4D4D4D"/>
<path d="M46.0975 166.18C45.8821 166.18 45.6717 166.094 45.5199 165.942C45.3682 165.79 45.2817 165.58 45.2817 165.365C45.2817 165.311 45.2866 165.259 45.2981 165.205C45.3078 165.154 45.3242 165.102 45.3437 165.053C45.3633 165.004 45.3894 164.957 45.4188 164.913C45.4481 164.867 45.4824 164.826 45.5199 164.789C45.7092 164.599 45.9914 164.511 46.2557 164.565C46.3079 164.575 46.3601 164.591 46.4091 164.612C46.458 164.632 46.5053 164.657 46.5494 164.686C46.5951 164.717 46.6358 164.751 46.6734 164.789C46.7109 164.826 46.7451 164.867 46.7745 164.913C46.8039 164.957 46.83 165.004 46.8496 165.053C46.8708 165.102 46.8854 165.154 46.8969 165.205C46.9067 165.259 46.9132 165.311 46.9132 165.365C46.9132 165.58 46.8251 165.79 46.6734 165.942C46.6358 165.98 46.5951 166.014 46.5494 166.043C46.5053 166.073 46.458 166.097 46.4091 166.118C46.3601 166.138 46.3079 166.154 46.2557 166.164C46.2035 166.175 46.1497 166.18 46.0975 166.18Z" fill="white"/>
<path d="M46.0416 143.345C45.9894 143.345 45.9356 143.34 45.8834 143.329C45.8312 143.319 45.779 143.303 45.73 143.283C45.6811 143.262 45.6338 143.237 45.5897 143.208C45.5457 143.177 45.5033 143.143 45.4657 143.105C45.314 142.954 45.2275 142.745 45.2275 142.529C45.2275 142.476 45.2324 142.422 45.2422 142.37C45.2536 142.317 45.2683 142.267 45.2895 142.218C45.3091 142.167 45.3352 142.12 45.3646 142.076C45.3939 142.032 45.4282 141.989 45.4657 141.952C45.5033 141.914 45.5457 141.88 45.5897 141.851C45.6338 141.821 45.6811 141.797 45.73 141.776C45.779 141.756 45.8312 141.74 45.8834 141.73C45.9878 141.709 46.0971 141.709 46.2015 141.73C46.2537 141.74 46.3059 141.756 46.3549 141.776C46.4038 141.797 46.4511 141.821 46.4952 141.851C46.5392 141.88 46.5816 141.914 46.6192 141.952C46.6567 141.989 46.6909 142.032 46.7203 142.076C46.7497 142.12 46.7758 142.167 46.7954 142.218C46.8166 142.267 46.8312 142.317 46.8427 142.37C46.8525 142.422 46.8574 142.476 46.8574 142.529C46.8574 142.745 46.7709 142.954 46.6192 143.105C46.5816 143.143 46.5392 143.177 46.4952 143.208C46.4511 143.237 46.4038 143.262 46.3549 143.283C46.3059 143.303 46.2537 143.319 46.2015 143.329C46.1493 143.34 46.0955 143.345 46.0416 143.345Z" fill="#4D4D4D"/>
<path d="M47.6407 158.004H45.949C45.4986 158.004 45.1333 157.639 45.1333 157.189C45.1333 156.738 45.4986 156.373 45.949 156.373H47.6407C48.0911 156.373 48.4564 156.738 48.4564 157.189C48.4564 157.639 48.0911 158.004 47.6407 158.004Z" fill="white"/>
<path d="M67.5369 158.004H64.4808C64.0303 158.004 63.665 157.639 63.665 157.189C63.665 156.738 64.0303 156.373 64.4808 156.373H67.5369C67.9874 156.373 68.3527 156.738 68.3527 157.189C68.3527 157.639 67.9874 158.004 67.5369 158.004Z" fill="#4D4D4D"/>
<path d="M34.577 158.004H32.8855C32.4351 158.004 32.0698 157.639 32.0698 157.189C32.0698 156.738 32.4351 156.373 32.8855 156.373H34.577C35.0275 156.373 35.3928 156.738 35.3928 157.189C35.3928 157.639 35.0276 158.004 34.577 158.004Z" fill="#4D4D4D"/>
<path d="M57.7117 161.386C57.498 161.386 57.2875 161.3 57.1358 161.148C56.9841 160.996 56.896 160.786 56.896 160.572C56.896 160.357 56.9841 160.146 57.1358 159.995C57.3251 159.805 57.6073 159.719 57.8716 159.771C57.9238 159.783 57.9744 159.797 58.025 159.818C58.0739 159.838 58.1212 159.864 58.1653 159.893C58.2093 159.923 58.2517 159.957 58.2892 159.995C58.441 160.146 58.5274 160.357 58.5274 160.572C58.5274 160.786 58.441 160.996 58.2892 161.148C58.2517 161.186 58.2093 161.22 58.1653 161.249C58.1212 161.279 58.0739 161.305 58.025 161.324C57.9744 161.345 57.9238 161.36 57.8716 161.372C57.8194 161.381 57.7656 161.386 57.7117 161.386Z" fill="#4D4D4D"/>
<path d="M30.4354 161.386C30.3815 161.386 30.3277 161.381 30.2755 161.372C30.2233 161.36 30.1727 161.345 30.1221 161.324C30.0732 161.305 30.0259 161.279 29.9818 161.249C29.9378 161.22 29.8953 161.186 29.8578 161.148C29.8203 161.111 29.786 161.068 29.7567 161.024C29.7273 160.98 29.7012 160.933 29.6816 160.884C29.6604 160.833 29.6457 160.783 29.6343 160.73C29.6245 160.678 29.6196 160.624 29.6196 160.571C29.6196 160.518 29.6245 160.464 29.6343 160.412C29.6457 160.36 29.6604 160.308 29.6816 160.259C29.7012 160.21 29.7273 160.163 29.7567 160.119C29.786 160.075 29.8203 160.032 29.8578 159.995C29.8953 159.957 29.9378 159.923 29.9818 159.893C30.0259 159.864 30.0732 159.838 30.1221 159.818C30.1727 159.797 30.2233 159.783 30.2755 159.771C30.5414 159.719 30.822 159.805 31.0113 159.995C31.0488 160.032 31.083 160.075 31.1124 160.119C31.1418 160.163 31.1679 160.21 31.1874 160.259C31.2087 160.308 31.2233 160.36 31.2348 160.412C31.2445 160.464 31.2511 160.518 31.2511 160.571C31.2511 160.624 31.2445 160.678 31.2348 160.73C31.2233 160.783 31.2087 160.833 31.1874 160.884C31.1679 160.933 31.1418 160.98 31.1124 161.024C31.083 161.068 31.0488 161.111 31.0113 161.148C30.9737 161.186 30.9329 161.22 30.8873 161.249C30.8432 161.279 30.7959 161.305 30.747 161.324C30.698 161.345 30.6458 161.36 30.5936 161.372C30.5414 161.381 30.4876 161.386 30.4354 161.386Z" fill="#4D4D4D"/>
<path d="M61.3607 161.386H59.6692C59.2188 161.386 58.8535 161.021 58.8535 160.57C58.8535 160.12 59.2188 159.755 59.6692 159.755H61.3607C61.8112 159.755 62.1764 160.12 62.1764 160.57C62.1764 161.021 61.8112 161.386 61.3607 161.386Z" fill="#4D4D4D"/>
<path d="M70.5697 161.386H68.8782C68.4278 161.386 68.0625 161.021 68.0625 160.57C68.0625 160.12 68.4278 159.755 68.8782 159.755H70.5697C71.0201 159.755 71.3854 160.12 71.3854 160.57C71.3854 161.021 71.0201 161.386 70.5697 161.386Z" fill="#4D4D4D"/>
<path d="M26.3075 161.386H24.616C24.1656 161.386 23.8003 161.021 23.8003 160.57C23.8003 160.12 24.1656 159.755 24.616 159.755H26.3075C26.7579 159.755 27.1232 160.12 27.1232 160.57C27.1232 161.021 26.7581 161.386 26.3075 161.386Z" fill="#4D4D4D"/>
<path d="M58.4468 154.527H56.7552C56.3047 154.527 55.9395 154.162 55.9395 153.712C55.9395 153.261 56.3047 152.896 56.7552 152.896H58.4468C58.8973 152.896 59.2625 153.261 59.2625 153.712C59.2625 154.162 58.8974 154.527 58.4468 154.527Z" fill="#4D4D4D"/>
<path opacity="0.25" d="M47.3915 191.03C44.1351 189.88 41.1561 188.139 38.5849 185.938C32.6155 180.832 28.8321 173.245 28.8321 164.775C28.8321 157.264 31.8079 150.446 36.6435 145.439C39.3077 142.68 42.5363 140.47 46.1434 138.995C47.6476 138.381 49.218 137.896 50.84 137.55C48.9591 137.149 47.0089 136.936 45.0084 136.936C41.2822 136.936 37.7289 137.669 34.4807 138.995C30.8736 140.47 27.6449 142.68 24.9808 145.439C20.1452 150.446 17.1694 157.264 17.1694 164.775C17.1694 173.245 20.9528 180.832 26.9222 185.938C29.4934 188.139 32.4724 189.88 35.7288 191.03C38.6311 192.056 41.7553 192.614 45.0084 192.614C47.0078 192.614 48.9578 192.402 50.8382 192.001C49.6602 191.75 48.5092 191.425 47.3915 191.03Z" fill="black"/>
<path d="M45.0087 193.36C29.2085 193.36 16.354 180.505 16.354 164.705C16.354 148.905 29.2085 136.051 45.0087 136.051C60.8089 136.051 73.6634 148.905 73.6634 164.705C73.6634 180.505 60.8089 193.36 45.0087 193.36ZM45.0087 137.682C30.1081 137.682 17.9854 149.805 17.9854 164.705C17.9854 179.606 30.1081 191.729 45.0087 191.729C59.9094 191.729 72.032 179.606 72.032 164.705C72.032 149.805 59.9094 137.682 45.0087 137.682Z" fill="#333333"/>
<path d="M57.1955 144.632C57.0475 144.632 56.8979 144.592 56.7633 144.507C55.8002 143.904 54.7865 143.366 53.7497 142.909C53.3376 142.727 53.1509 142.245 53.3328 141.833C53.5148 141.421 53.9965 141.234 54.4085 141.416C55.5165 141.905 56.6001 142.48 57.6293 143.125C58.011 143.364 58.1267 143.867 57.8875 144.249C57.7325 144.496 57.4671 144.632 57.1955 144.632Z" fill="white"/>
<path d="M60.9638 183.419C60.746 183.419 60.5287 183.332 60.368 183.16C60.0603 182.831 60.0774 182.315 60.4063 182.007C65.1987 177.524 67.9473 171.201 67.9473 164.66C67.9473 158.081 65.3093 151.958 60.519 147.418C60.1921 147.108 60.1782 146.592 60.4882 146.265C60.798 145.938 61.3145 145.924 61.6413 146.234C66.7598 151.085 69.5788 157.628 69.5788 164.659C69.5788 171.651 66.6418 178.408 61.5209 183.199C61.3636 183.346 61.1634 183.419 60.9638 183.419Z" fill="white"/>
<path d="M57.5324 186.105C57.2654 186.105 57.0037 185.974 56.8474 185.733C56.6022 185.355 56.7095 184.85 57.0875 184.605C57.5034 184.335 57.9165 184.048 58.315 183.752C58.6769 183.484 59.1877 183.559 59.4562 183.921C59.7248 184.283 59.6491 184.794 59.2872 185.062C58.8614 185.378 58.4201 185.685 57.9757 185.973C57.8387 186.062 57.6847 186.105 57.5324 186.105Z" fill="white"/>
</g>
<path d="M257.965 226.032C257.965 227.521 257.808 228.973 257.508 230.372C256.646 234.405 254.607 238.001 251.766 240.784C250.394 242.129 248.834 243.285 247.13 244.206C245.394 245.146 243.51 245.845 241.52 246.257C240.161 246.538 238.753 246.686 237.311 246.686C236.965 246.686 236.621 246.677 236.28 246.66C232.386 246.469 228.777 245.199 225.744 243.143C224.795 242.502 223.902 241.781 223.075 240.995C222.166 240.13 221.337 239.184 220.597 238.167C218.129 234.773 216.668 230.597 216.657 226.083C216.657 225.987 216.659 225.893 216.659 225.797C216.66 225.718 216.662 225.64 216.664 225.562C216.665 225.493 216.666 225.424 216.668 225.355C216.817 220.722 218.494 216.473 221.209 213.098C221.731 212.448 222.292 211.83 222.889 211.249C225.517 208.683 228.829 206.812 232.526 205.936C233.564 205.689 234.633 205.522 235.725 205.438C236.249 205.399 236.778 205.378 237.311 205.378C240.877 205.378 244.231 206.281 247.158 207.874C248.047 208.355 248.897 208.901 249.702 209.505C250.482 210.09 251.217 210.729 251.905 211.417C252.241 211.753 252.567 212.1 252.878 212.46C254.369 214.167 255.585 216.12 256.451 218.253C257.428 220.654 257.965 223.281 257.965 226.032Z" fill="#F9911E"/>
<path d="M256.801 219.175C253.469 223.618 249.324 228.394 244.582 233.135C239.797 237.921 234.976 242.098 230.498 245.446C230.471 245.467 230.443 245.486 230.417 245.506C229.008 245.008 227.671 244.361 226.423 243.584C226.449 243.571 226.475 243.557 226.501 243.542H226.502C226.507 243.54 226.513 243.535 226.518 243.532C231.039 241.058 236.762 236.622 242.415 230.969C248.013 225.371 252.417 219.706 254.905 215.207C255.502 216.172 256.02 217.191 256.452 218.254C256.576 218.557 256.692 218.864 256.801 219.175Z" fill="#F9A24B"/>
<path d="M246.994 210.825C246.884 210.825 246.773 210.795 246.673 210.732C245.959 210.285 245.206 209.886 244.437 209.546C244.131 209.411 243.993 209.054 244.128 208.748C244.263 208.443 244.62 208.304 244.926 208.439C245.748 208.802 246.552 209.229 247.315 209.707C247.599 209.884 247.684 210.258 247.507 210.541C247.392 210.724 247.195 210.825 246.994 210.825Z" fill="white"/>
<path d="M249.79 239.6C249.628 239.6 249.467 239.536 249.348 239.408C249.119 239.164 249.132 238.781 249.376 238.553C252.932 235.226 254.971 230.535 254.971 225.682C254.971 220.802 253.014 216.259 249.46 212.891C249.217 212.661 249.207 212.278 249.437 212.035C249.667 211.793 250.05 211.782 250.292 212.012C254.09 215.611 256.181 220.466 256.181 225.682C256.181 230.869 254.002 235.882 250.203 239.437C250.086 239.546 249.938 239.6 249.79 239.6Z" fill="white"/>
<path d="M247.244 241.593C247.046 241.593 246.852 241.496 246.736 241.318C246.554 241.037 246.633 240.662 246.914 240.48C247.222 240.28 247.528 240.067 247.824 239.848C248.093 239.649 248.472 239.705 248.671 239.973C248.87 240.242 248.814 240.621 248.546 240.82C248.229 241.055 247.902 241.282 247.573 241.496C247.471 241.562 247.357 241.593 247.244 241.593Z" fill="white"/>
<path opacity="0.25" d="M251.906 211.416C251.218 210.729 250.482 210.089 249.703 209.505C248.898 208.901 248.048 208.355 247.159 207.873C247.198 207.946 247.247 208.012 247.306 208.072C248.589 209.352 247.919 212.358 245.784 216.265C245.781 216.27 245.776 216.276 245.774 216.281C245.75 216.325 245.724 216.37 245.699 216.416C243.21 220.915 238.807 226.58 233.209 232.178C232.226 233.161 231.24 234.107 230.26 235.012C229.267 235.929 227.665 235.611 227.102 234.382C225.901 231.765 225.231 228.853 225.231 225.784C225.231 220.212 227.438 215.154 231.026 211.439C233.002 209.392 235.398 207.752 238.074 206.658C239.19 206.202 240.355 205.842 241.558 205.586C240.163 205.288 238.716 205.13 237.232 205.13C234.467 205.13 231.831 205.674 229.421 206.658C226.745 207.752 224.35 209.392 222.373 211.439C218.786 215.154 216.578 220.212 216.578 225.784C216.578 231.762 219.119 237.145 223.179 240.917C223.144 240.942 223.11 240.969 223.075 240.994C223.902 241.781 224.795 242.501 225.744 243.143C225.787 243.107 225.83 243.071 225.873 243.035C227.257 243.949 228.757 244.701 230.347 245.263C232.5 246.024 234.818 246.438 237.232 246.438C238.715 246.438 240.162 246.281 241.557 245.984C240.683 245.797 239.829 245.556 239 245.263C236.584 244.41 234.374 243.118 232.466 241.485C232.363 241.397 232.262 241.309 232.161 241.219C231.054 240.233 231.053 238.506 232.132 237.491C233.212 236.475 234.295 235.425 235.375 234.344C240.118 229.603 244.262 224.827 247.594 220.384C247.625 220.342 247.656 220.301 247.686 220.26C249.749 217.502 251.497 214.872 252.879 212.459C252.568 212.1 252.242 211.752 251.906 211.416Z" fill="black"/>
<path d="M264.781 198.594C262.073 195.887 253.993 199.255 244.325 206.482L244.238 206.569C245.641 207.066 246.974 207.713 248.217 208.489L248.321 208.384C252.228 206.248 255.233 205.58 256.513 206.862C257.796 208.142 257.125 211.148 254.99 215.055C254.987 215.06 254.983 215.066 254.98 215.071C254.956 215.115 254.931 215.16 254.905 215.206C252.417 219.705 248.013 225.37 242.415 230.968C236.762 236.621 231.039 241.057 226.518 243.531C226.513 243.534 226.507 243.539 226.502 243.541H226.501C226.475 243.556 226.449 243.57 226.422 243.584C225.467 244.103 224.567 244.535 223.733 244.869C221.19 245.892 219.267 246.024 218.309 245.065C217.037 243.794 217.688 240.826 219.785 236.962C219.006 235.716 218.357 234.381 217.855 232.976C210.679 242.601 207.344 250.635 210.042 253.333C212.139 255.431 217.458 253.883 224.244 249.719H224.245C226.195 248.523 228.266 247.111 230.417 245.506C230.443 245.485 230.471 245.466 230.498 245.445C234.976 242.097 239.797 237.92 244.582 233.134C249.324 228.393 253.468 223.617 256.801 219.174C256.831 219.133 256.862 219.091 256.893 219.05C264.12 209.382 267.488 201.301 264.781 198.594Z" fill="#F7DB9C"/>
<path d="M237.41 247.254C234.962 247.254 232.561 246.842 230.276 246.029L230.681 244.889C232.837 245.655 235.101 246.044 237.41 246.044C248.483 246.044 257.491 237.036 257.491 225.963C257.491 223.654 257.103 221.39 256.336 219.235L256.301 219.137V219.032L256.908 219.031L257.477 218.829C258.29 221.115 258.702 223.515 258.702 225.963C258.702 237.703 249.15 247.254 237.41 247.254Z" fill="#333333"/>
<path d="M212.75 254.875C211.404 254.875 210.356 254.504 209.614 253.761C208.101 252.249 208.129 249.467 209.697 245.493C211.125 241.873 213.804 237.385 217.445 232.515L218.414 233.24C214.837 238.025 212.212 242.415 210.823 245.938C209.488 249.323 209.362 251.798 210.47 252.905C211.577 254.013 214.052 253.887 217.437 252.552C220.959 251.163 225.35 248.538 230.135 244.961C234.71 241.541 239.558 237.303 244.154 232.707C248.75 228.111 252.987 223.263 256.408 218.688C259.985 213.903 262.61 209.512 263.999 205.99C265.334 202.604 265.46 200.13 264.352 199.022C263.245 197.915 260.77 198.04 257.385 199.376C253.863 200.765 249.472 203.39 244.687 206.967L243.962 205.998C248.832 202.357 253.32 199.678 256.941 198.25C260.914 196.682 263.696 196.654 265.208 198.167C266.72 199.679 266.692 202.46 265.125 206.434C263.697 210.055 261.018 214.543 257.377 219.413C253.923 224.034 249.646 228.927 245.01 233.563C240.373 238.199 235.48 242.476 230.86 245.93C225.99 249.571 221.502 252.25 217.881 253.678C215.859 254.476 214.145 254.875 212.75 254.875ZM220.198 246.316C219.208 246.316 218.43 246.043 217.881 245.493C216.422 244.035 216.914 240.954 219.302 236.582L220.364 237.163C218.35 240.849 217.742 243.643 218.736 244.638C219.733 245.634 222.527 245.026 226.21 243.01L226.347 242.936C230.956 240.39 236.648 235.88 241.987 230.54C247.367 225.161 251.906 219.422 254.443 214.793L254.456 214.768C256.472 211.079 257.08 208.285 256.085 207.29C255.089 206.293 252.295 206.901 248.611 208.916L248.03 207.854C252.4 205.464 255.481 204.973 256.94 206.434C258.399 207.891 257.91 210.97 255.524 215.338L255.511 215.362C252.923 220.09 248.305 225.934 242.843 231.396C237.379 236.859 231.535 241.476 226.809 244.063L226.798 244.069C226.788 244.074 226.778 244.079 226.77 244.083L226.767 244.084C224.053 245.568 221.836 246.316 220.198 246.316Z" fill="#333333"/>
<path d="M212.757 252.085C212.196 252.085 211.768 251.978 211.582 251.792C211.542 251.752 210.614 250.756 212.286 246.514C213.194 244.214 214.66 241.513 216.599 238.555C215.063 242.254 215.118 244.955 216.768 246.606C217.355 247.193 218.428 247.894 220.203 247.894C221.491 247.894 223.031 247.521 224.804 246.784C219.66 250.154 215.322 252.085 212.757 252.085C212.757 252.085 212.757 252.085 212.757 252.085ZM258.224 213.368C259.759 209.671 259.704 206.97 258.052 205.32C257.466 204.734 256.394 204.033 254.618 204.033C253.332 204.033 251.793 204.404 250.022 205.141C255.164 201.772 259.5 199.842 262.065 199.842C262.625 199.842 263.053 199.948 263.239 200.134C263.28 200.175 264.208 201.171 262.535 205.412C261.628 207.712 260.162 210.412 258.224 213.368Z" fill="#DDBE7F"/>
<path d="M226.552 243.915L226.03 243.663C223.285 241.954 220.932 239.6 219.226 236.858C218.432 235.581 217.774 234.214 217.27 232.797C216.463 230.531 216.054 228.151 216.054 225.721C216.054 214.079 225.526 204.607 237.168 204.607C239.598 204.607 241.979 205.016 244.245 205.823C245.659 206.326 247.024 206.984 248.304 207.779C251.05 209.487 253.404 211.841 255.11 214.586L254.397 215.789L254.083 215.225C252.473 212.637 250.254 210.417 247.665 208.807C246.459 208.058 245.172 207.438 243.839 206.964C241.704 206.203 239.46 205.818 237.168 205.818C226.193 205.818 217.264 214.746 217.264 225.721C217.264 228.012 217.65 230.256 218.41 232.391C218.885 233.727 219.505 235.015 220.254 236.219C221.856 238.795 224.064 241.007 226.641 242.618L227.071 242.822L226.552 243.915Z" fill="#333333"/>
<g clip-path="url(#clip3_86_2115)">
<path d="M132.655 149.589C134.393 147.152 136.524 145.02 138.962 143.282L131.954 141.88C131.638 141.816 131.329 142.019 131.265 142.335C131.249 142.412 131.249 142.492 131.265 142.57L132.655 149.589Z" fill="#F2A78C"/>
<path d="M127.673 165.165C127.674 163.671 127.799 162.181 128.047 160.709L122.09 164.68C121.822 164.86 121.751 165.223 121.931 165.491C121.973 165.554 122.027 165.607 122.09 165.649L128.047 169.621C127.8 168.148 127.674 166.658 127.673 165.165Z" fill="#F2A78C"/>
<path d="M176.421 149.589L177.822 142.581C177.887 142.265 177.683 141.957 177.367 141.892C177.29 141.876 177.211 141.876 177.133 141.892L170.125 143.294C172.558 145.03 174.685 147.157 176.421 149.589Z" fill="#F2A78C"/>
<path d="M154.538 138.3C156.031 138.301 157.522 138.426 158.994 138.674L155.023 132.717C154.843 132.45 154.48 132.378 154.212 132.558C154.149 132.6 154.095 132.655 154.053 132.717L150.082 138.674C151.555 138.427 153.045 138.302 154.538 138.3Z" fill="#F2A78C"/>
<path d="M154.538 192.03C153.045 192.029 151.554 191.904 150.082 191.656L154.053 197.613C154.233 197.88 154.596 197.952 154.864 197.772C154.927 197.73 154.981 197.675 155.023 197.613L158.994 191.656C157.522 191.904 156.031 192.029 154.538 192.03Z" fill="#F2A78C"/>
<path d="M186.98 164.68L181.023 160.709C181.522 163.659 181.522 166.671 181.023 169.621L186.98 165.65C187.247 165.47 187.319 165.107 187.139 164.839C187.097 164.776 187.043 164.723 186.98 164.68Z" fill="#F2A78C"/>
<path d="M132.655 180.741L131.253 187.749C131.188 188.065 131.392 188.374 131.709 188.438C131.751 188.447 131.794 188.451 131.837 188.45H131.954L138.962 187.048C136.525 185.31 134.393 183.179 132.655 180.741Z" fill="#F2A78C"/>
<path d="M176.421 180.741C174.683 183.179 172.551 185.31 170.114 187.048L177.122 188.45H177.238C177.561 188.456 177.828 188.201 177.834 187.878C177.835 187.834 177.831 187.791 177.823 187.749L176.421 180.741Z" fill="#F2A78C"/>
<path d="M154.538 190.861C168.729 190.861 180.234 179.357 180.234 165.165C180.234 150.974 168.729 139.469 154.538 139.469C140.346 139.469 128.842 150.974 128.842 165.165C128.842 179.357 140.346 190.861 154.538 190.861Z" fill="#FCBC1D"/>
<path d="M140.522 167.503C141.812 167.503 142.858 166.458 142.858 165.167C142.858 163.877 141.812 162.831 140.522 162.831C139.232 162.831 138.186 163.877 138.186 165.167C138.186 166.458 139.232 167.503 140.522 167.503Z" fill="#E0B34F"/>
<path d="M162.715 156.99C164.65 156.99 166.219 155.421 166.219 153.486C166.219 151.551 164.65 149.982 162.715 149.982C160.78 149.982 159.211 151.551 159.211 153.486C159.211 155.421 160.78 156.99 162.715 156.99Z" fill="#E0B34F"/>
<path opacity="0.06" d="M168.863 143.83C176.777 155.61 173.643 171.575 161.862 179.489C153.196 185.312 141.869 185.312 133.203 179.489C141.117 191.27 157.083 194.404 168.863 186.49C180.643 178.576 183.778 162.61 175.864 150.83C174.006 148.065 171.628 145.687 168.863 143.83Z" fill="#4D5DB1"/>
<path opacity="0.06" d="M170.89 145.308C180.035 156.16 178.652 172.371 167.799 181.517C158.232 189.58 144.248 189.58 134.681 181.517C143.827 192.369 160.038 193.752 170.89 184.607C181.742 175.462 183.125 159.251 173.98 148.398C173.04 147.282 172.006 146.249 170.89 145.308Z" fill="#4D5DB1"/>
<path d="M133.262 157.5C133.201 157.5 133.139 157.489 133.078 157.465C132.815 157.363 132.684 157.067 132.786 156.804C133.999 153.67 135.92 150.78 138.339 148.445C138.542 148.249 138.866 148.254 139.062 148.457C139.258 148.66 139.252 148.984 139.049 149.18C136.736 151.413 134.899 154.177 133.739 157.173C133.661 157.376 133.467 157.5 133.262 157.5Z" fill="white"/>
<path d="M143.81 145.568C143.628 145.568 143.451 145.47 143.359 145.298C143.226 145.049 143.32 144.739 143.569 144.606C145.083 143.798 146.691 143.161 148.349 142.712C148.621 142.639 148.902 142.8 148.975 143.072C149.049 143.345 148.888 143.625 148.616 143.699C147.033 144.127 145.497 144.736 144.051 145.508C143.974 145.549 143.891 145.568 143.81 145.568Z" fill="white"/>
<path d="M157.458 175.677C158.103 175.677 158.626 175.154 158.626 174.509C158.626 173.864 158.103 173.341 157.458 173.341C156.813 173.341 156.29 173.864 156.29 174.509C156.29 175.154 156.813 175.677 157.458 175.677Z" fill="#E0B34F"/>
</g>
<defs>
<clipPath id="clip0_86_2115">
<rect width="57.3094" height="57.3094" fill="white" transform="translate(72.7705 44.9707)"/>
</clipPath>
<clipPath id="clip1_86_2115">
<rect width="57.3094" height="57.3094" fill="white" transform="translate(96.5864 225.597)"/>
</clipPath>
<clipPath id="clip2_86_2115">
<rect width="57.3094" height="57.3094" fill="white" transform="translate(16.353 136.05)"/>
</clipPath>
<clipPath id="clip3_86_2115">
<rect width="65.4118" height="65.4118" fill="white" transform="translate(121.829 132.459)"/>
</clipPath>
</defs>
</svg>
