<svg width="36" height="44" viewBox="0 0 36 44" fill="none" xmlns="http://www.w3.org/2000/svg">
<path d="M28.6076 39.4003C22.5495 36.9626 20.5531 33.9352 21.0703 29.5735H14.4157C14.9329 33.9352 12.9365 36.9626 6.87834 39.4003C0.820206 41.838 0.00646973 44.4999 0.00646973 44.4999H35.5036C35.5036 44.4999 34.6727 41.838 28.6076 39.4003Z" fill="#FF8482"/>
<path d="M17.702 36.6761C19.4007 36.6772 21.0733 36.2579 22.5706 35.4555C21.2293 33.7935 20.8052 31.8696 21.0776 29.5939H14.4161C14.6885 31.9006 14.2575 33.8349 12.8955 35.5072C14.3792 36.2807 16.0288 36.6819 17.702 36.6761Z" fill="#FF5B59"/>
<path d="M28.6081 39.4008C26.8366 38.7443 25.1822 37.8072 23.7085 36.6251L18.1261 41.7972L11.8335 36.5527C10.6371 37.5871 9.00962 38.5284 6.87186 39.387C0.813726 41.8247 0 44.4866 0 44.4866H35.5041C35.5041 44.4866 34.6731 41.8385 28.6081 39.4008Z" fill="#6F87ED"/>
<path d="M9.13748 21.6648C10.2512 23.7991 9.7857 26.2472 8.10308 27.1333C6.42045 28.0194 4.13098 27.0057 3.01383 24.8714C1.89667 22.7371 2.3656 20.2856 4.04823 19.3994C5.73085 18.5133 8.02033 19.5201 9.13748 21.6648Z" fill="#FF8482"/>
<path d="M8.15446 25.7338C8.15446 25.6476 8.13377 25.5717 8.12343 25.489C8.13494 25.5389 8.14301 25.5896 8.14756 25.6407C8.14915 25.2765 8.08731 24.9148 7.96482 24.5718C7.73732 23.5558 7.2085 22.6322 6.44751 21.9216C5.68653 21.2111 4.72882 20.7467 3.69965 20.5894C5.05508 21.3762 6.22985 22.4394 7.14765 23.7098C5.93395 23.2167 4.04445 24.2649 4.04445 24.2649C6.27185 23.6719 7.28557 24.1615 7.75105 24.7304C7.92368 25.0482 8.05904 25.3849 8.15446 25.7338Z" fill="#FF5B59"/>
<path d="M26.2668 21.6648C25.1496 23.7991 25.6185 26.2472 27.3012 27.1333C28.9838 28.0194 31.2733 27.0057 32.3904 24.8714C33.5076 22.7371 33.0386 20.2856 31.356 19.3994C29.6734 18.5133 27.3839 19.5201 26.2668 21.6648Z" fill="#FF8482"/>
<path d="M27.2458 25.7338C27.2458 25.6476 27.27 25.5717 27.2769 25.489C27.2769 25.551 27.2562 25.5993 27.2528 25.6407C27.2521 25.2763 27.3151 24.9145 27.4389 24.5718C27.6669 23.5548 28.1967 22.6305 28.9591 21.9199C29.7214 21.2092 30.6806 20.7455 31.711 20.5894C30.3556 21.3762 29.1808 22.4394 28.263 23.7098C29.4802 23.2167 31.3662 24.2649 31.3662 24.2649C29.1354 23.6719 28.1216 24.1615 27.6562 24.7304C27.4831 25.0488 27.3455 25.3853 27.2458 25.7338Z" fill="#FF5B59"/>
<path d="M30.9868 12.593C32.366 9.58287 34.0417 4.26261 27.2388 1.16286C27.2871 1.18699 24.3287 -1.30591 19.0705 3.23166C17.3948 4.70395 15.1467 5.34873 13.0158 4.64534C10.8849 3.94195 8.09206 4.01435 6.54046 7.87266C6.16018 8.74732 5.99353 9.69993 6.05429 10.6517C5.56123 10.0346 4.88887 9.61735 4.26134 10.6173C3.75448 11.4 4.17168 14.8652 5.39917 17.9994C5.39917 17.9994 6.11291 25.5299 9.53677 26.7022L12.9158 22.0681C15.719 22.0026 19.2084 21.9095 22.0806 21.8474L25.6217 26.7022C28.0732 25.8643 29.1387 21.7888 29.549 19.5235L29.9489 19.0787C31.5281 17.334 32.1281 14.9135 31.1592 12.9136C31.1006 12.7999 31.0454 12.6999 30.9868 12.593Z" fill="#420E2F"/>
<path d="M13.0158 4.63719C10.8918 3.93035 8.09208 4.0131 6.52324 7.86796C6.36727 8.2464 6.24384 8.63744 6.1543 9.03684L6.24395 9.25061C6.24395 9.25061 8.31964 4.39583 13.0158 4.63719Z" fill="#7C1A59"/>
<path d="M27.2285 1.16202C27.2664 1.16202 25.4804 -0.32752 22.2048 1.16202C22.8461 1.16202 31.0282 1.24477 32.0833 9.26482C32.5867 6.49262 31.9281 3.29978 27.2285 1.16202Z" fill="#7C1A59"/>
<path d="M14.5812 9.50596C12.6959 9.50585 10.8866 10.2496 9.54635 11.5756C8.20612 12.9016 7.44315 14.7029 7.42317 16.5882L7.35077 23.4118C7.35077 29.6492 11.9849 34.7108 17.6948 34.7108C23.4047 34.7108 28.0388 29.6492 28.0388 23.4118L28.0181 16.1709C28.0181 12.4885 25.6424 7.40613 21.9565 7.40613L14.5812 9.50596Z" fill="#FDB193"/>
<path opacity="0.39" d="M18.5184 29.8589C18.5184 29.8589 20.3734 29.9141 21.0354 28.4384C21.0354 28.4384 21.563 29.5141 20.2975 30.1624C19.0321 30.8106 18.5184 29.8589 18.5184 29.8589Z" fill="#FF8282"/>
<g style="mix-blend-mode:multiply" opacity="0.55">
<path d="M28.0287 16.171C28.0287 12.4885 25.653 7.40613 21.9671 7.40613L14.5815 9.50596C12.6961 9.50585 10.8868 10.2496 9.54658 11.5756C8.20634 12.9016 7.44338 14.7029 7.4234 16.5882L7.38892 19.8189L8.42332 18.0432C8.42332 18.0122 9.1405 14.971 15.6951 14.8883C17.9846 14.8573 20.7706 14.1987 22.5912 11.561C23.2428 13.5194 24.3324 15.2814 25.6288 16.3399C26.3172 16.9223 27.1519 17.3051 28.0424 17.4467L28.0287 16.171Z" fill="#FDB193"/>
</g>
<path d="M20.8496 25.379C20.9735 25.717 21.0366 26.0742 21.0358 26.4341C21.0524 27.1696 20.7917 27.8844 20.3056 28.4367C19.8195 28.9889 19.1435 29.3381 18.4119 29.4149C17.6802 29.4918 16.9464 29.2907 16.3562 28.8515C15.766 28.4124 15.3625 27.7673 15.2259 27.0444L20.8496 25.379Z" fill="#230F0B"/>
<path d="M18.102 29.4443C17.6206 29.4474 17.1462 29.3287 16.7228 29.0995C16.8812 28.4341 17.2631 27.8431 17.8046 27.4252C18.3461 27.0072 19.0146 26.7877 19.6985 26.8031C20.1389 26.8036 20.5744 26.8952 20.9777 27.0721C20.8438 27.7377 20.4848 28.3368 19.9611 28.7689C19.4374 29.2009 18.7809 29.4394 18.102 29.4443Z" fill="#E8132C"/>
<path d="M19.1772 23.581C19.1772 24.5602 18.5152 25.3533 17.7015 25.3533C16.8878 25.3533 16.2223 24.5602 16.2223 23.581C16.2223 22.6018 16.8843 21.3743 17.7015 21.3743C18.5187 21.3743 19.1772 22.6018 19.1772 23.581Z" fill="#FF6A68"/>
<path d="M23.0244 20.434C23.0244 21.2442 22.752 21.9028 22.4107 21.9028C22.0693 21.9028 21.7969 21.2442 21.7969 20.434C21.7969 19.6237 22.0728 18.9617 22.4107 18.9617C22.7486 18.9617 23.0244 19.6202 23.0244 20.434Z" fill="#25110D"/>
<path d="M25.3039 18.8233C25.3832 18.7785 21.98 16.627 19.8802 16.7063C19.856 16.7407 19.9216 14.8271 22.7075 15.8305C25.4108 16.9407 25.2797 18.8544 25.3039 18.8233Z" fill="#420E2F"/>
<path d="M12.9873 21.9016C13.3263 21.9016 13.6011 21.2439 13.6011 20.4327C13.6011 19.6215 13.3263 18.9639 12.9873 18.9639C12.6484 18.9639 12.3736 19.6215 12.3736 20.4327C12.3736 21.2439 12.6484 21.9016 12.9873 21.9016Z" fill="#25110D"/>
<path d="M9.78444 18.8233C9.70514 18.7785 13.1083 16.627 15.2082 16.7063C15.2357 16.7407 15.1668 14.8271 12.3808 15.8305C9.681 16.9407 9.80858 18.8544 9.78444 18.8233Z" fill="#420E2F"/>
<path d="M11.5151 25.4227C11.4747 25.423 11.4348 25.4148 11.3979 25.3986C11.3329 25.3666 11.2831 25.3104 11.2592 25.242C11.2353 25.1736 11.2393 25.0986 11.2703 25.0331L12.1288 23.2574C12.1621 23.1954 12.218 23.1486 12.285 23.1269C12.3519 23.1052 12.4247 23.1103 12.488 23.141C12.5513 23.1718 12.6002 23.2259 12.6245 23.2919C12.6489 23.358 12.6467 23.4308 12.6184 23.4953L11.7599 25.271C11.7377 25.3169 11.7028 25.3556 11.6595 25.3824C11.6162 25.4093 11.5661 25.4233 11.5151 25.4227Z" fill="#FF6A68"/>
<path d="M9.80168 25.4227C9.75542 25.4235 9.70975 25.4123 9.66907 25.3903C9.6284 25.3683 9.59409 25.3361 9.56948 25.2969C9.54486 25.2578 9.53077 25.2129 9.52857 25.1667C9.52636 25.1205 9.53611 25.0745 9.55687 25.0331L10.4154 23.2574C10.4487 23.1954 10.5046 23.1486 10.5716 23.1269C10.6385 23.1052 10.7113 23.1103 10.7746 23.141C10.8379 23.1718 10.8868 23.2259 10.9111 23.2919C10.9355 23.358 10.9333 23.4308 10.905 23.4953L10.0465 25.271C10.0239 25.3167 9.98904 25.3551 9.94577 25.3819C9.9025 25.4087 9.85258 25.4229 9.80168 25.4227Z" fill="#FF6A68"/>
<path d="M23.7213 25.4241C23.6704 25.4242 23.6205 25.4101 23.5772 25.3832C23.534 25.3564 23.4991 25.318 23.4765 25.2724L22.618 23.4967C22.5897 23.4322 22.5876 23.3593 22.6119 23.2933C22.6362 23.2272 22.6851 23.1731 22.7484 23.1424C22.8117 23.1116 22.8845 23.1066 22.9514 23.1283C23.0184 23.1499 23.0743 23.1967 23.1076 23.2587L23.9661 25.0345C23.9971 25.0999 24.0011 25.175 23.9772 25.2433C23.9534 25.3117 23.9036 25.368 23.8386 25.3999C23.8016 25.4162 23.7617 25.4244 23.7213 25.4241Z" fill="#FF6A68"/>
<path d="M25.4349 25.4242C25.384 25.4243 25.3341 25.4102 25.2908 25.3834C25.2475 25.3566 25.2127 25.3182 25.1901 25.2725L24.335 23.4968C24.3192 23.4649 24.3098 23.4302 24.3075 23.3947C24.3051 23.3591 24.3099 23.3235 24.3214 23.2898C24.333 23.2562 24.3511 23.2251 24.3747 23.1985C24.3984 23.1719 24.4271 23.1502 24.4591 23.1348C24.4913 23.1188 24.5262 23.1094 24.562 23.107C24.5978 23.1047 24.6337 23.1094 24.6677 23.1209C24.7016 23.1324 24.733 23.1506 24.7599 23.1743C24.7868 23.1979 24.8088 23.2267 24.8246 23.2589L25.6797 25.0346C25.711 25.0997 25.7154 25.1743 25.6922 25.2427C25.669 25.311 25.62 25.3675 25.5556 25.4001C25.5176 25.4167 25.4764 25.4249 25.4349 25.4242Z" fill="#FF6A68"/>
<path d="M28.4906 13.2266L23.6324 4.92041L11.8919 8.4753L5.59241 16.1057C6.29627 16.5825 6.91124 17.1788 7.4095 17.8676C7.4095 17.8676 8.0991 13.9507 15.6847 13.8542C20.6705 13.7887 22.3221 10.6648 22.9738 8.13739C23.1117 11.0854 24.5461 14.1266 26.277 15.5368C26.747 15.9633 27.3227 16.2561 27.9443 16.3847C28.5658 16.5132 29.2105 16.4729 29.8112 16.2678L28.4906 13.2266Z" fill="#420E2F"/>
</svg>
