<svg width="43" height="32" viewBox="0 0 43 32" fill="none" xmlns="http://www.w3.org/2000/svg">
<path fill-rule="evenodd" clip-rule="evenodd" d="M0 0H42.6667V32H0V0Z" fill="#229E45"/>
<path fill-rule="evenodd" clip-rule="evenodd" d="M21.4266 29.0667L41.5266 16.02L21.3066 2.93335L1.13989 16.0467L21.4266 29.0667Z" fill="#F8E509"/>
<path fill-rule="evenodd" clip-rule="evenodd" d="M30.1866 16C30.1866 20.6867 26.38 24.4867 21.68 24.4867C20.0004 24.484 18.3594 23.9835 16.9643 23.0483C15.5691 22.1132 14.4826 20.7854 13.842 19.2328C13.2014 17.6802 13.0355 15.9726 13.3653 14.3257C13.695 12.6789 14.5057 11.1668 15.6947 9.98058C16.8837 8.79436 18.3977 7.9873 20.0453 7.66142C21.6929 7.33553 23.4002 7.50546 24.9512 8.14971C26.5023 8.79396 27.8275 9.88362 28.7594 11.2809C29.6913 12.6782 30.1879 14.3205 30.1866 16Z" fill="#2B49A3"/>
<path fill-rule="evenodd" clip-rule="evenodd" d="M18.8866 21.0867L18.6199 20.9334L18.3532 21.0667L18.4132 20.7667L18.1999 20.5401L18.4999 20.5067L18.6466 20.2401L18.7732 20.5201L19.0666 20.5734L18.8466 20.7734M24.5799 22.5267L24.3199 22.3734L24.0532 22.5067L24.1066 22.2067L23.8999 21.9867L24.1999 21.9534L24.3399 21.6801L24.4732 21.9601L24.7666 22.0134L24.5399 22.2201M22.1266 20.2201L21.8999 20.0867L21.6666 20.2067L21.7199 19.9467L21.5332 19.7534L21.7999 19.7267L21.9199 19.4867L22.0266 19.7334L22.2866 19.7801L22.0866 19.9601M27.8866 19.3934L27.6599 19.2601L27.4266 19.3801L27.4799 19.1201L27.2999 18.9334L27.5599 18.9067L27.6799 18.6734L27.7866 18.9134L28.0399 18.9601L27.8466 19.1334M22.0266 17.6667L21.7599 17.5201L21.4932 17.6534L21.5466 17.3467L21.3399 17.1267L21.6399 17.0934L21.7799 16.8201L21.9132 17.1001L22.2066 17.1534L21.9799 17.3667M15.0066 15.0334L14.7399 14.8867L14.4732 15.0201L14.5399 14.7134L14.3199 14.4934L14.6266 14.4601L14.7599 14.1867L14.8932 14.4667L15.1866 14.5201L14.9666 14.7267M15.8532 18.5401L15.5866 18.3867L15.3199 18.5201L15.3799 18.2201L15.1666 18.0001L15.4666 17.9601L15.6066 17.6934L15.7399 17.9734L16.0332 18.0267L15.8132 18.2334M24.6132 13.7467L24.3732 13.6134L24.1332 13.7334L24.1866 13.4667L23.9999 13.2667L24.2666 13.2334L24.3932 12.9934L24.5066 13.2467L24.7732 13.2934L24.5732 13.4734M24.1266 16.0267L23.9466 15.9201L23.7532 16.0134L23.7932 15.8001L23.6466 15.6467L23.8599 15.6201L23.9599 15.4334L24.0466 15.6334L24.2466 15.6667L24.0999 15.8134M14.6199 19.1734L14.4399 19.0734L14.2599 19.1601L14.2999 18.9601L14.1599 18.8134L14.3599 18.7867L14.4532 18.6067L14.5399 18.7934L14.7399 18.8334L14.5866 18.9667M27.9332 19.9867L27.7866 19.9134L27.6399 19.9801L27.6732 19.8267L27.5599 19.7201L27.7199 19.7001L27.7999 19.5667L27.8666 19.7001L28.0332 19.7334L27.9066 19.8334" fill="#FFFFEF"/>
<path fill-rule="evenodd" clip-rule="evenodd" d="M14.6199 19.1734L14.4399 19.0734L14.2599 19.16L14.2999 18.96L14.1599 18.8134L14.3599 18.7867L14.4532 18.6067L14.5399 18.7934L14.7399 18.8334L14.5866 18.9667" fill="#FFFFEF"/>
<path fill-rule="evenodd" clip-rule="evenodd" d="M14.6199 19.1734L14.4399 19.0734L14.2599 19.1601L14.2999 18.9601L14.1599 18.8134L14.3599 18.7867L14.4532 18.6067L14.5399 18.7934L14.7399 18.8334L14.5866 18.9667M17.4066 19.1667L17.2332 19.0734L17.0532 19.1601L17.0932 18.9601L16.9532 18.8134L17.1532 18.7867L17.2466 18.6067L17.3332 18.7934L17.5332 18.8267L17.3799 18.9667M17.0599 20.1001L16.8866 20.0001L16.7066 20.0934L16.7466 19.8934L16.6066 19.7401L16.8066 19.7134L16.8999 19.5334L16.9866 19.7201L17.1866 19.7601L17.0332 19.8934M22.8599 18.4134L22.6866 18.3067L22.4999 18.4001L22.5399 18.2001L22.4066 18.0467L22.6066 18.0267L22.6999 17.8467L22.7799 18.0334L22.9799 18.0667L22.8332 18.2067M21.1599 18.4067L20.9799 18.3067L20.7999 18.4001L20.8399 18.2001L20.7066 18.0467L20.9066 18.0267L20.9999 17.8401L21.0799 18.0334L21.2799 18.0667L21.1332 18.2067M16.5466 17.8201L16.4332 17.7534L16.3199 17.8067L16.3466 17.6801L16.2599 17.5867L16.3866 17.5734L16.4399 17.4601L16.4932 17.5801L16.6199 17.6001L16.5266 17.6867M27.7132 20.7134L27.5399 20.6134L27.3599 20.7067L27.3999 20.5067L27.2599 20.3534L27.4599 20.3267L27.5532 20.1467L27.6399 20.3334L27.8399 20.3734L27.6866 20.5067M26.2999 20.9067L26.1532 20.8134L25.9999 20.8934L26.0332 20.7201L25.9199 20.6001L26.0866 20.5801L26.1666 20.4267L26.2332 20.5867L26.3999 20.6134L26.2732 20.7334M26.9666 20.8867L26.8332 20.8067L26.6932 20.8734L26.7199 20.7201L26.6132 20.6067L26.7666 20.5867L26.8399 20.4534L26.9066 20.5867L27.0599 20.6201L26.9466 20.7267M28.8866 19.2067L28.7532 19.1401L28.6199 19.2067L28.6532 19.0534L28.5466 18.9401L28.6999 18.9201L28.7666 18.7867L28.8332 18.9267L28.9732 18.9534L28.8666 19.0601M26.2799 21.8467L26.1132 21.7534L25.9332 21.8334L25.9732 21.6467L25.8399 21.5134L26.0399 21.4934L26.1266 21.3267L26.2066 21.5001L26.4066 21.5334L26.2532 21.6601M26.2932 22.6067L26.1332 22.5134L25.9732 22.6001L26.0132 22.4134L25.8866 22.2801L26.0666 22.2534L26.1466 22.0867L26.2199 22.2601L26.3999 22.2934L26.2666 22.4267M24.9999 20.8867L24.8732 20.8067L24.7399 20.8734L24.7666 20.7267L24.6666 20.6134L24.8132 20.6001L24.8799 20.4667L24.9466 20.6001L25.0932 20.6267L24.9866 20.7334M23.7999 20.8867L23.6666 20.8067L23.5332 20.8734L23.5666 20.7267L23.4599 20.6134L23.6132 20.6001L23.6799 20.4667L23.7466 20.6001L23.8866 20.6267L23.7799 20.7334M21.7532 19.0934L21.6199 19.0201L21.4866 19.0867L21.5199 18.9334L21.4132 18.8267L21.5599 18.8067L21.6266 18.6734L21.6932 18.8067L21.8399 18.8401L21.7332 18.9401M21.9799 22.7401L21.8732 22.6801L21.7532 22.7401L21.7799 22.6067L21.6932 22.5134L21.8199 22.5001L21.8799 22.3867L21.9332 22.5067L22.0599 22.5267L21.9666 22.6134M18.8866 16.8401L18.6199 16.6867L18.3532 16.8201L18.4132 16.5201L18.1999 16.3001L18.4999 16.2601L18.6466 15.9934L18.7732 16.2734L19.0666 16.3267L18.8466 16.5334" fill="#FFFFEF"/>
<path fill-rule="evenodd" clip-rule="evenodd" d="M29.6268 19.0534C29.7919 18.6248 29.9213 18.1833 30.0134 17.7334C25.4934 13.7667 20.4601 11.7334 14.1001 12.1534C13.8694 12.5997 13.6798 13.0661 13.5334 13.5467C21.0668 12.8267 26.6001 16.16 29.6268 19.0534Z" fill="white"/>
<path d="M27.6 16.8266L27.7533 16.9132C27.7304 16.9585 27.7234 17.0102 27.7333 17.0599C27.7489 17.1081 27.7823 17.1487 27.8266 17.1732C27.8733 17.2066 27.92 17.2266 27.96 17.2199C28 17.2199 28.0266 17.1999 28.0466 17.1732C28.0583 17.1555 28.063 17.1342 28.06 17.1132C28.0545 17.0886 28.0431 17.0657 28.0266 17.0466C28.0133 17.0266 27.98 16.9799 27.9266 16.9266C27.8718 16.87 27.8308 16.8016 27.8066 16.7266C27.79 16.6698 27.7943 16.609 27.8188 16.5551C27.8433 16.5013 27.8863 16.458 27.94 16.4332C27.9885 16.413 28.042 16.4083 28.0933 16.4199C28.156 16.4343 28.215 16.4616 28.2666 16.4999C28.36 16.5666 28.42 16.6332 28.44 16.7132C28.4492 16.7507 28.4504 16.7896 28.4435 16.8275C28.4366 16.8654 28.4218 16.9015 28.4 16.9332L28.24 16.8332C28.26 16.7932 28.2666 16.7532 28.2533 16.7199C28.2466 16.6866 28.22 16.6532 28.1733 16.6266C28.1391 16.599 28.0971 16.5827 28.0533 16.5799C28.0412 16.5795 28.0292 16.5824 28.0187 16.5883C28.0081 16.5941 27.9993 16.6028 27.9933 16.6132C27.98 16.6332 27.98 16.6532 27.9866 16.6799C27.9933 16.7066 28.0266 16.7599 28.0933 16.8266C28.16 16.8932 28.2 16.9532 28.2266 16.9932C28.2504 17.0369 28.2612 17.0865 28.2577 17.1362C28.2541 17.1858 28.2364 17.2334 28.2066 17.2732C28.1754 17.3186 28.1313 17.3534 28.08 17.3732C28.03 17.3963 27.9741 17.4032 27.92 17.3932C27.86 17.3799 27.8 17.3532 27.7333 17.3066C27.6333 17.2399 27.5733 17.1666 27.5533 17.0866C27.5316 16.9959 27.5459 16.9003 27.5933 16.8199L27.6 16.8266ZM26.8266 16.3199L26.9933 16.4066C26.9727 16.4526 26.968 16.5042 26.98 16.5532C26.997 16.599 27.0302 16.6369 27.0733 16.6599C27.1266 16.6932 27.1666 16.7066 27.2066 16.6999C27.2466 16.6999 27.2733 16.6799 27.2933 16.6466C27.3034 16.6307 27.3081 16.612 27.3066 16.5932C27.3066 16.5732 27.2933 16.5466 27.2733 16.5266C27.2391 16.4853 27.2036 16.4453 27.1666 16.4066C27.0933 16.3332 27.0466 16.2732 27.0333 16.2199C27.0224 16.1856 27.0191 16.1493 27.0237 16.1136C27.0283 16.0779 27.0407 16.0437 27.06 16.0132C27.0853 15.9721 27.1225 15.9396 27.1666 15.9199C27.2124 15.8988 27.2635 15.8918 27.3133 15.8999C27.375 15.9103 27.4339 15.933 27.4866 15.9666C27.5866 16.0332 27.6466 16.0999 27.6666 16.1732C27.6788 16.2107 27.6827 16.2504 27.6781 16.2895C27.6735 16.3286 27.6605 16.3663 27.64 16.3999L27.4733 16.3066C27.4933 16.2599 27.5 16.2266 27.4866 16.1932C27.4733 16.1599 27.4466 16.1266 27.4 16.0999C27.3631 16.0734 27.3187 16.0594 27.2733 16.0599C27.2624 16.0606 27.2518 16.0641 27.2425 16.0699C27.2331 16.0757 27.2254 16.0837 27.22 16.0932C27.2066 16.1132 27.2066 16.1332 27.2133 16.1599C27.22 16.1866 27.26 16.2399 27.3266 16.3066C27.3933 16.3732 27.44 16.4266 27.46 16.4666C27.4867 16.5084 27.5009 16.557 27.5009 16.6066C27.5009 16.6562 27.4867 16.7048 27.46 16.7466C27.4312 16.7931 27.3895 16.8302 27.34 16.8532C27.29 16.8763 27.2341 16.8832 27.18 16.8732C27.1114 16.8616 27.0457 16.8367 26.9866 16.7999C26.9005 16.754 26.8341 16.6781 26.8 16.5866C26.7742 16.4976 26.7838 16.402 26.8266 16.3199ZM25.88 16.0666L26.3666 15.2666L26.9533 15.6332L26.8733 15.7666L26.4466 15.4999L26.34 15.6799L26.74 15.9266L26.6533 16.0599L26.2533 15.8132L26.12 16.0332L26.5666 16.2999L26.4866 16.4332L25.8866 16.0666H25.88ZM24.5 14.9332L24.5733 14.7999L24.9333 14.9799L24.7666 15.3132C24.7133 15.3266 24.6466 15.3332 24.5666 15.3266C24.4898 15.3181 24.4152 15.2955 24.3466 15.2599C24.266 15.2206 24.197 15.1608 24.1466 15.0866C24.1008 15.0176 24.0775 14.936 24.08 14.8532C24.0833 14.767 24.1061 14.6827 24.1466 14.6066C24.1867 14.5264 24.2463 14.4576 24.32 14.4066C24.3904 14.3578 24.4743 14.3322 24.56 14.3332C24.6266 14.3332 24.6933 14.3532 24.7733 14.3999C24.88 14.4466 24.9466 14.5132 24.98 14.5866C25.0146 14.6594 25.0217 14.7423 25 14.8199L24.82 14.7666C24.831 14.7219 24.8263 14.6748 24.8066 14.6332C24.7866 14.5932 24.7533 14.5666 24.7 14.5399C24.6689 14.5222 24.6344 14.5112 24.5988 14.5078C24.5632 14.5043 24.5272 14.5084 24.4933 14.5199C24.4266 14.5399 24.3666 14.5999 24.32 14.6932C24.2733 14.7866 24.2533 14.8732 24.2733 14.9466C24.2825 14.9813 24.2992 15.0137 24.3222 15.0413C24.3453 15.069 24.3741 15.0912 24.4066 15.1066C24.44 15.1266 24.48 15.1399 24.52 15.1399C24.5597 15.1459 24.6002 15.1459 24.64 15.1399L24.6933 15.0332L24.5 14.9332ZM18.4866 13.4466L18.62 12.5132L18.9 12.5599L18.9733 13.2132L19.2333 12.6132L19.5133 12.6532L19.38 13.5732L19.2 13.5466L19.3133 12.8199L19.02 13.5199L18.84 13.4932L18.7666 12.7399L18.66 13.4732L18.4866 13.4466ZM17.5466 13.3332L17.6333 12.3999L18.32 12.4666L18.3066 12.6266L17.8066 12.5799L17.7866 12.7799L18.2533 12.8266L18.2333 12.9866L17.7666 12.9399L17.7466 13.1932L18.2666 13.2399L18.2533 13.3999L17.5466 13.3332Z" fill="#309E3A"/>
<path d="M14.4332 12.7534C14.4332 12.6534 14.4532 12.5801 14.4799 12.5134C14.5033 12.466 14.5349 12.4231 14.5732 12.3868C14.6074 12.3523 14.6482 12.3251 14.6932 12.3068C14.7599 12.2868 14.8266 12.2734 14.8932 12.2734C15.0332 12.2734 15.1399 12.3268 15.2266 12.4068C15.2678 12.4577 15.2985 12.5164 15.3168 12.5794C15.3351 12.6423 15.3407 12.7083 15.3332 12.7734C15.3332 12.9201 15.2866 13.0401 15.1999 13.1268C15.1554 13.1679 15.1027 13.1993 15.0453 13.2188C14.9878 13.2383 14.927 13.2456 14.8666 13.2401C14.807 13.2407 14.7479 13.2292 14.6929 13.2063C14.6379 13.1834 14.5881 13.1495 14.5466 13.1068C14.4636 13.0086 14.4229 12.8816 14.4332 12.7534Z" fill="#309E3A"/>
<path d="M14.6265 12.7535C14.6265 12.8535 14.6465 12.9335 14.6931 12.9935C14.7398 13.0468 14.7998 13.0801 14.8798 13.0801C14.9144 13.0826 14.9491 13.0772 14.9814 13.0646C15.0137 13.0519 15.0428 13.0321 15.0665 13.0068C15.1131 12.9535 15.1331 12.8735 15.1398 12.7601C15.1398 12.6535 15.1265 12.5735 15.0731 12.5201C15.0514 12.4933 15.024 12.4716 14.9929 12.4566C14.9617 12.4416 14.9277 12.4337 14.8931 12.4335C14.8581 12.4324 14.8232 12.4389 14.7909 12.4528C14.7587 12.4666 14.7298 12.4873 14.7065 12.5135C14.6531 12.5668 14.6331 12.6468 14.6265 12.7535Z" fill="#F7FFFF"/>
<path d="M15.5334 13.2334L15.5468 12.3H15.9468C16.0468 12.3 16.1134 12.3134 16.1601 12.3334C16.2068 12.3467 16.2401 12.38 16.2668 12.42C16.2934 12.46 16.3068 12.5134 16.3068 12.5734C16.3073 12.6375 16.2835 12.6995 16.2401 12.7467C16.1908 12.7929 16.1274 12.8211 16.0601 12.8267L16.1601 12.9067C16.1868 12.9334 16.2201 12.9867 16.2601 13.06L16.3734 13.2467H16.1468L16.0134 13.0334L15.9201 12.9C15.904 12.8817 15.8833 12.8679 15.8601 12.86C15.8298 12.8512 15.7984 12.8467 15.7668 12.8467H15.7268V13.2334H15.5334Z" fill="#309E3A"/>
<path d="M15.7334 12.7H15.8667C15.9601 12.7 16.0201 12.7 16.0401 12.6866C16.0601 12.6866 16.0801 12.6666 16.0934 12.6533C16.1067 12.64 16.1134 12.6066 16.1134 12.5866C16.1134 12.5466 16.1067 12.52 16.0867 12.5066C16.0734 12.4866 16.0467 12.4733 16.0201 12.4666H15.8867L15.7334 12.46V12.6933V12.7Z" fill="white"/>
<path d="M16.5999 12.3467L16.9466 12.3667C17.0199 12.3667 17.0799 12.3733 17.1199 12.3867C17.1718 12.4055 17.2178 12.4377 17.2532 12.48C17.2916 12.5266 17.319 12.5813 17.3332 12.64C17.3532 12.7 17.3599 12.7733 17.3532 12.86C17.3532 12.9281 17.3419 12.9956 17.3199 13.06C17.2932 13.1267 17.2532 13.18 17.2066 13.22C17.1677 13.252 17.1221 13.2748 17.0732 13.2867C17.0332 13.3 16.9732 13.3 16.9066 13.3L16.5532 13.28L16.5999 12.3467Z" fill="#309E3A"/>
<path d="M16.7799 12.5134L16.7466 13.1334H16.9999C17.0332 13.1334 17.0599 13.1201 17.0799 13.1001C17.0999 13.0801 17.1199 13.0534 17.1332 13.0134C17.1466 12.9734 17.1599 12.9134 17.1599 12.8401L17.1532 12.6734C17.1437 12.6383 17.1254 12.6061 17.0999 12.5801C17.0778 12.5578 17.0502 12.5417 17.0199 12.5334C16.9695 12.5222 16.9182 12.5155 16.8666 12.5134H16.7799Z" fill="white"/>
<path d="M21.1733 14.0134L21.3933 13.1067L21.6867 13.1734L21.9 13.24C21.9467 13.2667 21.9867 13.3067 22.0067 13.3667C22.0333 13.42 22.0333 13.48 22.02 13.5534C22.0067 13.6067 21.9867 13.6534 21.9533 13.6867C21.9289 13.716 21.8983 13.7395 21.8637 13.7556C21.8292 13.7718 21.7915 13.7801 21.7533 13.78C21.7067 13.78 21.64 13.7667 21.5533 13.7467L21.44 13.7134L21.36 14.06L21.1733 14.0134Z" fill="#309E3A"/>
<path d="M21.5333 13.3066L21.48 13.56L21.58 13.5866C21.6466 13.6 21.7 13.6133 21.7266 13.6066C21.7526 13.603 21.7768 13.5915 21.7959 13.5736C21.815 13.5557 21.828 13.5323 21.8333 13.5066C21.8333 13.4733 21.8333 13.4466 21.82 13.42C21.8054 13.3929 21.7818 13.3717 21.7533 13.36L21.6266 13.3266L21.54 13.3066H21.5333Z" fill="white"/>
<path d="M22.04 14.2733L22.3534 13.3933L22.72 13.5266C22.82 13.56 22.88 13.5933 22.92 13.62C22.9534 13.6533 22.98 13.6866 22.9867 13.74C22.9934 13.7933 23 13.84 22.9867 13.8933C22.96 13.96 22.92 14.0066 22.8667 14.04C22.8134 14.0666 22.7467 14.0733 22.6667 14.06C22.6934 14.0933 22.72 14.1266 22.7334 14.1666L22.7867 14.3466L22.8267 14.5533L22.62 14.48L22.5534 14.24C22.5413 14.1857 22.5257 14.1323 22.5067 14.08C22.4979 14.0592 22.4841 14.0409 22.4667 14.0266C22.4534 14.0066 22.4267 13.9933 22.38 13.98L22.3467 13.9666L22.2134 14.34L22.04 14.2733Z" fill="#309E3A"/>
<path d="M22.4 13.8267L22.5266 13.8734C22.6133 13.9067 22.6666 13.92 22.6933 13.92C22.7133 13.92 22.7333 13.92 22.7533 13.9C22.7733 13.8867 22.7866 13.8667 22.7933 13.84C22.8066 13.8134 22.8066 13.7867 22.7933 13.76C22.7834 13.7342 22.7645 13.7128 22.74 13.7L22.6066 13.6534L22.4733 13.6067L22.3933 13.8267H22.4Z" fill="white"/>
<path d="M23.1334 14.2399C23.1564 14.1618 23.1949 14.0892 23.2468 14.0265C23.2805 13.9863 23.3211 13.9525 23.3668 13.9265C23.4081 13.9032 23.4532 13.8874 23.5001 13.8799C23.5668 13.8799 23.6334 13.8799 23.7068 13.9066C23.7664 13.9213 23.8221 13.9485 23.8704 13.9865C23.9187 14.0244 23.9583 14.0721 23.9868 14.1265C24.0401 14.2332 24.0401 14.3599 24.0001 14.5066C23.9671 14.6326 23.8856 14.7404 23.7734 14.8066C23.6734 14.8666 23.5534 14.8732 23.4268 14.8332C23.3673 14.8181 23.3117 14.7907 23.2635 14.7528C23.2153 14.7149 23.1755 14.6674 23.1468 14.6132C23.1201 14.5549 23.1051 14.4919 23.1028 14.4279C23.1006 14.3638 23.111 14.2999 23.1334 14.2399Z" fill="#309E3A"/>
<path d="M23.3202 14.2931C23.2935 14.3931 23.2868 14.4798 23.3202 14.5464C23.3535 14.6131 23.4002 14.6531 23.4735 14.6798C23.5402 14.6998 23.6068 14.6931 23.6735 14.6531C23.7402 14.6198 23.7802 14.5464 23.8135 14.4398C23.8468 14.3398 23.8468 14.2598 23.8135 14.1931C23.8004 14.1615 23.7804 14.1331 23.755 14.1101C23.7297 14.087 23.6996 14.0699 23.6668 14.0598C23.634 14.0484 23.5992 14.0444 23.5646 14.0478C23.5301 14.0513 23.4968 14.0622 23.4668 14.0798C23.4002 14.1198 23.3535 14.1864 23.3202 14.2931Z" fill="white"/>
<path d="M24.9534 15.54L25.38 14.7134L25.7334 14.8934C25.8 14.9253 25.8608 14.9681 25.9134 15.02C25.9467 15.0534 25.9667 15.0934 25.9667 15.1467C25.9667 15.2 25.9667 15.2467 25.94 15.2934C25.9144 15.3533 25.8666 15.4011 25.8067 15.4267C25.74 15.44 25.6734 15.44 25.6 15.4134C25.6267 15.4534 25.64 15.4934 25.6534 15.5267C25.6667 15.5667 25.6734 15.6267 25.68 15.7134L25.6934 15.9267L25.4934 15.8267L25.4667 15.58C25.4635 15.5241 25.4569 15.4685 25.4467 15.4134C25.4422 15.3884 25.4306 15.3653 25.4134 15.3467L25.3334 15.3L25.3 15.28L25.12 15.6267L24.9534 15.54Z" fill="#309E3A"/>
<path d="M25.3667 15.1467L25.4934 15.2133C25.5734 15.2533 25.6267 15.28 25.6467 15.28C25.6667 15.28 25.6934 15.28 25.7134 15.2667C25.7334 15.26 25.7467 15.24 25.76 15.2133C25.7734 15.1867 25.78 15.16 25.7734 15.1333C25.7651 15.1068 25.7488 15.0835 25.7267 15.0667C25.6877 15.0427 25.6476 15.0205 25.6067 15L25.4734 14.9333L25.3667 15.1467Z" fill="white"/>
<path d="M28.4066 17.2466C28.4498 17.1781 28.5065 17.1191 28.5733 17.0733C28.6181 17.0446 28.6678 17.0242 28.72 17.0133C28.7683 17.0034 28.8182 17.0034 28.8666 17.0133C28.9333 17.0266 28.9933 17.0533 29.0533 17.0933C29.1052 17.1256 29.1498 17.1684 29.1842 17.2189C29.2186 17.2694 29.2422 17.3265 29.2533 17.3866C29.2733 17.4999 29.24 17.6266 29.16 17.7533C29.093 17.8634 28.9851 17.9426 28.86 17.9733C28.8003 17.9862 28.7385 17.9863 28.6788 17.9737C28.619 17.961 28.5626 17.9359 28.5133 17.8999C28.4614 17.8676 28.4168 17.8248 28.3824 17.7743C28.348 17.7238 28.3244 17.6667 28.3133 17.6066C28.2933 17.4866 28.3266 17.3666 28.4066 17.2466Z" fill="#309E3A"/>
<path d="M28.5733 17.3532C28.5067 17.4399 28.4867 17.5199 28.5 17.5932C28.5049 17.627 28.517 17.6593 28.5354 17.6881C28.5537 17.7168 28.5781 17.7413 28.6067 17.7599C28.6733 17.8066 28.74 17.8199 28.8067 17.7999C28.8733 17.7799 28.94 17.7332 29 17.6399C29.06 17.5466 29.0867 17.4666 29.0733 17.3999C29.0667 17.3332 29.0267 17.2732 28.9667 17.2266C28.9067 17.1799 28.8333 17.1732 28.7667 17.1932C28.7 17.2066 28.6333 17.2599 28.5667 17.3532H28.5733Z" fill="white"/>
<path d="M20.1201 13.6333L20.2735 12.98L20.7535 13.0933L20.7335 13.2L20.3801 13.12L20.3468 13.2666L20.6735 13.34L20.6468 13.4533L20.3201 13.3733L20.2801 13.5533L20.6468 13.64L20.6201 13.7466L20.1201 13.6333Z" fill="#309E3A"/>
</svg>
