<svg width="43" height="32" viewBox="0 0 43 32" fill="none" xmlns="http://www.w3.org/2000/svg">
<g clip-path="url(#clip0_168_707)">
<path fill-rule="evenodd" clip-rule="evenodd" d="M0 0H60.8V2.46667H0V0ZM0 4.92667H60.8V7.39333H0V4.92667ZM0 9.84667H60.8V12.3133H0V9.84667ZM0 14.7667H60.8V17.2333H0V14.7667ZM0 19.7H60.8V22.1533H0V19.7ZM0 24.6133H60.8V27.08H0V24.6133ZM0 29.5333H60.8V32H0V29.5333Z" fill="#BD3D44"/>
<path fill-rule="evenodd" clip-rule="evenodd" d="M0 2.46655H60.8V4.92655H0V2.46655ZM0 7.38655H60.8V9.84655H0V7.38655ZM0 12.3066H60.8V14.7732H0V12.3066ZM0 17.2332H60.8V19.6999H0V17.2332ZM0 22.1532H60.8V24.6199H0V22.1532ZM0 27.0732H60.8V29.5399H0V27.0732Z" fill="white"/>
<path fill-rule="evenodd" clip-rule="evenodd" d="M0 0H24.32V17.2333H0V0Z" fill="#192F5D"/>
<path fill-rule="evenodd" clip-rule="evenodd" d="M2.02667 0.733398L2.25334 1.42007H2.96L2.38667 1.84007L2.60667 2.52673L2.02667 2.10007L1.45334 2.52007L1.66667 1.84007L1.08667 1.42007H1.81334L2.02667 0.733398ZM6.08 0.733398L6.3 1.42007H7.02L6.44 1.84007L6.65334 2.52673L6.08 2.10007L5.5 2.52007L5.72 1.84007L5.14667 1.42007H5.85334L6.08 0.733398ZM10.1333 0.733398L10.3533 1.42007H11.0667L10.4933 1.84007L10.7133 2.52673L10.1333 2.10007L9.55334 2.52007L9.77334 1.84007L9.19334 1.42007H9.91334L10.1333 0.733398ZM14.1867 0.733398L14.4067 1.42007H15.1267L14.5467 1.84007L14.7667 2.52673L14.1867 2.10007L13.6067 2.52007L13.8333 1.84007L13.2467 1.42007H13.96L14.1867 0.733398ZM18.24 0.733398L18.46 1.42007H19.1733L18.6 1.84007L18.82 2.52673L18.24 2.10007L17.66 2.52007L17.88 1.84007L17.3067 1.42007H18.02L18.24 0.733398ZM22.2933 0.733398L22.5133 1.42007H23.2333L22.6467 1.84007L22.8733 2.52673L22.2933 2.10007L21.7133 2.52007L21.94 1.84007L21.3533 1.42007H22.0733L22.2933 0.733398ZM4.05334 2.46673L4.27334 3.14673H5L4.42 3.56007L4.63334 4.24673L4.06667 3.82673L3.48667 4.24673L3.69334 3.56007L3.13334 3.14673H3.84667L4.05334 2.46673ZM8.10667 2.46673L8.33334 3.14673H9.04667L8.46 3.56007L8.68667 4.24673L8.10667 3.82673L7.52667 4.24673L7.74667 3.56007L7.16667 3.14673H7.88667L8.10667 2.46673ZM12.16 2.46673L12.38 3.14673H13.1L12.52 3.56007L12.74 4.24673L12.16 3.82673L11.58 4.24673L11.8 3.56007L11.2267 3.14673H11.9333L12.16 2.46673ZM16.2133 2.46673L16.44 3.14673H17.1533L16.5667 3.56007L16.7933 4.24673L16.2133 3.82673L15.64 4.24673L15.8533 3.56007L15.2733 3.14673H16L16.2133 2.46673ZM20.2667 2.46673L20.4867 3.14673H21.2067L20.6267 3.56007L20.8467 4.24673L20.2667 3.82673L19.6867 4.24673L19.9067 3.56007L19.3333 3.14673H20.0467L20.2667 2.46673ZM2.02667 4.1734L2.25334 4.86673H2.96L2.38667 5.28673L2.60667 5.96673L2.02667 5.54673L1.45334 5.96673L1.66667 5.28673L1.08667 4.86673H1.81334L2.02667 4.1734ZM6.08 4.1734L6.3 4.86673H7.02L6.44 5.28673L6.65334 5.96673L6.08 5.54673L5.5 5.96673L5.72 5.28007L5.14667 4.86007H5.85334L6.08 4.1734ZM10.1333 4.1734L10.3533 4.86007H11.0667L10.4933 5.28007L10.7133 5.96007L10.1333 5.54007L9.55334 5.96007L9.77334 5.2734L9.19334 4.8534H9.91334L10.1333 4.1734ZM14.1867 4.1734L14.4067 4.86007H15.1267L14.5467 5.28007L14.7667 5.96007L14.1867 5.54007L13.6067 5.96007L13.8333 5.2734L13.2467 4.8534H13.96L14.1867 4.1734ZM18.24 4.1734L18.46 4.86007H19.1733L18.6 5.28007L18.82 5.96007L18.24 5.54007L17.66 5.96007L17.88 5.2734L17.3067 4.8534H18.02L18.24 4.1734ZM22.2933 4.1734L22.5133 4.86007H23.2333L22.6467 5.28007L22.8733 5.96007L22.2933 5.54007L21.7133 5.96007L21.94 5.2734L21.3533 4.8534H22.0733L22.2933 4.1734ZM4.05334 5.90673L4.27334 6.58673H5L4.42 7.00673L4.64 7.6934L4.06 7.26673L3.48 7.68673L3.7 7.00673L3.12667 6.58673H3.84L4.05334 5.90673ZM8.10667 5.90673L8.33334 6.58673H9.04667L8.46 7.00673L8.68667 7.6934L8.10667 7.26673L7.52667 7.68673L7.74667 7.00673L7.16667 6.58673H7.88667L8.10667 5.90673ZM12.16 5.90673L12.38 6.58673H13.1L12.52 7.00673L12.74 7.6934L12.16 7.26673L11.58 7.68673L11.8 7.00673L11.2267 6.58673H11.9333L12.16 5.90673ZM16.2133 5.90673L16.44 6.58673H17.1533L16.5733 7.00673L16.7933 7.6934L16.2133 7.26673L15.64 7.68673L15.8533 7.00673L15.2733 6.58673H16L16.2133 5.90673ZM20.2667 5.90673L20.4867 6.58673H21.2067L20.6267 7.00673L20.8467 7.6934L20.2667 7.26673L19.6867 7.68673L19.9067 7.00673L19.3333 6.58673H20.0467L20.2667 5.90673ZM2.02667 7.6334L2.25334 8.3134H2.96L2.38667 8.7334L2.60667 9.42007L2.02667 8.9934L1.45334 9.4134L1.66667 8.7334L1.08667 8.3134H1.81334L2.02667 7.6334ZM6.08 7.6334L6.3 8.3134H7.02L6.44 8.7334L6.65334 9.4134L6.08 8.9934L5.5 9.4134L5.72 8.7334L5.14667 8.3134H5.85334L6.08 7.6334ZM10.1333 7.6334L10.3533 8.3134H11.0667L10.4933 8.7334L10.7133 9.42007L10.1333 8.9934L9.55334 9.4134L9.77334 8.7334L9.19334 8.3134H9.91334L10.1333 7.6334ZM14.1867 7.6334L14.4067 8.3134H15.1267L14.5467 8.7334L14.7667 9.42007L14.1867 8.9934L13.6067 9.4134L13.8333 8.7334L13.2467 8.3134H13.96L14.1867 7.6334ZM18.24 7.6334L18.46 8.3134H19.1733L18.6 8.7334L18.82 9.42007L18.24 8.9934L17.66 9.4134L17.88 8.7334L17.3067 8.3134H18.02L18.24 7.6334ZM22.2933 7.6334L22.5133 8.3134H23.2333L22.6467 8.7334L22.8733 9.42007L22.2933 8.9934L21.7133 9.4134L21.9333 8.7334L21.3467 8.3134H22.0667L22.2933 7.6334ZM4.05334 9.3534L4.27334 10.0401H5L4.42 10.4534L4.64 11.1401L4.06 10.7134L3.48 11.1401L3.7 10.4534L3.12667 10.0334H3.84L4.05334 9.3534ZM8.10667 9.3534L8.33334 10.0401H9.04667L8.46 10.4534L8.68667 11.1401L8.10667 10.7134L7.52667 11.1401L7.74667 10.4534L7.16667 10.0334H7.88667L8.10667 9.3534ZM12.16 9.3534L12.38 10.0401H13.1L12.52 10.4534L12.74 11.1401L12.16 10.7134L11.58 11.1401L11.8 10.4534L11.2267 10.0334H11.9333L12.16 9.3534ZM16.2133 9.3534L16.44 10.0401H17.1533L16.5733 10.4534L16.7933 11.1401L16.2133 10.7134L15.64 11.1401L15.8533 10.4534L15.2733 10.0334H16L16.2133 9.3534ZM20.2667 9.3534L20.4867 10.0401H21.2067L20.6267 10.4534L20.8467 11.1401L20.2667 10.7134L19.6867 11.1401L19.9067 10.4534L19.3333 10.0334H20.0467L20.2667 9.3534ZM2.02667 11.0734L2.25334 11.7601H2.96L2.38667 12.1801L2.60667 12.8534L2.02667 12.4401L1.45334 12.8534L1.66667 12.1734L1.08667 11.7534H1.81334L2.02667 11.0734ZM6.08 11.0734L6.3 11.7601H7.02L6.44 12.1801L6.66 12.8534L6.08 12.4401L5.5 12.8534L5.72667 12.1734L5.14667 11.7534H5.85334L6.08 11.0734ZM10.1333 11.0734L10.3533 11.7601H11.0667L10.4933 12.1801L10.7133 12.8534L10.1333 12.4401L9.55334 12.8534L9.77334 12.1734L9.19334 11.7534H9.91334L10.1333 11.0734ZM14.1867 11.0734L14.4067 11.7601H15.1267L14.5467 12.1801L14.7667 12.8534L14.1867 12.4401L13.6067 12.8534L13.8333 12.1734L13.2467 11.7534H13.96L14.1867 11.0734ZM18.24 11.0734L18.46 11.7601H19.1733L18.6 12.1801L18.82 12.8534L18.24 12.4401L17.66 12.8534L17.88 12.1734L17.3067 11.7534H18.02L18.24 11.0734ZM22.2933 11.0734L22.5133 11.7601H23.2333L22.6467 12.1801L22.8733 12.8534L22.2933 12.4401L21.7133 12.8534L21.94 12.1734L21.3533 11.7534H22.0733L22.2933 11.0734ZM4.05334 12.8001L4.27334 13.4801H5L4.42 13.9001L4.64 14.5867L4.06 14.1601L3.48 14.5801L3.7 13.9001L3.12667 13.4801H3.84L4.05334 12.8001ZM8.10667 12.8001L8.33334 13.4801H9.04667L8.46 13.9001L8.68667 14.5867L8.10667 14.1601L7.52667 14.5801L7.74667 13.9001L7.16667 13.4801H7.88667L8.10667 12.8001ZM12.16 12.8001L12.38 13.4801H13.1L12.52 13.9001L12.74 14.5867L12.16 14.1601L11.58 14.5801L11.8 13.9001L11.2267 13.4801H11.9333L12.16 12.8001ZM16.2133 12.8001L16.44 13.4801H17.1533L16.5733 13.9001L16.7933 14.5867L16.2133 14.1601L15.64 14.5801L15.8533 13.9001L15.2733 13.4801H16L16.2133 12.8001ZM20.2667 12.8001L20.4867 13.4801H21.2067L20.6267 13.9001L20.8467 14.5867L20.2667 14.1601L19.6867 14.5801L19.9067 13.9001L19.3333 13.4801H20.0467L20.2667 12.8001ZM2.02667 14.5267L2.25334 15.2067H2.96L2.38667 15.6267L2.60667 16.3067L2.02667 15.8867L1.45334 16.3067L1.66667 15.6201L1.08667 15.2001H1.81334L2.02667 14.5267ZM6.08 14.5267L6.3 15.2067H7.02L6.44 15.6267L6.66 16.3067L6.08 15.8867L5.5 16.3067L5.72667 15.6201L5.14667 15.2001H5.85334L6.08 14.5267ZM10.1333 14.5267L10.3533 15.2067H11.0667L10.5067 15.6267L10.7267 16.3067L10.1467 15.8867L9.56667 16.3067L9.78667 15.6201L9.20667 15.2001H9.92667L10.1333 14.5267ZM14.1867 14.5267L14.4067 15.2067H15.1267L14.5467 15.6267L14.7667 16.3067L14.1867 15.8867L13.6067 16.3067L13.8333 15.6201L13.2467 15.2001H13.96L14.1867 14.5267ZM18.24 14.5267L18.46 15.2067H19.1733L18.6 15.6267L18.82 16.3067L18.24 15.8867L17.66 16.3067L17.88 15.6201L17.3067 15.2001H18.02L18.24 14.5267ZM22.2933 14.5267L22.5133 15.2067H23.2333L22.6467 15.6267L22.8733 16.3067L22.2933 15.8867L21.7133 16.3067L21.94 15.6201L21.3533 15.2001H22.0733L22.2933 14.5267Z" fill="white"/>
</g>
<defs>
<clipPath id="clip0_168_707">
<rect width="42.6667" height="32" rx="8" fill="white"/>
</clipPath>
</defs>
</svg>
