<svg width="43" height="32" viewBox="0 0 43 32" fill="none" xmlns="http://www.w3.org/2000/svg">
<g clip-path="url(#clip0_176_311)">
<path d="M10.0067 0H32.6533V32H10L10.0067 0Z" fill="white"/>
<path d="M-1.31323 0H10.0068V32H-1.31323V0ZM32.6534 0H43.9734V32H32.6601L32.6534 0ZM13.4001 15.4667L12.5134 15.76L16.6068 19.36C16.9201 20.2733 16.5001 20.5467 16.2334 21.0267L20.6734 20.4667L20.5668 24.9333L21.4934 24.9133L21.2868 20.4733L25.7334 21.0067C25.4601 20.4267 25.2134 20.12 25.4668 19.1933L29.5534 15.7933L28.8401 15.5267C28.2534 15.0733 29.0934 13.3533 29.2134 12.2667C29.2134 12.2667 26.8334 13.0867 26.6801 12.6533L26.0668 11.4867L23.8934 13.8733C23.6601 13.9333 23.5601 13.84 23.5001 13.64L24.5001 8.65333L22.9134 9.54667C22.7801 9.60667 22.6468 9.55333 22.5668 9.4L21.0334 6.33333L19.4601 9.52C19.3401 9.63333 19.2201 9.64667 19.1268 9.56667L17.6001 8.72L18.5134 13.66C18.4401 13.86 18.2668 13.9133 18.0668 13.8067L15.9868 11.4533C15.7201 11.8867 15.5334 12.5933 15.1734 12.7533C14.8134 12.9067 13.6068 12.4533 12.8001 12.2867C13.0801 13.2733 13.9334 14.9267 13.4001 15.4667Z" fill="#D52B1E"/>
</g>
<defs>
<clipPath id="clip0_176_311">
<rect width="42.6667" height="32" rx="8" fill="white"/>
</clipPath>
</defs>
</svg>
