<svg width="18" height="19" viewBox="0 0 18 19" fill="none" xmlns="http://www.w3.org/2000/svg">
<path d="M16.9999 7.99129H9.16659V11.0746H13.7499C13.6666 11.8246 13.1666 12.9913 12.0833 13.7413C11.4166 14.2413 10.4166 14.5746 9.16659 14.5746C6.99992 14.5746 5.08325 13.158 4.41659 11.0746C4.24992 10.5746 4.16659 9.99129 4.16659 9.40796C4.16659 8.82463 4.24992 8.24129 4.41659 7.74129C4.49992 7.57463 4.49992 7.40796 4.58325 7.32463C5.33325 5.57463 7.08325 4.32463 9.16659 4.32463C10.7499 4.32463 11.7499 4.99129 12.4166 5.57463L14.7499 3.24129C13.3333 1.99129 11.4166 1.15796 9.16659 1.15796C5.91659 1.15796 3.08325 2.99129 1.74992 5.74129C1.16659 6.90796 0.833252 8.15796 0.833252 9.49129C0.833252 10.8246 1.16659 12.0746 1.74992 13.2413C3.08325 15.9913 5.91659 17.8246 9.16659 17.8246C11.4166 17.8246 13.3333 17.0746 14.6666 15.8246C16.2499 14.408 17.1666 12.2413 17.1666 9.65796C17.1666 8.99129 17.0833 8.49129 16.9999 7.99129Z" stroke="#00091F" stroke-miterlimit="10" stroke-linecap="round" stroke-linejoin="round"/>
</svg>
