<svg width="20" height="20" viewBox="0 0 20 20" fill="none" xmlns="http://www.w3.org/2000/svg">
<path d="M16.6666 6.87508V15.0001C16.6666 17.5001 15.175 18.3334 13.3333 18.3334H6.66665C4.82498 18.3334 3.33331 17.5001 3.33331 15.0001V6.87508C3.33331 4.16675 4.82498 3.54175 6.66665 3.54175C6.66665 4.05841 6.87496 4.52508 7.21662 4.86675C7.55829 5.20841 8.02498 5.41675 8.54165 5.41675H11.4583C12.4916 5.41675 13.3333 4.57508 13.3333 3.54175C15.175 3.54175 16.6666 4.16675 16.6666 6.87508Z" stroke="#00091F" stroke-linecap="round" stroke-linejoin="round"/>
<path d="M13.3334 3.54175C13.3334 4.57508 12.4917 5.41675 11.4584 5.41675H8.54169C8.02502 5.41675 7.55833 5.20841 7.21666 4.86674C6.875 4.52508 6.66669 4.05841 6.66669 3.54175C6.66669 2.50841 7.50835 1.66675 8.54169 1.66675H11.4584C11.975 1.66675 12.4417 1.87508 12.7834 2.21675C13.125 2.55842 13.3334 3.02508 13.3334 3.54175Z" stroke="#00091F" stroke-linecap="round" stroke-linejoin="round"/>
<path d="M6.66669 10.8333H10" stroke="#00091F" stroke-linecap="round" stroke-linejoin="round"/>
<path d="M6.66669 14.1667H13.3334" stroke="#00091F" stroke-linecap="round" stroke-linejoin="round"/>
</svg>
