<svg width="25" height="24" viewBox="0 0 25 24" fill="none" xmlns="http://www.w3.org/2000/svg">
<path d="M12.5 14C13.6046 14 14.5 13.1046 14.5 12C14.5 10.8954 13.6046 10 12.5 10C11.3954 10 10.5 10.8954 10.5 12C10.5 13.1046 11.3954 14 12.5 14Z" stroke="#00091F" stroke-width="1.5" stroke-linecap="round" stroke-linejoin="round"/>
<path d="M20.5 18C21.76 16.33 22.5 14.25 22.5 12C22.5 9.75 21.76 7.67 20.5 6" stroke="#00091F" stroke-width="1.5" stroke-linecap="round" stroke-linejoin="round"/>
<path d="M4.5 6C3.24 7.67 2.5 9.75 2.5 12C2.5 14.25 3.24 16.33 4.5 18" stroke="#00091F" stroke-width="1.5" stroke-linecap="round" stroke-linejoin="round"/>
<path d="M17.3 15.5999C18.05 14.5999 18.5001 13.3499 18.5001 11.9999C18.5001 10.6499 18.05 9.3999 17.3 8.3999" stroke="#00091F" stroke-width="1.5" stroke-linecap="round" stroke-linejoin="round"/>
<path d="M7.70001 8.3999C6.95001 9.3999 6.5 10.6499 6.5 11.9999C6.5 13.3499 6.95001 14.5999 7.70001 15.5999" stroke="#00091F" stroke-width="1.5" stroke-linecap="round" stroke-linejoin="round"/>
</svg>
